<svg width="946" height="60" viewBox="0 0 946 60" fill="none" xmlns="http://www.w3.org/2000/svg">
<g clip-path="url(#clip0_9337_6671)">
<path fill-rule="evenodd" clip-rule="evenodd" d="M9.17771 38.5674C8.4814 38.3487 7.844 37.7794 7.49842 36.9755C7.09669 36.0404 7.19593 35.0372 7.67872 34.3575C8.50393 34.4746 9.30028 35.093 9.70241 36.0281C10.048 36.832 10.0231 37.686 9.70241 38.342L9.81154 38.5959L9.82143 38.5919C9.97563 38.9703 10.1457 39.3226 10.3295 39.652L10.4224 39.4294C10.0954 38.777 10.0614 37.9229 10.3991 37.1155C10.7914 36.1764 11.5814 35.5501 12.4058 35.4247C12.8957 36.0997 13.0048 37.1016 12.6126 38.0407C12.2753 38.8481 11.6438 39.4238 10.9499 39.6496L10.6972 40.2534C11.3536 41.236 12.1504 41.9908 13.0373 42.61L13.0851 42.0996C12.5778 41.5745 12.2911 40.7694 12.3726 39.8983C12.4667 38.8853 13.0341 38.0514 13.783 37.6856C14.452 38.1839 14.8553 39.1075 14.7608 40.1209C14.6798 40.992 14.2488 41.7302 13.6537 42.1525L13.5782 42.9647C14.4398 43.4969 15.3713 43.9263 16.3322 44.3288L16.2788 43.9224C15.6679 43.5226 15.2096 42.8014 15.0961 41.9335C14.9633 40.9248 15.3318 39.9861 15.9811 39.4634C16.7434 39.8011 17.3416 40.612 17.4741 41.6215C17.5884 42.489 17.3318 43.3044 16.845 43.848L16.9407 44.5791C17.1503 44.6642 17.3606 44.7488 17.5718 44.833C17.686 44.8789 17.8007 44.9247 17.9154 44.971C18.754 44.5198 19.9924 44.9283 21.7045 44.2905C22.1154 44.0105 22.6492 43.6195 23.1482 43.245C23.3933 41.2237 24.7563 39.5903 26.4771 38.1581C26.8207 40.1328 27.7111 41.926 28.9855 43.3743C27.6605 44.332 25.9745 44.9057 24.3103 44.7662C23.8295 45.077 23.0011 45.6519 22.5124 46.1319C22.3494 46.2916 22.2083 46.6305 22.0829 46.9741C22.9485 47.5206 23.7737 48.1714 24.5293 48.9859L24.0987 49.3853C23.4163 48.6494 22.6681 48.0512 21.8809 47.5431C21.8417 47.6487 21.8046 47.7416 21.7686 47.8136C21.3934 48.5664 20.5136 48.6056 20.0221 48.0219C19.3032 48.5751 18.1597 48.1291 18.081 47.2291C16.928 47.1588 16.8399 46.0346 17.3887 45.4573C17.4006 45.4395 17.4128 45.4225 17.4251 45.4055L17.3531 45.3767C17.1313 45.2877 16.9103 45.1991 16.69 45.1098L15.9209 45.5147C15.758 46.2264 15.2401 46.9065 14.4659 47.3138C13.5655 47.7882 12.5572 47.7681 11.8419 47.3403C11.8941 46.5079 12.4477 45.6657 13.348 45.1912C14.1222 44.7832 14.9755 44.7413 15.6544 45.0093L16.002 44.8263C15.3223 44.5404 14.6572 44.2399 14.0194 43.8986L13.2915 44.1296C13.0056 44.8014 12.3757 45.379 11.5418 45.6436C10.5723 45.952 9.58339 45.7539 8.9543 45.2066C9.1524 44.3965 9.84594 43.665 10.8163 43.3573C11.6502 43.0924 12.4975 43.2015 13.1187 43.5851L13.3425 43.5139C12.8285 43.2027 12.3374 42.8572 11.876 42.4617L11.0594 42.5088C10.6162 43.0889 9.86334 43.4934 8.98989 43.5436C7.97409 43.6025 7.06466 43.1668 6.59057 42.4811C6.98241 41.7449 7.8353 41.2075 8.8515 41.149C9.72495 41.0984 10.5193 41.4135 11.0266 41.9386L11.2971 41.9228C10.9199 41.5401 10.568 41.1154 10.2461 40.6385L9.39637 40.4009C8.78942 40.8058 7.94602 40.9446 7.10301 40.7089C6.1228 40.4353 5.40396 39.7283 5.17778 38.9256C5.7871 38.3566 6.76811 38.1245 7.74832 38.3986C8.59092 38.6338 9.24018 39.1898 9.54978 39.8505L9.80838 39.9228C9.71348 39.7516 9.62214 39.5745 9.53436 39.391L9.53159 39.3922L9.49561 39.308C9.42048 39.1471 9.34773 38.9814 9.27814 38.8106L9.2813 38.8094L9.17692 38.5662L9.17771 38.5674ZM38.5603 28.2449L39.0478 29.3343L40.2344 29.4612L39.3491 30.2615L39.5951 31.4295L38.5603 30.8345L37.5255 31.4295L37.7714 30.2615L36.8861 29.4612L38.0727 29.3343L38.5603 28.2449ZM30.9764 28.2449L31.4639 29.3343L32.6506 29.4612L31.7652 30.2615L32.0112 31.4295L30.9764 30.8345L29.9416 31.4295L30.1876 30.2615L29.3019 29.4612L30.4885 29.3343L30.976 28.2449H30.9764ZM34.7683 28.2449L35.2559 29.3343L36.4425 29.4612L35.5572 30.2615L35.8031 31.4295L34.7683 30.8345L33.7336 31.4295L33.9795 30.2615L33.0938 29.4612L34.2804 29.3343L34.7679 28.2449H34.7683ZM27.4324 26.3968H42.1039V36.5109C42.1039 40.9477 38.947 44.6831 34.7679 45.5819C30.5893 44.6827 27.432 40.9477 27.432 36.5109V26.3968H27.4324ZM28.5957 27.5253H40.941V32.1492H28.5957V27.5253ZM29.823 33.1496H31.8012V43.0972C31.0191 42.5234 30.3473 41.8077 29.823 40.9897V33.1499V33.1496ZM33.779 33.1496H35.7573V44.1513C35.4366 44.2668 35.1064 44.3617 34.7683 44.4344C34.4303 44.3617 34.1001 44.2668 33.7794 44.1513V33.1496H33.779ZM37.7355 33.1496H39.7137V40.9893C39.1898 41.8077 38.5176 42.523 37.7355 43.0972V33.1496ZM53.8103 40.5385L50.0104 44.6527C50.4292 44.6764 50.8008 44.6863 51.1278 44.7488L57.6168 40.304L58.202 38.3124L62.4451 37.3764L60.0438 40.9976L57.9751 40.8263L51.8281 45.0366C51.9471 45.1252 52.057 45.2367 52.1583 45.3783L55.69 44.2154L56.8071 42.4657L61.1427 42.7488L57.8276 45.5578L55.8885 44.8172L52.4726 45.9417C52.615 46.5004 52.3461 47.1331 51.4904 47.1856C51.4121 48.0856 50.2686 48.5316 49.5498 47.9784C49.0622 48.5573 48.1924 48.5233 47.8124 47.7875L47.0227 48.3284L47.0951 49.4818L46.3343 50.0037L46.3557 50.0749L44.266 52.3512L43.8722 51.0401L43.6776 50.8613L42.3376 50.581L42.6725 50.2164L42.5005 50.2734L42.7959 48.9369L42.7132 48.6862L41.68 47.7882L44.6143 46.8195L45.3822 47.4838L45.6151 47.324L45.8808 47.4462L46.8701 47.1204L47.3577 46.5925C47.2671 46.3798 47.1683 46.1952 47.0603 46.0888C46.5716 45.6088 45.7432 45.0342 45.2624 44.7231C43.5985 44.8626 41.9133 44.2893 40.5887 43.3324C41.8568 41.8758 42.7389 40.0751 43.0707 38.0945C44.8029 39.5314 46.1782 41.1707 46.4241 43.2019C46.9227 43.5764 47.4565 43.9678 47.8677 44.2474C48.3545 44.4289 48.8029 44.5254 49.2149 44.5815L53.3441 40.1107L53.4663 38.0383L57.3899 36.172L55.8648 40.2407L53.8103 40.5393V40.5385ZM58.6963 18.5686C62.2194 17.3515 65.5056 15.5718 68.6376 12.8241C69.0528 12.46 69.564 12.7075 69.5355 13.1962C69.4632 14.4239 68.3351 16.3903 67.5818 17.2467C67.1137 17.779 66.6345 18.2708 66.1441 18.7267C64.1501 19.8888 62.1284 20.6773 60.0411 21.2075C62.7227 20.8596 65.3518 20.0941 68.0326 18.6908C68.428 18.4836 68.7827 18.7758 68.6672 19.1542C68.3766 20.1051 67.1157 21.4349 66.3608 21.9639C66.2391 22.0493 66.1173 22.1316 65.9951 22.2126C64.145 23.0505 62.2806 23.6013 60.3704 23.9481C62.3475 23.8868 64.3597 23.5764 66.4613 22.9414C66.8883 22.8121 67.1821 23.1656 66.9974 23.5155C66.5336 24.3949 65.0457 25.4645 64.2051 25.8429C63.9398 25.9623 63.676 26.0726 63.4135 26.1754C62.1391 26.447 60.8552 26.6127 59.5516 26.6965C60.9604 26.9168 62.4341 26.9492 64.0181 26.7345C64.457 26.6752 64.8116 27.2098 64.4767 27.619C62.7322 29.7487 60.2866 30.4031 57.7726 30.2603C58.6239 30.4845 59.5207 30.6411 60.4752 30.7198C60.9165 30.7562 61.1482 31.3548 60.733 31.6822C58.6658 33.3125 56.263 33.4872 53.9368 32.9048C54.6984 33.3038 55.5212 33.6438 56.4207 33.9155C56.8074 34.0321 56.8988 34.6098 56.4662 34.8221C54.4018 35.8351 52.3184 35.5979 50.4224 34.7276C50.9974 35.2899 51.6541 35.8035 52.4184 36.261C52.6822 36.4184 52.6426 36.862 52.284 36.9383C50.4683 37.3258 48.8974 36.671 47.6166 35.5627C48.0429 36.227 48.5569 36.8636 49.184 37.4713C49.4047 37.6848 49.2647 38.1075 48.8982 38.1004C46.5131 38.0522 44.9168 36.4219 43.9133 34.4461L43.217 34.7786V27.3066C44.5787 26.158 45.3909 24.6891 44.8721 22.6472C43.905 18.8382 46.3209 18.5283 49.0318 16.8363C55.8581 12.5758 61.2316 7.98358 64.6052 0.40287C64.8433 -0.132509 65.4459 -0.121042 65.6353 0.362538C66.1113 1.57762 65.8974 3.97298 65.5522 5.13271C65.0532 6.80844 64.4 8.30267 63.6163 9.65852C62.1268 11.3837 60.4922 12.8692 58.7212 14.1966C62.0636 12.2741 65.0524 9.82657 67.6941 6.42173C68.0429 5.97215 68.6079 6.1228 68.6744 6.6226C68.8412 7.87801 68.0848 10.0867 67.4901 11.0994C66.6989 12.4477 65.8203 13.6205 64.8638 14.6537C62.9263 16.2586 60.8734 17.5263 58.6955 18.5694L58.6963 18.5686ZM10.8404 18.5686C7.31732 17.3515 4.03111 15.5718 0.899104 12.8241C0.483928 12.46 -0.027331 12.7075 0.0011382 13.1962C0.0734974 14.4239 1.20159 16.3903 1.95484 17.2467C2.423 17.779 2.90262 18.2708 3.39253 18.7267C5.38656 19.8888 7.40827 20.6773 9.49561 21.2075C6.81397 20.8596 4.18492 20.0941 1.50407 18.6908C1.10867 18.4836 0.75399 18.7758 0.869448 19.1542C1.16007 20.1051 2.42102 21.4349 3.17585 21.9639C3.29763 22.0493 3.41942 22.1316 3.5416 22.2126C5.3917 23.0505 7.25604 23.6013 9.16624 23.9481C7.18921 23.8868 5.17699 23.5764 3.07541 22.9414C2.64838 22.8121 2.35459 23.1656 2.53925 23.5155C3.00306 24.3949 4.49097 25.4645 5.3316 25.8429C5.59691 25.9623 5.86065 26.0726 6.1232 26.1754C7.39759 26.447 8.68147 26.6127 9.98512 26.6965C8.5759 26.9168 7.10262 26.9492 5.51862 26.7345C5.07972 26.6752 4.72505 27.2098 5.05995 27.619C6.80448 29.7487 9.25006 30.4031 11.7637 30.2603C10.9123 30.4845 10.0156 30.6411 9.06106 30.7198C8.61979 30.7562 8.38808 31.3548 8.80326 31.6822C10.87 33.3125 13.2733 33.4872 15.5995 32.9048C14.8375 33.3038 14.0151 33.6438 13.1155 33.9155C12.7292 34.0321 12.6375 34.6098 13.0701 34.8221C15.1345 35.8351 17.2179 35.5979 19.1138 34.7276C18.5389 35.2899 17.8822 35.8035 17.1178 36.261C16.8541 36.4184 16.8936 36.862 17.2523 36.9383C19.068 37.3258 20.6389 36.671 21.9196 35.5627C21.4934 36.227 20.9794 36.8636 20.3523 37.4713C20.1316 37.6848 20.2712 38.1075 20.6381 38.1004C23.0236 38.0522 24.6195 36.4219 25.623 34.4461L26.3193 34.7786V27.3066C24.9575 26.158 24.1454 24.6891 24.6642 22.6472C25.6313 18.8382 23.2154 18.5283 20.5045 16.8363C13.6782 12.575 8.30465 7.98319 4.93145 0.402474C4.69341 -0.132905 4.09082 -0.121438 3.90142 0.362143C3.42535 1.57722 3.63887 3.97259 3.98445 5.13231C4.48345 6.80804 5.13666 8.30228 5.92036 9.65812C7.40985 11.3833 9.04445 12.8688 10.8155 14.1962C7.47351 12.2737 4.48424 9.82617 1.84254 6.42133C1.49379 5.97176 0.928759 6.12241 0.862331 6.6222C0.69547 7.87761 1.45188 10.0863 2.04617 11.099C2.83738 12.4473 3.71597 13.6201 4.67246 14.6533C6.60994 16.2582 8.66289 17.5259 10.8408 18.569L10.8404 18.5686ZM30.4873 16.0269C28.9124 16.2187 27.6412 16.7881 27.5257 18.5033C27.4964 18.9359 27.5257 19.2613 27.651 19.6765C27.7246 19.9201 27.9705 20.011 28.1366 19.705C28.708 18.6516 29.5609 18.5927 30.6494 18.843C31.0361 20.2846 31.3168 21.9809 30.0689 23.0564C29.759 23.3237 29.9013 23.5863 30.2457 23.6116C30.2686 23.6132 30.292 23.6143 30.3149 23.6155C30.1646 23.9382 29.9907 24.557 29.7953 25.1979H39.9438C39.8794 24.7108 39.8319 24.2541 39.7457 23.9935C39.8117 23.9916 39.8778 23.9872 39.9426 23.9801C40.2862 23.9437 40.4195 23.6764 40.1008 23.4198C39.3108 22.7836 39.431 22.2249 39.2052 21.3238C39.2847 21.3226 39.3641 21.3178 39.4424 21.3095C39.786 21.2732 39.9193 21.0059 39.6006 20.7492C38.8224 20.1229 38.7592 19.5508 38.4646 18.6872C38.5073 18.6821 38.55 18.6753 38.5923 18.667C38.8422 18.6188 38.9237 18.414 38.6734 18.2455C38.036 17.8157 37.8924 17.2021 37.4951 16.5896C37.5287 16.5738 37.5619 16.5572 37.5943 16.5398C37.8181 16.4188 37.8343 16.1989 37.5453 16.1131C36.4943 15.8015 36.0435 14.9154 34.7944 14.6667C32.9985 14.3093 31.5047 14.5022 30.4889 16.0265L30.4873 16.0269ZM34.2863 59.1672C34.0167 57.8466 33.7668 56.5457 33.5845 55.2045C33.1764 56.2875 32.7352 57.3673 32.1863 58.3875C32.112 58.5259 31.9396 58.5777 31.8012 58.5033C31.3109 58.2396 31.6589 54.488 31.6925 54.008C31.0772 54.987 30.4292 55.9569 29.6858 56.8446C29.585 56.9652 29.4059 56.981 29.2853 56.8802C29.0417 56.6766 29.3201 55.741 29.3786 55.4409C29.5379 54.6216 29.7665 53.6881 30.0583 52.6632C29.2959 53.3836 28.5059 54.0871 27.655 54.7023C27.5277 54.7944 27.3497 54.766 27.2576 54.639C27.194 54.5509 27.188 54.4386 27.2323 54.3472C28.2766 51.7328 29.9139 49.2837 31.5051 46.9836C31.7716 46.5981 32.0515 46.26 32.2892 45.9132C33.0677 46.2992 33.8984 46.5933 34.7683 46.7808C35.639 46.5933 36.4706 46.2988 37.2495 45.9124C37.4777 46.245 37.7438 46.57 37.9988 46.9377C39.6156 49.2706 41.2613 51.7245 42.3123 54.3674C42.37 54.5129 42.2988 54.6778 42.1533 54.7355C41.7223 54.9063 39.6374 52.8131 39.4784 52.6628C39.8493 53.9617 40.1842 55.2855 40.3515 56.6275C40.3704 56.7837 40.2593 56.9257 40.1031 56.9447C39.5899 57.0071 38.1012 54.4188 37.8446 54.01C37.9431 55.4259 38.0028 56.86 37.8845 58.276C37.8719 58.4326 37.7343 58.5492 37.5773 58.5366C37.0779 58.4954 36.1056 55.6141 35.9514 55.2037C35.743 56.7473 35.4852 58.3009 35.0404 59.7955C34.9961 59.9462 34.8383 60.0324 34.6877 59.9881C34.4212 59.9098 34.3306 59.3867 34.2859 59.1672H34.2863Z" fill="#F1F2F3"/>
</g>
<path d="M89.7766 26.66C88.6993 26.66 87.846 26.292 87.2166 25.556C86.5926 24.82 86.2806 23.7453 86.2806 22.332C86.2806 21.4733 86.406 20.724 86.6566 20.084C86.9073 19.444 87.2833 18.948 87.7846 18.596C88.286 18.244 88.91 18.068 89.6566 18.068C90.0566 18.068 90.4086 18.1187 90.7126 18.22C91.0166 18.3213 91.2806 18.4493 91.5046 18.604C91.7286 18.7587 91.91 18.9187 92.0486 19.084C92.1926 19.2493 92.2993 19.4013 92.3686 19.54V14.612H93.8646V26.5H92.7286L92.5686 24.804C92.5153 24.964 92.43 25.1507 92.3126 25.364C92.1953 25.572 92.03 25.7773 91.8166 25.98C91.6086 26.1773 91.3366 26.34 91.0006 26.468C90.6646 26.596 90.2566 26.66 89.7766 26.66ZM90.0406 25.524C90.8726 25.524 91.4673 25.2707 91.8246 24.764C92.1873 24.252 92.3686 23.4173 92.3686 22.26C92.3633 21.6147 92.2833 21.0653 92.1286 20.612C91.974 20.1587 91.7286 19.8147 91.3926 19.58C91.062 19.34 90.6193 19.22 90.0646 19.22C89.3873 19.22 88.8353 19.4627 88.4086 19.948C87.982 20.4333 87.7686 21.204 87.7686 22.26C87.7686 23.2947 87.9606 24.0973 88.3446 24.668C88.7286 25.2387 89.294 25.524 90.0406 25.524ZM99.6195 26.66C98.8568 26.66 98.1902 26.4973 97.6195 26.172C97.0542 25.8413 96.6142 25.3587 96.2995 24.724C95.9848 24.0893 95.8275 23.3133 95.8275 22.396C95.8275 21.532 95.9742 20.7747 96.2675 20.124C96.5608 19.4733 96.9902 18.9693 97.5555 18.612C98.1208 18.2493 98.8115 18.068 99.6275 18.068C100.39 18.068 101.051 18.236 101.611 18.572C102.171 18.9027 102.606 19.3907 102.915 20.036C103.23 20.6813 103.387 21.468 103.387 22.396C103.387 23.2387 103.243 23.98 102.955 24.62C102.667 25.26 102.243 25.7613 101.683 26.124C101.129 26.4813 100.441 26.66 99.6195 26.66ZM99.6275 25.492C100.118 25.492 100.534 25.3667 100.875 25.116C101.217 24.8653 101.475 24.5053 101.651 24.036C101.833 23.5667 101.923 23.0093 101.923 22.364C101.923 21.772 101.843 21.2413 101.683 20.772C101.529 20.2973 101.283 19.9213 100.947 19.644C100.611 19.3667 100.171 19.228 99.6275 19.228C99.1262 19.228 98.7022 19.3533 98.3555 19.604C98.0088 19.8493 97.7448 20.2067 97.5635 20.676C97.3875 21.1453 97.2995 21.708 97.2995 22.364C97.2995 22.9453 97.3768 23.4733 97.5315 23.948C97.6915 24.4227 97.9422 24.7987 98.2835 25.076C98.6302 25.3533 99.0782 25.492 99.6275 25.492ZM105.354 26.5V18.228H106.778V19.428C107.008 19.0653 107.322 18.748 107.722 18.476C108.122 18.204 108.642 18.068 109.282 18.068C109.581 18.068 109.885 18.1187 110.194 18.22C110.509 18.3213 110.797 18.4733 111.058 18.676C111.32 18.8787 111.522 19.1267 111.666 19.42C111.922 19.0147 112.269 18.6893 112.706 18.444C113.144 18.1933 113.637 18.068 114.186 18.068C114.474 18.068 114.776 18.1133 115.09 18.204C115.405 18.2893 115.696 18.444 115.962 18.668C116.234 18.8867 116.456 19.1933 116.626 19.588C116.797 19.9773 116.882 20.4787 116.882 21.092V26.5H115.394V21.236C115.394 20.7347 115.314 20.348 115.154 20.076C114.994 19.7987 114.784 19.604 114.522 19.492C114.266 19.38 113.992 19.324 113.698 19.324C113.442 19.324 113.17 19.3747 112.882 19.476C112.594 19.5773 112.349 19.748 112.146 19.988C111.944 20.228 111.842 20.556 111.842 20.972V26.5H110.37V20.804C110.37 20.4787 110.282 20.2067 110.106 19.988C109.936 19.7693 109.72 19.604 109.458 19.492C109.202 19.38 108.946 19.324 108.69 19.324C108.408 19.324 108.122 19.38 107.834 19.492C107.552 19.604 107.312 19.7827 107.114 20.028C106.922 20.268 106.826 20.5827 106.826 20.972V26.5H105.354ZM121.487 26.66C120.948 26.66 120.474 26.5667 120.063 26.38C119.658 26.188 119.338 25.9133 119.103 25.556C118.874 25.1987 118.759 24.7667 118.759 24.26C118.759 23.3427 119.079 22.66 119.719 22.212C120.359 21.764 121.386 21.524 122.799 21.492L124.271 21.452V20.804C124.271 20.2973 124.119 19.8973 123.815 19.604C123.511 19.3053 123.042 19.156 122.407 19.156C121.932 19.1613 121.514 19.2733 121.151 19.492C120.788 19.7107 120.556 20.068 120.455 20.564H119.151C119.183 20.0253 119.332 19.572 119.599 19.204C119.871 18.8307 120.252 18.548 120.743 18.356C121.234 18.164 121.812 18.068 122.479 18.068C123.199 18.068 123.796 18.1693 124.271 18.372C124.751 18.5747 125.108 18.8733 125.343 19.268C125.583 19.6627 125.703 20.148 125.703 20.724V26.5H124.439L124.327 24.948C124.012 25.5933 123.607 26.0413 123.111 26.292C122.62 26.5373 122.079 26.66 121.487 26.66ZM121.927 25.596C122.21 25.596 122.487 25.5453 122.759 25.444C123.036 25.3427 123.287 25.2067 123.511 25.036C123.74 24.86 123.924 24.6653 124.063 24.452C124.202 24.2333 124.271 24.0093 124.271 23.78V22.364L123.047 22.388C122.412 22.3987 121.884 22.4627 121.463 22.58C121.042 22.6973 120.724 22.8813 120.511 23.132C120.298 23.3827 120.191 23.7107 120.191 24.116C120.191 24.58 120.354 24.9427 120.679 25.204C121.004 25.4653 121.42 25.596 121.927 25.596ZM128.051 26.5V18.228H129.483V26.5H128.051ZM128.011 16.476V14.94H129.523V16.476H128.011ZM132.073 26.5V18.228H133.505V19.428C133.638 19.1987 133.822 18.9827 134.057 18.78C134.297 18.5773 134.585 18.4147 134.921 18.292C135.262 18.1693 135.654 18.108 136.097 18.108C136.62 18.108 137.1 18.212 137.537 18.42C137.98 18.628 138.332 18.9533 138.593 19.396C138.86 19.8333 138.993 20.3987 138.993 21.092V26.5H137.513V21.236C137.513 20.5907 137.342 20.1133 137.001 19.804C136.665 19.4893 136.228 19.332 135.689 19.332C135.316 19.332 134.966 19.3933 134.641 19.516C134.316 19.6333 134.052 19.8147 133.849 20.06C133.646 20.3 133.545 20.604 133.545 20.972V26.5H132.073ZM140.963 26.5V24.612H142.723V26.5H140.963ZM148.71 29.236C147.414 29.236 146.403 29.0467 145.678 28.668C144.952 28.2947 144.59 27.7587 144.59 27.06C144.59 26.7613 144.659 26.508 144.798 26.3C144.936 26.0867 145.102 25.9107 145.294 25.772C145.486 25.6333 145.664 25.524 145.83 25.444C145.995 25.3587 146.104 25.2973 146.158 25.26C146.062 25.2067 145.947 25.14 145.814 25.06C145.68 24.98 145.56 24.8733 145.454 24.74C145.352 24.6067 145.302 24.4333 145.302 24.22C145.302 23.9587 145.424 23.7187 145.67 23.5C145.915 23.2813 146.28 23.1187 146.766 23.012C146.28 22.7667 145.902 22.4413 145.63 22.036C145.358 21.6307 145.222 21.1907 145.222 20.716C145.222 20.1827 145.366 19.7187 145.654 19.324C145.942 18.9293 146.355 18.628 146.894 18.42C147.432 18.2067 148.075 18.1 148.822 18.1C149.36 18.1 149.811 18.164 150.174 18.292C150.542 18.4147 150.883 18.5907 151.198 18.82C151.283 18.7827 151.419 18.7267 151.606 18.652C151.792 18.572 151.995 18.4867 152.214 18.396C152.438 18.3053 152.646 18.22 152.838 18.14C153.035 18.0547 153.192 17.9907 153.31 17.948L153.302 19.316L151.854 19.588C151.939 19.7587 152.006 19.9453 152.054 20.148C152.102 20.3507 152.126 20.54 152.126 20.716C152.126 21.2013 151.998 21.6413 151.742 22.036C151.491 22.4307 151.11 22.7453 150.598 22.98C150.086 23.2147 149.446 23.332 148.678 23.332C148.614 23.332 148.531 23.332 148.43 23.332C148.334 23.3267 148.251 23.3213 148.182 23.316C147.616 23.332 147.227 23.396 147.014 23.508C146.806 23.6147 146.702 23.7347 146.702 23.868C146.702 24.0227 146.822 24.1293 147.062 24.188C147.302 24.2467 147.707 24.2973 148.278 24.34C148.486 24.3507 148.742 24.364 149.046 24.38C149.355 24.396 149.699 24.4173 150.078 24.444C150.942 24.4973 151.608 24.7187 152.078 25.108C152.547 25.4973 152.782 26.0227 152.782 26.684C152.782 27.436 152.446 28.0493 151.774 28.524C151.107 28.9987 150.086 29.236 148.71 29.236ZM148.974 28.284C149.736 28.284 150.32 28.1693 150.726 27.94C151.136 27.7107 151.342 27.364 151.342 26.9C151.342 26.5693 151.216 26.3 150.966 26.092C150.715 25.8787 150.336 25.756 149.83 25.724L147.51 25.572C147.302 25.5613 147.086 25.6147 146.862 25.732C146.638 25.844 146.448 26.0013 146.294 26.204C146.139 26.4067 146.062 26.636 146.062 26.892C146.062 27.3293 146.299 27.6707 146.774 27.916C147.248 28.1613 147.982 28.284 148.974 28.284ZM148.726 22.38C149.318 22.38 149.795 22.2413 150.158 21.964C150.526 21.6867 150.71 21.276 150.71 20.732C150.71 20.172 150.526 19.7453 150.158 19.452C149.795 19.1587 149.318 19.012 148.726 19.012C148.118 19.012 147.627 19.1613 147.254 19.46C146.886 19.7533 146.702 20.1773 146.702 20.732C146.702 21.2547 146.878 21.66 147.23 21.948C147.587 22.236 148.086 22.38 148.726 22.38ZM158.213 26.66C157.451 26.66 156.784 26.4973 156.213 26.172C155.648 25.8413 155.208 25.3587 154.893 24.724C154.579 24.0893 154.421 23.3133 154.421 22.396C154.421 21.532 154.568 20.7747 154.861 20.124C155.155 19.4733 155.584 18.9693 156.149 18.612C156.715 18.2493 157.405 18.068 158.221 18.068C158.984 18.068 159.645 18.236 160.205 18.572C160.765 18.9027 161.2 19.3907 161.509 20.036C161.824 20.6813 161.981 21.468 161.981 22.396C161.981 23.2387 161.837 23.98 161.549 24.62C161.261 25.26 160.837 25.7613 160.277 26.124C159.723 26.4813 159.035 26.66 158.213 26.66ZM158.221 25.492C158.712 25.492 159.128 25.3667 159.469 25.116C159.811 24.8653 160.069 24.5053 160.245 24.036C160.427 23.5667 160.517 23.0093 160.517 22.364C160.517 21.772 160.437 21.2413 160.277 20.772C160.123 20.2973 159.877 19.9213 159.541 19.644C159.205 19.3667 158.765 19.228 158.221 19.228C157.72 19.228 157.296 19.3533 156.949 19.604C156.603 19.8493 156.339 20.2067 156.157 20.676C155.981 21.1453 155.893 21.708 155.893 22.364C155.893 22.9453 155.971 23.4733 156.125 23.948C156.285 24.4227 156.536 24.7987 156.877 25.076C157.224 25.3533 157.672 25.492 158.221 25.492ZM165.936 26.5L162.944 18.228H164.336L166.536 24.644H166.672L168.88 18.228H170.264L167.288 26.5H165.936Z" fill="#DCDEE0"/>
<path d="M85.9766 48.5L90.1126 36.932H92.5846L96.7206 48.5H94.3926L93.4486 45.82H89.2806L88.3206 48.5H85.9766ZM89.8086 43.78H92.8806L91.3526 39.18L89.8086 43.78ZM98.1616 48.5V40.228H100.458V41.396C100.586 41.1933 100.751 40.9987 100.954 40.812C101.162 40.62 101.423 40.4627 101.738 40.34C102.052 40.2173 102.426 40.156 102.858 40.156C103.364 40.156 103.836 40.2547 104.274 40.452C104.716 40.6493 105.074 40.9613 105.346 41.388C105.618 41.8093 105.754 42.3613 105.754 43.044V48.5H103.418V43.332C103.418 42.884 103.284 42.548 103.018 42.324C102.751 42.1 102.426 41.988 102.042 41.988C101.786 41.988 101.538 42.0333 101.298 42.124C101.063 42.2147 100.871 42.3507 100.722 42.532C100.572 42.7133 100.498 42.9373 100.498 43.204V48.5H98.1616ZM114.77 48.66C113.959 48.66 113.252 48.4867 112.65 48.14C112.052 47.7933 111.588 47.3027 111.258 46.668C110.932 46.0333 110.77 45.2813 110.77 44.412C110.77 43.5427 110.932 42.7827 111.258 42.132C111.588 41.4813 112.052 40.9747 112.65 40.612C113.252 40.2493 113.962 40.068 114.778 40.068C115.594 40.068 116.3 40.2467 116.898 40.604C117.495 40.956 117.956 41.4573 118.282 42.108C118.607 42.7587 118.77 43.5267 118.77 44.412C118.77 45.244 118.61 45.98 118.29 46.62C117.975 47.2547 117.519 47.7533 116.922 48.116C116.33 48.4787 115.612 48.66 114.77 48.66ZM114.778 46.924C115.188 46.924 115.519 46.804 115.77 46.564C116.02 46.324 116.202 46.0093 116.314 45.62C116.426 45.2253 116.482 44.796 116.482 44.332C116.482 43.8947 116.431 43.4813 116.33 43.092C116.228 42.7027 116.052 42.388 115.802 42.148C115.551 41.908 115.21 41.788 114.778 41.788C114.367 41.788 114.034 41.9027 113.778 42.132C113.527 42.356 113.343 42.6627 113.226 43.052C113.108 43.436 113.05 43.8627 113.05 44.332C113.05 44.764 113.103 45.18 113.21 45.58C113.316 45.9747 113.495 46.2973 113.746 46.548C113.996 46.7987 114.34 46.924 114.778 46.924ZM121.058 48.5V41.852H119.53V40.228H121.058V39.036C121.058 38.3693 121.256 37.852 121.65 37.484C122.045 37.116 122.6 36.932 123.314 36.932H125.21L125.226 38.484H124.13C123.837 38.484 123.634 38.5587 123.522 38.708C123.41 38.852 123.354 39.092 123.354 39.428V40.228H125.146V41.852H123.402V48.5H121.058ZM127.215 48.5V41.852H125.687V40.228H127.215V39.036C127.215 38.3693 127.412 37.852 127.807 37.484C128.201 37.116 128.756 36.932 129.471 36.932H131.367L131.383 38.484H130.287C129.993 38.484 129.791 38.5587 129.679 38.708C129.567 38.852 129.511 39.092 129.511 39.428V40.228H131.303V41.852H129.559V48.5H127.215ZM132.655 48.5V40.228H134.887V48.5H132.655ZM132.631 39.044V36.94H134.903V39.044H132.631ZM140.496 48.66C139.728 48.66 139.043 48.4893 138.44 48.148C137.837 47.8067 137.363 47.3187 137.016 46.684C136.675 46.044 136.504 45.2813 136.504 44.396C136.504 43.5427 136.669 42.7907 137 42.14C137.331 41.4893 137.795 40.9827 138.392 40.62C138.995 40.252 139.696 40.068 140.496 40.068C141.189 40.068 141.787 40.2093 142.288 40.492C142.795 40.7747 143.192 41.156 143.48 41.636C143.773 42.116 143.941 42.652 143.984 43.244H142.04C142.003 43.0253 141.925 42.8093 141.808 42.596C141.691 42.3773 141.525 42.1987 141.312 42.06C141.099 41.916 140.832 41.844 140.512 41.844C139.968 41.844 139.525 42.0547 139.184 42.476C138.848 42.892 138.68 43.5267 138.68 44.38C138.68 45.1853 138.845 45.8253 139.176 46.3C139.507 46.7693 139.968 47.004 140.56 47.004C140.875 47.004 141.136 46.9267 141.344 46.772C141.557 46.6173 141.723 46.4333 141.84 46.22C141.957 46.0013 142.032 45.7987 142.064 45.612H143.96C143.923 46.1827 143.757 46.7 143.464 47.164C143.171 47.6227 142.771 47.988 142.264 48.26C141.763 48.5267 141.173 48.66 140.496 48.66ZM145.623 48.5V40.228H147.855V48.5H145.623ZM145.599 39.044V36.94H147.871V39.044H145.599ZM152.321 48.66C151.798 48.66 151.323 48.5613 150.897 48.364C150.475 48.1667 150.142 47.8813 149.897 47.508C149.651 47.1293 149.529 46.6707 149.529 46.132C149.529 45.2253 149.867 44.5373 150.545 44.068C151.222 43.5933 152.291 43.348 153.753 43.332L154.793 43.316V42.82C154.793 42.4413 154.681 42.1507 154.457 41.948C154.238 41.74 153.894 41.6387 153.425 41.644C153.089 41.6493 152.766 41.7293 152.457 41.884C152.153 42.0387 151.942 42.308 151.825 42.692H149.881C149.913 42.0947 150.086 41.604 150.401 41.22C150.721 40.8307 151.15 40.5427 151.689 40.356C152.227 40.164 152.843 40.068 153.537 40.068C154.379 40.068 155.057 40.1747 155.569 40.388C156.081 40.596 156.451 40.8973 156.681 41.292C156.915 41.6813 157.033 42.1453 157.033 42.684V48.5H155.081L154.889 47.076C154.606 47.6733 154.251 48.0867 153.825 48.316C153.403 48.5453 152.902 48.66 152.321 48.66ZM153.113 47.124C153.321 47.124 153.523 47.0867 153.721 47.012C153.923 46.932 154.105 46.828 154.265 46.7C154.425 46.5667 154.55 46.4173 154.641 46.252C154.737 46.0867 154.787 45.916 154.793 45.74V44.516L153.953 44.532C153.563 44.5373 153.201 44.5853 152.865 44.676C152.529 44.7613 152.257 44.9027 152.049 45.1C151.846 45.2973 151.745 45.564 151.745 45.9C151.745 46.284 151.875 46.5853 152.137 46.804C152.403 47.0173 152.729 47.124 153.113 47.124ZM161.567 48.644C160.959 48.644 160.477 48.572 160.119 48.428C159.762 48.284 159.498 48.0947 159.327 47.86C159.157 47.62 159.047 47.356 158.999 47.068C158.951 46.7747 158.927 46.4787 158.927 46.18V36.612H161.215V45.892C161.215 46.196 161.279 46.444 161.407 46.636C161.541 46.8227 161.789 46.9373 162.151 46.98L162.543 47.004V48.444C162.383 48.4973 162.221 48.5427 162.055 48.58C161.89 48.6227 161.727 48.644 161.567 48.644ZM169.675 48.5L166.995 40.228H169.059L170.643 45.356H170.699L172.219 40.228H173.891L175.427 45.356H175.491L177.027 40.228H179.139L176.419 48.5H174.555L173.019 43.492L171.475 48.5H169.675ZM183.915 48.66C183.093 48.66 182.371 48.4893 181.747 48.148C181.128 47.8013 180.645 47.3133 180.299 46.684C179.952 46.0547 179.779 45.3133 179.779 44.46C179.779 43.6333 179.936 42.8893 180.251 42.228C180.571 41.5613 181.029 41.036 181.627 40.652C182.224 40.2627 182.947 40.068 183.795 40.068C184.637 40.068 185.344 40.2467 185.915 40.604C186.485 40.956 186.917 41.4493 187.211 42.084C187.504 42.7133 187.651 43.4413 187.651 44.268V44.9H182.091C182.091 45.3213 182.16 45.6893 182.299 46.004C182.437 46.3133 182.637 46.5533 182.899 46.724C183.165 46.8893 183.485 46.972 183.859 46.972C184.259 46.972 184.608 46.8867 184.907 46.716C185.205 46.5453 185.416 46.2653 185.539 45.876H187.643C187.547 46.4627 187.312 46.964 186.939 47.38C186.565 47.796 186.112 48.1133 185.579 48.332C185.045 48.5507 184.491 48.66 183.915 48.66ZM182.091 43.508H185.467C185.467 43.1773 185.403 42.8733 185.275 42.596C185.152 42.3187 184.965 42.1 184.715 41.94C184.469 41.78 184.16 41.7 183.787 41.7C183.429 41.7 183.123 41.788 182.867 41.964C182.616 42.1347 182.421 42.3587 182.283 42.636C182.149 42.9133 182.085 43.204 182.091 43.508ZM193.941 48.66C193.531 48.66 193.176 48.6067 192.877 48.5C192.579 48.3933 192.325 48.252 192.117 48.076C191.909 47.8947 191.739 47.6947 191.605 47.476C191.472 47.2573 191.368 47.0333 191.293 46.804L191.029 48.5H189.333V36.612H191.677V41.348C191.779 41.172 191.909 41.0067 192.069 40.852C192.229 40.6973 192.416 40.5613 192.629 40.444C192.843 40.3267 193.077 40.236 193.333 40.172C193.595 40.1027 193.872 40.068 194.165 40.068C195.195 40.068 196 40.4387 196.581 41.18C197.168 41.9213 197.461 42.9667 197.461 44.316C197.461 45.1907 197.328 45.9533 197.061 46.604C196.795 47.2547 196.4 47.7613 195.877 48.124C195.355 48.4813 194.709 48.66 193.941 48.66ZM193.429 46.98C193.931 46.98 194.347 46.7747 194.677 46.364C195.013 45.948 195.181 45.2547 195.181 44.284C195.181 43.4253 195.021 42.7907 194.701 42.38C194.387 41.9693 193.957 41.764 193.413 41.764C193.024 41.764 192.701 41.8573 192.445 42.044C192.189 42.2253 191.997 42.5027 191.869 42.876C191.747 43.2493 191.683 43.7187 191.677 44.284C191.677 45.26 191.821 45.9533 192.109 46.364C192.403 46.7747 192.843 46.98 193.429 46.98ZM202.365 48.66C201.789 48.66 201.234 48.5667 200.701 48.38C200.173 48.188 199.722 47.8893 199.349 47.484C198.981 47.0733 198.749 46.5427 198.653 45.892H200.669C200.743 46.1853 200.871 46.4173 201.053 46.588C201.239 46.7587 201.45 46.8813 201.685 46.956C201.919 47.0253 202.143 47.06 202.357 47.06C202.805 47.06 203.165 46.9907 203.437 46.852C203.714 46.708 203.853 46.4893 203.853 46.196C203.853 45.972 203.77 45.7933 203.605 45.66C203.445 45.5267 203.178 45.4253 202.805 45.356L201.349 45.052C200.618 44.8973 200.029 44.636 199.581 44.268C199.138 43.8947 198.914 43.3667 198.909 42.684C198.903 42.188 199.031 41.7427 199.293 41.348C199.559 40.9533 199.951 40.6413 200.469 40.412C200.991 40.1827 201.629 40.068 202.381 40.068C203.399 40.068 204.213 40.292 204.821 40.74C205.434 41.188 205.746 41.82 205.757 42.636H203.805C203.746 42.316 203.586 42.0707 203.325 41.9C203.069 41.724 202.743 41.636 202.349 41.636C201.949 41.636 201.618 41.708 201.357 41.852C201.095 41.996 200.965 42.2147 200.965 42.508C200.965 42.7267 201.071 42.9 201.285 43.028C201.498 43.1507 201.829 43.2573 202.277 43.348L203.621 43.652C204.085 43.764 204.461 43.9187 204.749 44.116C205.042 44.308 205.269 44.5187 205.429 44.748C205.589 44.9773 205.698 45.2093 205.757 45.444C205.821 45.6733 205.853 45.8813 205.853 46.068C205.853 46.6173 205.706 47.0867 205.413 47.476C205.119 47.86 204.711 48.1533 204.189 48.356C203.666 48.5587 203.058 48.66 202.365 48.66ZM207.498 48.5V40.228H209.73V48.5H207.498ZM207.474 39.044V36.94H209.746V39.044H207.474ZM215.308 48.588C214.577 48.588 214.012 48.4947 213.612 48.308C213.217 48.1213 212.942 47.86 212.788 47.524C212.638 47.188 212.564 46.7987 212.564 46.356V41.852H211.22V40.228H212.636L213.228 37.732H214.892V40.22H216.732V41.852H214.892L214.908 46.26C214.908 46.4627 214.932 46.6147 214.98 46.716C215.033 46.812 215.113 46.876 215.22 46.908C215.332 46.9347 215.473 46.948 215.644 46.948H216.756V48.388C216.644 48.436 216.476 48.4813 216.252 48.524C216.028 48.5667 215.713 48.588 215.308 48.588ZM221.93 48.66C221.109 48.66 220.386 48.4893 219.762 48.148C219.144 47.8013 218.661 47.3133 218.314 46.684C217.968 46.0547 217.794 45.3133 217.794 44.46C217.794 43.6333 217.952 42.8893 218.266 42.228C218.586 41.5613 219.045 41.036 219.642 40.652C220.24 40.2627 220.962 40.068 221.81 40.068C222.653 40.068 223.36 40.2467 223.93 40.604C224.501 40.956 224.933 41.4493 225.226 42.084C225.52 42.7133 225.666 43.4413 225.666 44.268V44.9H220.106C220.106 45.3213 220.176 45.6893 220.314 46.004C220.453 46.3133 220.653 46.5533 220.914 46.724C221.181 46.8893 221.501 46.972 221.874 46.972C222.274 46.972 222.624 46.8867 222.922 46.716C223.221 46.5453 223.432 46.2653 223.554 45.876H225.658C225.562 46.4627 225.328 46.964 224.954 47.38C224.581 47.796 224.128 48.1133 223.594 48.332C223.061 48.5507 222.506 48.66 221.93 48.66ZM220.106 43.508H223.482C223.482 43.1773 223.418 42.8733 223.29 42.596C223.168 42.3187 222.981 42.1 222.73 41.94C222.485 41.78 222.176 41.7 221.802 41.7C221.445 41.7 221.138 41.788 220.882 41.964C220.632 42.1347 220.437 42.3587 220.298 42.636C220.165 42.9133 220.101 43.204 220.106 43.508ZM234.426 48.66C233.615 48.66 232.909 48.4867 232.306 48.14C231.709 47.7933 231.245 47.3027 230.914 46.668C230.589 46.0333 230.426 45.2813 230.426 44.412C230.426 43.5427 230.589 42.7827 230.914 42.132C231.245 41.4813 231.709 40.9747 232.306 40.612C232.909 40.2493 233.618 40.068 234.434 40.068C235.25 40.068 235.957 40.2467 236.554 40.604C237.151 40.956 237.613 41.4573 237.938 42.108C238.263 42.7587 238.426 43.5267 238.426 44.412C238.426 45.244 238.266 45.98 237.946 46.62C237.631 47.2547 237.175 47.7533 236.578 48.116C235.986 48.4787 235.269 48.66 234.426 48.66ZM234.434 46.924C234.845 46.924 235.175 46.804 235.426 46.564C235.677 46.324 235.858 46.0093 235.97 45.62C236.082 45.2253 236.138 44.796 236.138 44.332C236.138 43.8947 236.087 43.4813 235.986 43.092C235.885 42.7027 235.709 42.388 235.458 42.148C235.207 41.908 234.866 41.788 234.434 41.788C234.023 41.788 233.69 41.9027 233.434 42.132C233.183 42.356 232.999 42.6627 232.882 43.052C232.765 43.436 232.706 43.8627 232.706 44.332C232.706 44.764 232.759 45.18 232.866 45.58C232.973 45.9747 233.151 46.2973 233.402 46.548C233.653 46.7987 233.997 46.924 234.434 46.924ZM240.715 48.5V41.852H239.187V40.228H240.715V39.036C240.715 38.3693 240.912 37.852 241.307 37.484C241.701 37.116 242.256 36.932 242.971 36.932H244.867L244.883 38.484H243.787C243.493 38.484 243.291 38.5587 243.179 38.708C243.067 38.852 243.011 39.092 243.011 39.428V40.228H244.803V41.852H243.059V48.5H240.715ZM257.044 46.836L249.668 43.98V42.044L257.044 39.164V41.172L252.236 43.028L257.044 44.828V46.836ZM259.27 48.5V36.932H263.526C264.369 36.932 265.123 37.0787 265.79 37.372C266.457 37.66 266.982 38.0867 267.366 38.652C267.755 39.2173 267.95 39.908 267.95 40.724C267.95 41.492 267.779 42.148 267.438 42.692C267.097 43.236 266.617 43.652 265.998 43.94C265.385 44.228 264.662 44.372 263.83 44.372H261.622V48.5H259.27ZM261.598 42.564H263.766C264.353 42.564 264.833 42.3773 265.206 42.004C265.579 41.6253 265.766 41.1587 265.766 40.604C265.766 40.028 265.569 39.572 265.174 39.236C264.779 38.8947 264.299 38.724 263.734 38.724H261.598V42.564ZM271.649 48.66C271.126 48.66 270.652 48.5613 270.225 48.364C269.804 48.1667 269.47 47.8813 269.225 47.508C268.98 47.1293 268.857 46.6707 268.857 46.132C268.857 45.2253 269.196 44.5373 269.873 44.068C270.55 43.5933 271.62 43.348 273.081 43.332L274.121 43.316V42.82C274.121 42.4413 274.009 42.1507 273.785 41.948C273.566 41.74 273.222 41.6387 272.753 41.644C272.417 41.6493 272.094 41.7293 271.785 41.884C271.481 42.0387 271.27 42.308 271.153 42.692H269.209C269.241 42.0947 269.414 41.604 269.729 41.22C270.049 40.8307 270.478 40.5427 271.017 40.356C271.556 40.164 272.172 40.068 272.865 40.068C273.708 40.068 274.385 40.1747 274.897 40.388C275.409 40.596 275.78 40.8973 276.009 41.292C276.244 41.6813 276.361 42.1453 276.361 42.684V48.5H274.409L274.217 47.076C273.934 47.6733 273.58 48.0867 273.153 48.316C272.732 48.5453 272.23 48.66 271.649 48.66ZM272.441 47.124C272.649 47.124 272.852 47.0867 273.049 47.012C273.252 46.932 273.433 46.828 273.593 46.7C273.753 46.5667 273.878 46.4173 273.969 46.252C274.065 46.0867 274.116 45.916 274.121 45.74V44.516L273.281 44.532C272.892 44.5373 272.529 44.5853 272.193 44.676C271.857 44.7613 271.585 44.9027 271.377 45.1C271.174 45.2973 271.073 45.564 271.073 45.9C271.073 46.284 271.204 46.5853 271.465 46.804C271.732 47.0173 272.057 47.124 272.441 47.124ZM278.255 48.5V40.228H280.503V42.188C280.637 41.7667 280.823 41.3987 281.063 41.084C281.309 40.764 281.605 40.516 281.951 40.34C282.298 40.1587 282.69 40.068 283.127 40.068C283.202 40.068 283.271 40.0733 283.335 40.084C283.405 40.0893 283.455 40.1 283.487 40.116V42.34C283.439 42.3187 283.381 42.3053 283.311 42.3C283.247 42.2947 283.189 42.2893 283.135 42.284C282.677 42.2467 282.285 42.26 281.959 42.324C281.634 42.388 281.37 42.4973 281.167 42.652C280.965 42.8067 280.818 42.996 280.727 43.22C280.637 43.444 280.591 43.6947 280.591 43.972V48.5H278.255ZM288.633 48.66C287.812 48.66 287.089 48.4893 286.465 48.148C285.847 47.8013 285.364 47.3133 285.017 46.684C284.671 46.0547 284.497 45.3133 284.497 44.46C284.497 43.6333 284.655 42.8893 284.969 42.228C285.289 41.5613 285.748 41.036 286.345 40.652C286.943 40.2627 287.665 40.068 288.513 40.068C289.356 40.068 290.063 40.2467 290.633 40.604C291.204 40.956 291.636 41.4493 291.929 42.084C292.223 42.7133 292.369 43.4413 292.369 44.268V44.9H286.809C286.809 45.3213 286.879 45.6893 287.017 46.004C287.156 46.3133 287.356 46.5533 287.617 46.724C287.884 46.8893 288.204 46.972 288.577 46.972C288.977 46.972 289.327 46.8867 289.625 46.716C289.924 46.5453 290.135 46.2653 290.257 45.876H292.361C292.265 46.4627 292.031 46.964 291.657 47.38C291.284 47.796 290.831 48.1133 290.297 48.332C289.764 48.5507 289.209 48.66 288.633 48.66ZM286.809 43.508H290.185C290.185 43.1773 290.121 42.8733 289.993 42.596C289.871 42.3187 289.684 42.1 289.433 41.94C289.188 41.78 288.879 41.7 288.505 41.7C288.148 41.7 287.841 41.788 287.585 41.964C287.335 42.1347 287.14 42.3587 287.001 42.636C286.868 42.9133 286.804 43.204 286.809 43.508ZM294.052 48.5V40.228H296.348V41.396C296.476 41.1933 296.642 40.9987 296.844 40.812C297.052 40.62 297.314 40.4627 297.628 40.34C297.943 40.2173 298.316 40.156 298.748 40.156C299.255 40.156 299.727 40.2547 300.164 40.452C300.607 40.6493 300.964 40.9613 301.236 41.388C301.508 41.8093 301.644 42.3613 301.644 43.044V48.5H299.308V43.332C299.308 42.884 299.175 42.548 298.908 42.324C298.642 42.1 298.316 41.988 297.932 41.988C297.676 41.988 297.428 42.0333 297.188 42.124C296.954 42.2147 296.762 42.3507 296.612 42.532C296.463 42.7133 296.388 42.9373 296.388 43.204V48.5H294.052ZM306.823 48.588C306.093 48.588 305.527 48.4947 305.127 48.308C304.733 48.1213 304.458 47.86 304.303 47.524C304.154 47.188 304.079 46.7987 304.079 46.356V41.852H302.735V40.228H304.151L304.743 37.732H306.407V40.22H308.247V41.852H306.407L306.423 46.26C306.423 46.4627 306.447 46.6147 306.495 46.716C306.549 46.812 306.629 46.876 306.735 46.908C306.847 46.9347 306.989 46.948 307.159 46.948H308.271V48.388C308.159 48.436 307.991 48.4813 307.767 48.524C307.543 48.5667 307.229 48.588 306.823 48.588ZM315.977 48.66C315.454 48.66 314.98 48.5613 314.553 48.364C314.132 48.1667 313.798 47.8813 313.553 47.508C313.308 47.1293 313.185 46.6707 313.185 46.132C313.185 45.2253 313.524 44.5373 314.201 44.068C314.878 43.5933 315.948 43.348 317.409 43.332L318.449 43.316V42.82C318.449 42.4413 318.337 42.1507 318.113 41.948C317.894 41.74 317.55 41.6387 317.081 41.644C316.745 41.6493 316.422 41.7293 316.113 41.884C315.809 42.0387 315.598 42.308 315.481 42.692H313.537C313.569 42.0947 313.742 41.604 314.057 41.22C314.377 40.8307 314.806 40.5427 315.345 40.356C315.884 40.164 316.5 40.068 317.193 40.068C318.036 40.068 318.713 40.1747 319.225 40.388C319.737 40.596 320.108 40.8973 320.337 41.292C320.572 41.6813 320.689 42.1453 320.689 42.684V48.5H318.737L318.545 47.076C318.262 47.6733 317.908 48.0867 317.481 48.316C317.06 48.5453 316.558 48.66 315.977 48.66ZM316.769 47.124C316.977 47.124 317.18 47.0867 317.377 47.012C317.58 46.932 317.761 46.828 317.921 46.7C318.081 46.5667 318.206 46.4173 318.297 46.252C318.393 46.0867 318.444 45.916 318.449 45.74V44.516L317.609 44.532C317.22 44.5373 316.857 44.5853 316.521 44.676C316.185 44.7613 315.913 44.9027 315.705 45.1C315.502 45.2973 315.401 45.564 315.401 45.9C315.401 46.284 315.532 46.5853 315.793 46.804C316.06 47.0173 316.385 47.124 316.769 47.124ZM326.423 51.236C324.951 51.236 323.831 51.0493 323.063 50.676C322.301 50.3027 321.919 49.812 321.919 49.204C321.919 48.9213 321.991 48.684 322.135 48.492C322.285 48.3 322.458 48.148 322.655 48.036C322.858 47.9187 323.042 47.8307 323.207 47.772C323.378 47.708 323.485 47.6653 323.527 47.644C323.442 47.596 323.317 47.5267 323.151 47.436C322.991 47.34 322.845 47.212 322.711 47.052C322.578 46.8867 322.511 46.6733 322.511 46.412C322.511 46.1187 322.65 45.8467 322.927 45.596C323.21 45.3453 323.637 45.172 324.207 45.076C323.663 44.82 323.247 44.4733 322.959 44.036C322.677 43.5987 322.535 43.1507 322.535 42.692C322.535 42.148 322.706 41.6813 323.047 41.292C323.389 40.9027 323.855 40.6067 324.447 40.404C325.039 40.2013 325.709 40.1 326.455 40.1C327.021 40.1 327.485 40.1613 327.847 40.284C328.215 40.4013 328.554 40.556 328.863 40.748C328.986 40.7 329.146 40.6387 329.343 40.564C329.546 40.484 329.765 40.3987 329.999 40.308C330.239 40.212 330.471 40.1187 330.695 40.028C330.919 39.932 331.119 39.8467 331.295 39.772L331.279 41.58L329.855 41.812C329.909 41.956 329.951 42.1107 329.983 42.276C330.015 42.4413 330.031 42.5773 330.031 42.684C330.031 43.164 329.89 43.612 329.607 44.028C329.33 44.444 328.914 44.78 328.359 45.036C327.805 45.292 327.114 45.42 326.287 45.42C326.191 45.42 326.058 45.4173 325.887 45.412C325.717 45.4067 325.578 45.3987 325.471 45.388C325.162 45.404 324.946 45.444 324.823 45.508C324.706 45.572 324.647 45.6467 324.647 45.732C324.647 45.86 324.767 45.9453 325.007 45.988C325.247 46.0253 325.61 46.06 326.095 46.092C326.271 46.1027 326.511 46.116 326.815 46.132C327.119 46.148 327.453 46.1693 327.815 46.196C328.829 46.2653 329.583 46.516 330.079 46.948C330.581 47.3747 330.831 47.9133 330.831 48.564C330.831 49.3373 330.463 49.9747 329.727 50.476C328.997 50.9827 327.895 51.236 326.423 51.236ZM326.799 49.932C327.445 49.932 327.906 49.852 328.183 49.692C328.466 49.532 328.607 49.3027 328.607 49.004C328.607 48.7533 328.498 48.5507 328.279 48.396C328.066 48.236 327.757 48.1427 327.351 48.116L325.455 47.988C325.205 47.9773 324.986 48.0147 324.799 48.1C324.613 48.1853 324.466 48.3027 324.359 48.452C324.258 48.6013 324.207 48.7613 324.207 48.932C324.207 49.2787 324.418 49.532 324.839 49.692C325.261 49.852 325.914 49.932 326.799 49.932ZM326.359 44.116C326.802 44.116 327.157 43.996 327.423 43.756C327.69 43.5107 327.823 43.18 327.823 42.764C327.823 42.332 327.69 41.9853 327.423 41.724C327.157 41.4627 326.802 41.332 326.359 41.332C325.917 41.332 325.559 41.4627 325.287 41.724C325.015 41.9853 324.879 42.332 324.879 42.764C324.879 43.1747 325.01 43.5027 325.271 43.748C325.538 43.9933 325.901 44.116 326.359 44.116ZM336.243 48.66C335.422 48.66 334.699 48.4893 334.075 48.148C333.456 47.8013 332.974 47.3133 332.627 46.684C332.28 46.0547 332.107 45.3133 332.107 44.46C332.107 43.6333 332.264 42.8893 332.579 42.228C332.899 41.5613 333.358 41.036 333.955 40.652C334.552 40.2627 335.275 40.068 336.123 40.068C336.966 40.068 337.672 40.2467 338.243 40.604C338.814 40.956 339.246 41.4493 339.539 42.084C339.832 42.7133 339.979 43.4413 339.979 44.268V44.9H334.419C334.419 45.3213 334.488 45.6893 334.627 46.004C334.766 46.3133 334.966 46.5533 335.227 46.724C335.494 46.8893 335.814 46.972 336.187 46.972C336.587 46.972 336.936 46.8867 337.235 46.716C337.534 46.5453 337.744 46.2653 337.867 45.876H339.971C339.875 46.4627 339.64 46.964 339.267 47.38C338.894 47.796 338.44 48.1133 337.907 48.332C337.374 48.5507 336.819 48.66 336.243 48.66ZM334.419 43.508H337.795C337.795 43.1773 337.731 42.8733 337.603 42.596C337.48 42.3187 337.294 42.1 337.043 41.94C336.798 41.78 336.488 41.7 336.115 41.7C335.758 41.7 335.451 41.788 335.195 41.964C334.944 42.1347 334.75 42.3587 334.611 42.636C334.478 42.9133 334.414 43.204 334.419 43.508ZM341.662 48.5V40.228H343.958V41.396C344.086 41.1933 344.251 40.9987 344.454 40.812C344.662 40.62 344.923 40.4627 345.238 40.34C345.552 40.2173 345.926 40.156 346.358 40.156C346.864 40.156 347.336 40.2547 347.774 40.452C348.216 40.6493 348.574 40.9613 348.846 41.388C349.118 41.8093 349.254 42.3613 349.254 43.044V48.5H346.918V43.332C346.918 42.884 346.784 42.548 346.518 42.324C346.251 42.1 345.926 41.988 345.542 41.988C345.286 41.988 345.038 42.0333 344.798 42.124C344.563 42.2147 344.371 42.3507 344.222 42.532C344.072 42.7133 343.998 42.9373 343.998 43.204V48.5H341.662ZM354.746 48.66C353.978 48.66 353.293 48.4893 352.69 48.148C352.087 47.8067 351.613 47.3187 351.266 46.684C350.925 46.044 350.754 45.2813 350.754 44.396C350.754 43.5427 350.919 42.7907 351.25 42.14C351.581 41.4893 352.045 40.9827 352.642 40.62C353.245 40.252 353.946 40.068 354.746 40.068C355.439 40.068 356.037 40.2093 356.538 40.492C357.045 40.7747 357.442 41.156 357.73 41.636C358.023 42.116 358.191 42.652 358.234 43.244H356.29C356.253 43.0253 356.175 42.8093 356.058 42.596C355.941 42.3773 355.775 42.1987 355.562 42.06C355.349 41.916 355.082 41.844 354.762 41.844C354.218 41.844 353.775 42.0547 353.434 42.476C353.098 42.892 352.93 43.5267 352.93 44.38C352.93 45.1853 353.095 45.8253 353.426 46.3C353.757 46.7693 354.218 47.004 354.81 47.004C355.125 47.004 355.386 46.9267 355.594 46.772C355.807 46.6173 355.973 46.4333 356.09 46.22C356.207 46.0013 356.282 45.7987 356.314 45.612H358.21C358.173 46.1827 358.007 46.7 357.714 47.164C357.421 47.6227 357.021 47.988 356.514 48.26C356.013 48.5267 355.423 48.66 354.746 48.66ZM360.973 51.14C360.408 51.14 360.008 51.092 359.773 50.996C359.539 50.9053 359.421 50.86 359.421 50.86V49.372L360.245 49.404C360.603 49.4253 360.891 49.4067 361.109 49.348C361.328 49.2947 361.493 49.2227 361.605 49.132C361.717 49.0413 361.797 48.9453 361.845 48.844C361.899 48.748 361.936 48.6707 361.957 48.612L362.109 48.156L358.893 40.228H361.205L363.189 45.62L365.189 40.228H367.477L364.125 48.548C363.837 49.252 363.531 49.7907 363.205 50.164C362.885 50.5373 362.539 50.7933 362.165 50.932C361.797 51.0707 361.4 51.14 360.973 51.14ZM368.629 46.836V44.828L373.445 43.028L368.621 41.172V39.164L376.005 42.044V43.98L368.629 46.836Z" fill="white"/>
<defs>
<clipPath id="clip0_9337_6671">
<rect width="69.5368" height="60" fill="white"/>
</clipPath>
</defs>
</svg>
