<svg width="480" height="480" viewBox="0 0 480 480" fill="none" xmlns="http://www.w3.org/2000/svg">
<path d="M67.9032 126.619C33.1843 165.062 11.177 215.225 8.55542 270.462C8.097 280.121 15.9638 287.708 25.2499 287.708H86.4846C95.9584 287.708 103.163 280.087 103.835 271.221C106.074 241.675 117.794 214.734 135.956 193.43C141.708 186.681 141.977 176.235 135.299 169.556L91.9338 126.191C85.3557 119.613 74.4005 119.425 67.9032 126.619Z" fill="#FFD600" stroke="white" stroke-width="12.21"/>
<path d="M386.445 125.256L343.102 168.599C336.382 175.319 336.7 185.842 342.541 192.583C361.118 214.023 373.121 241.287 375.391 271.221C376.063 280.087 383.267 287.708 392.741 287.708H453.976C463.262 287.708 471.129 280.121 470.671 270.462C468.026 214.733 445.656 164.176 410.41 125.613C403.897 118.487 392.997 118.704 386.445 125.256Z" fill="#FFD600" stroke="white" stroke-width="12.21"/>
<path d="M239.603 50.2915C184.854 50.2915 134.563 69.318 94.9427 101.111C87.0741 107.425 86.9615 118.918 93.7953 125.752L137.519 169.476C143.781 175.738 153.461 175.928 160.228 171.054C182.591 154.945 210.01 145.443 239.603 145.443C269.193 145.443 295.94 154.678 318.065 170.393C324.828 175.197 334.438 174.963 340.659 168.742L384.435 124.965C391.295 118.105 391.15 106.557 383.212 100.265C343.754 68.9868 293.852 50.2915 239.603 50.2915Z" fill="#181616" stroke="white" stroke-width="12.21"/>
<path d="M169.323 436V233.56H218.883V320.78L285.103 233.56H339.003L280.623 311.4L347.403 436H295.743L246.463 346.12L218.883 380.42V436H169.323Z" fill="#181616"/>
</svg>
