<svg width="166" height="30" viewBox="0 0 166 30" fill="none" xmlns="http://www.w3.org/2000/svg">
<path d="M0.662216 0.588867H5.12949V24.0123H0.662216V0.588867Z" fill="white"/>
<path d="M23.079 14.5819V24.0125H18.709V14.0836C18.709 12.2729 17.4408 11.1494 15.9527 11.1494C14.1476 11.1494 13.008 12.4617 13.008 14.2105V24.0156H8.63808V7.68296H12.9138V9.58643C13.6108 8.46292 15.193 7.27441 17.3497 7.27441C22.0681 7.27441 23.0821 11.1154 23.0821 14.5819H23.079Z" fill="white"/>
<path d="M26.2262 4.24138H30.5333V7.6769H33.6381V11.1743H30.5333V17.4821C30.5333 19.9179 31.2931 20.4162 32.9726 20.4162C33.2583 20.4162 33.4152 20.4162 33.7637 20.3852V24.0714C33.7637 24.0714 33.0982 24.2262 31.8958 24.2262C27.9371 24.2262 26.1948 22.0411 26.1948 17.6059V11.1712H24.4525V7.6738H26.2262V4.23828V4.24138Z" fill="white"/>
<path d="M42.8654 7.27637C47.9951 7.27637 50.9115 10.65 50.9115 15.989C50.9115 16.3016 50.9115 16.6142 50.8801 16.9268H39.2238C39.318 19.1119 41.0917 20.6749 43.5309 20.6749C45.7787 20.6749 47.0784 19.3626 47.5524 18.6755L50.4343 20.8296C49.8002 21.9841 47.5838 24.4199 43.465 24.4199C38.1438 24.4199 34.7534 20.7987 34.7534 15.8961C34.7534 10.9935 38.1438 7.27637 42.8623 7.27637H42.8654ZM46.4788 14.1165C46.3846 12.117 44.9279 10.8047 42.9313 10.8047C40.9347 10.8047 39.5408 12.2408 39.3525 14.1165H46.4788Z" fill="white"/>
<path d="M53.1479 1.43555H57.5178V24.014H53.1479V1.43555Z" fill="white"/>
<path d="M60.6308 1.43359H65.0007V24.0121H60.6308V1.43359Z" fill="white"/>
<path d="M70.7648 1.27637C72.2215 1.27637 73.3297 2.33797 73.3297 3.74313C73.3297 5.14829 72.2215 6.2099 70.7648 6.2099C69.3082 6.2099 68.2314 5.14829 68.2314 3.74313C68.2314 2.33797 69.3396 1.27637 70.7648 1.27637ZM68.6112 7.67696H72.9812V24.0096H68.6112V7.67696Z" fill="white"/>
<path d="M76.5702 2.15332H83.6023C88.0036 2.15332 90.8887 4.40343 90.8887 7.9318C90.8887 9.93121 89.8433 11.7728 88.2297 12.6487C90.3205 13.5215 91.6202 15.3661 91.6202 17.6132C91.6202 21.8596 88.1041 24.0137 84.0167 24.0137H76.5734V2.15332H76.5702ZM83.5678 10.9928C85.1217 10.9928 86.3241 9.96216 86.3241 8.4332C86.3241 6.90424 85.1845 5.96644 83.505 5.96644H81.0343V10.9928H83.5678ZM83.7593 20.2347C85.5644 20.2347 86.9897 19.1421 86.9897 17.3625C86.9897 15.5828 85.5644 14.5521 83.7593 14.5521H81.0343V20.2347H83.7593Z" fill="white"/>
<path d="M102.944 11.6419C99.6818 11.6419 98.4763 13.6413 98.4763 16.888V24.0067H94.1063V7.67401H98.3821V10.0479C99.1104 8.42301 100.759 7.26855 102.944 7.26855V11.6419Z" fill="white"/>
<path d="M106.818 1.27637C108.275 1.27637 109.383 2.33797 109.383 3.74313C109.383 5.14829 108.275 6.2099 106.818 6.2099C105.361 6.2099 104.285 5.14829 104.285 3.74313C104.285 2.33797 105.393 1.27637 106.818 1.27637ZM104.664 7.67696H109.034V24.0096H104.664V7.67696Z" fill="white"/>
<path d="M128.287 24.0122H124.168V22.3254C123.726 22.8578 122.077 24.4177 119.258 24.4177C114.509 24.4177 111.149 20.8893 111.149 15.8598C111.149 10.8304 114.254 7.27105 119.004 7.27105C121.855 7.27105 123.503 8.83405 123.914 9.39426V1.43066H128.284V24.0091L128.287 24.0122ZM119.798 11.0842C117.265 11.0842 115.554 13.0526 115.554 15.8939C115.554 18.7352 117.328 20.6077 119.798 20.6077C122.457 20.6077 124.043 18.4845 124.043 15.8939C124.043 12.8329 122.206 11.0842 119.798 11.0842Z" fill="white"/>
<path d="M134.012 25.1981C134.552 25.4797 136.451 26.3216 138.731 26.3216C141.01 26.3216 143.292 25.6035 143.292 23.0749V22.3259C142.943 22.7932 141.33 24.4181 138.445 24.4181C133.66 24.4181 130.527 20.8898 130.527 15.8603C130.527 10.8308 133.887 7.27148 138.605 7.27148C141.393 7.27148 143.072 8.76949 143.546 9.3947V7.67694H147.665V21.9483C147.665 28.0363 143.644 30.0047 138.765 30.0047C136.486 30.0047 134.172 29.3176 132.684 28.5067L134.015 25.195L134.012 25.1981ZM139.145 11.0846C136.674 11.0846 134.932 12.9571 134.932 15.8324C134.932 18.7077 136.706 20.6112 139.176 20.6112C141.647 20.6112 143.421 18.7387 143.421 15.8324C143.421 12.9262 141.71 11.0846 139.145 11.0846Z" fill="white"/>
<path d="M157.892 7.27637C163.022 7.27637 165.938 10.65 165.938 15.989C165.938 16.3016 165.938 16.6142 165.907 16.9268H154.251C154.345 19.1119 156.119 20.6749 158.558 20.6749C160.806 20.6749 162.105 19.3626 162.579 18.6755L165.461 20.8296C164.827 21.9841 162.611 24.4199 158.492 24.4199C153.171 24.4199 149.78 20.7987 149.78 15.8961C149.78 10.9935 153.171 7.27637 157.889 7.27637H157.892ZM161.503 14.1165C161.408 12.117 159.952 10.8047 157.955 10.8047C155.959 10.8047 154.565 12.2408 154.376 14.1165H161.503Z" fill="white"/>
</svg>
