<svg width="303" height="57" viewBox="0 0 303 57" fill="none" xmlns="http://www.w3.org/2000/svg">
<path d="M41.4394 37.2919C40.0448 42.262 37.1234 46.8615 33.2143 50.2435C31.3141 51.8874 29.2739 53.1585 27.3158 53.9575C27.0387 54.0704 26.9595 54.4246 27.163 54.6445L29.0989 56.7404C29.2261 56.8782 29.4274 56.916 29.5967 56.8375C31.6076 55.9006 33.6285 54.5802 35.5381 52.9285C39.9684 49.096 43.2782 43.8838 44.8593 38.2509C45.0899 37.4276 45.2899 36.5221 45.4541 35.5724C45.4991 35.311 45.297 35.0718 45.0314 35.0718H42.2963C42.0907 35.0718 41.9143 35.2182 41.8757 35.4195C41.7501 36.0808 41.6044 36.7106 41.4416 37.2919H41.4394Z" fill="#113958"/>
<path d="M0.428464 20.6182C0.192095 20.6182 0 20.8103 0 21.0466V29.6151C0 32.5507 0.407042 35.7763 1.08973 38.2435C2.64934 43.8985 5.92566 49.1128 10.316 52.9261C12.3055 54.6542 14.43 56.0189 16.5508 56.9629C16.7194 57.0379 16.9172 56.9986 17.0422 56.8629L18.9924 54.7513C19.198 54.5285 19.1138 54.1693 18.831 54.0608C16.7665 53.271 14.6192 51.9614 12.644 50.2461C8.77566 46.8855 5.8871 42.2882 4.51173 37.2988C3.90973 35.1215 3.55054 32.2494 3.55054 29.6158V24.5971C3.55054 24.3607 3.74263 24.1687 3.979 24.1687H41.9902C42.2266 24.1687 42.4187 24.3607 42.4187 24.5971V29.6158C42.4187 30.6098 42.3658 31.6396 42.2673 32.6536C42.243 32.9049 42.4408 33.1227 42.6936 33.1227H45.3972C45.6193 33.1227 45.8042 32.9528 45.8242 32.7314C45.9185 31.686 45.9692 30.6327 45.9692 29.6158V21.0473C45.9692 20.811 45.7771 20.6189 45.5407 20.6189H0.429179L0.428464 20.6182Z" fill="#113958"/>
<path d="M5.75317 25.9429C5.5168 25.9429 5.32471 26.135 5.32471 26.3713V29.6148C5.32471 32.0605 5.66819 34.8234 6.22163 36.825C6.89217 39.2572 7.92977 41.5695 9.30656 43.6989C10.5734 45.6598 12.088 47.4115 13.8076 48.9047C15.3779 50.2686 17.0946 51.3805 18.7706 52.1181C19.3633 52.3788 19.9468 52.5916 20.5109 52.7544C20.6673 52.7994 20.8358 52.7537 20.9465 52.6337L22.8118 50.6142C22.9817 50.4307 23.2716 50.4307 23.4416 50.6142L25.2276 52.548C25.3411 52.6708 25.5161 52.7165 25.6753 52.6651C27.7248 52.0032 29.9935 50.6821 32.0537 48.9004C33.7897 47.3986 35.32 45.6434 36.6019 43.6832C37.9979 41.5481 39.0505 39.2365 39.7311 36.8122C40.2938 34.8055 40.643 32.0477 40.643 29.6148V26.3713C40.643 26.135 40.4509 25.9429 40.2145 25.9429H5.75388H5.75317ZM24.7741 39.4407V44.061C24.7741 44.2973 24.582 44.4894 24.3457 44.4894H21.6228C21.3864 44.4894 21.1943 44.2973 21.1943 44.061V39.44C21.1943 39.2886 21.1136 39.1508 20.9844 39.0723C19.1612 37.9668 18.3229 35.3997 20.1139 32.991C20.1396 32.9567 20.1703 32.926 20.2038 32.901C23.3773 30.5345 26.8472 32.7468 26.8472 35.7689C26.8472 37.1699 26.1002 38.3946 24.9848 39.0716C24.8555 39.1501 24.7741 39.2886 24.7741 39.44V39.4407Z" fill="#113958"/>
<path d="M12.2241 18.7158H7.51098C7.27461 18.7158 7.08252 18.5237 7.08252 18.2873V15.9594C7.08252 11.4877 8.71568 7.41733 11.6807 4.49667C14.6249 1.59672 18.7103 0 23.1849 0C26.6576 0 30.3481 1.49389 33.3088 4.09892C36.3173 6.74537 38.0962 10.1759 38.2383 13.575C38.2483 13.8164 38.0519 14.017 37.8098 14.017H33.0889C32.8654 14.017 32.679 13.8449 32.6625 13.6221C32.524 11.7955 31.4357 9.87026 29.6297 8.28139C27.7002 6.58398 25.2908 5.57068 23.1842 5.57068C16.9829 5.57068 12.6518 9.84312 12.6518 15.9601V18.288C12.6518 18.5244 12.4597 18.7165 12.2234 18.7165L12.2241 18.7158Z" fill="#113958"/>
<path d="M61.7913 21.8154C62.8383 19.8527 64.3267 18.3233 66.2533 17.2254C68.1799 16.1308 70.3953 15.5811 72.9011 15.5811C76.0815 15.5811 78.7547 16.4295 80.9225 18.128C83.0903 19.8265 84.4869 22.1338 85.1137 25.0467H77.4895C77.0316 24.0834 76.3998 23.3482 75.5924 22.8427C74.7851 22.3356 73.8513 22.0829 72.7912 22.0829C71.1535 22.0829 69.8472 22.6671 68.8708 23.8356C67.896 25.004 67.407 26.563 67.407 28.5142C67.407 30.4654 67.8944 32.0622 68.8708 33.2306C69.8455 34.399 71.1535 34.9833 72.7912 34.9833C73.8513 34.9833 74.7834 34.7305 75.5924 34.2235C76.3982 33.718 77.0316 32.9828 77.4895 32.0195H85.1137C84.4869 34.934 83.0903 37.2397 80.9225 38.9382C78.7547 40.6367 76.0815 41.4851 72.9011 41.4851C70.3953 41.4851 68.1799 40.937 66.2533 39.8408C64.3251 38.7462 62.8383 37.2167 61.7913 35.2524C60.7444 33.2897 60.2192 31.0431 60.2192 28.5126C60.2192 25.9821 60.7427 23.7749 61.7913 21.8105V21.8154Z" fill="#FF4616"/>
<path d="M100.681 41.3081L95.6216 31.9147H94.8635V41.3081H87.7808V15.834H98.9447C100.991 15.834 102.726 16.1901 104.147 16.9007C105.568 17.6112 106.64 18.586 107.363 19.8267C108.085 21.0673 108.446 22.4589 108.446 23.9999C108.446 25.7345 107.97 27.259 107.02 28.5702C106.068 29.8831 104.677 30.8168 102.847 31.3699L108.592 41.3064H100.681V41.3081ZM94.8635 27.0736H98.3687C99.332 27.0736 100.054 26.8455 100.537 26.386C101.017 25.9298 101.259 25.2668 101.259 24.4003C101.259 23.5814 101.011 22.9365 100.518 22.4671C100.025 21.9978 99.3074 21.7631 98.3687 21.7631H94.8635V27.0752V27.0736Z" fill="#FF4616"/>
<path d="M116.253 39.881C114.254 38.7618 112.671 37.2077 111.502 35.2204C110.334 33.2331 109.75 30.9881 109.75 28.4822C109.75 25.9764 110.332 23.7298 111.502 21.7424C112.671 19.7551 114.254 18.2076 116.253 17.0999C118.252 15.9922 120.444 15.4375 122.829 15.4375C125.213 15.4375 127.435 15.9922 129.422 17.0999C131.41 18.2092 132.982 19.7551 134.139 21.7424C135.296 23.7298 135.872 25.9764 135.872 28.4822C135.872 30.9881 135.294 33.2331 134.139 35.2204C132.982 37.2077 131.405 38.7618 129.404 39.881C127.404 41.0002 125.213 41.5615 122.829 41.5615C120.444 41.5615 118.252 41.0019 116.253 39.881ZM127.11 33.2151C128.157 32.0351 128.68 30.4564 128.68 28.4822C128.68 26.5081 128.157 24.8621 127.11 23.6953C126.061 22.5269 124.634 21.9426 122.829 21.9426C121.023 21.9426 119.565 22.5269 118.529 23.6953C117.494 24.8637 116.975 26.4588 116.975 28.4822C116.975 30.5057 117.494 32.0647 118.529 33.2331C119.565 34.4015 120.997 34.9857 122.829 34.9857C124.66 34.9857 126.061 34.395 127.11 33.2151Z" fill="#FF4616"/>
<path d="M140.532 39.4476C138.629 38.0379 137.606 36.0211 137.462 33.3954H145.012C145.085 34.2865 145.349 34.938 145.808 35.3466C146.264 35.7569 146.855 35.962 147.579 35.962C148.23 35.962 148.765 35.7995 149.187 35.473C149.609 35.148 149.819 34.6968 149.819 34.1191C149.819 33.3724 149.469 32.7948 148.772 32.3845C148.073 31.9759 146.941 31.5164 145.375 31.0126C143.713 30.4579 142.37 29.9229 141.346 29.4044C140.322 28.8858 139.431 28.1276 138.673 27.1282C137.915 26.1288 137.534 24.8225 137.534 23.2077C137.534 21.5929 137.944 20.1669 138.763 18.9984C139.582 17.83 140.714 16.9455 142.16 16.3432C143.604 15.7409 145.242 15.439 147.073 15.439C150.036 15.439 152.402 16.1315 154.173 17.5165C155.943 18.9032 156.888 20.8463 157.008 23.3521H149.313C149.289 22.5809 149.054 22.0032 148.609 21.6175C148.163 21.2335 147.592 21.0399 146.893 21.0399C146.363 21.0399 145.93 21.1974 145.592 21.5092C145.255 21.8227 145.086 22.269 145.086 22.8467C145.086 23.3275 145.272 23.7443 145.646 24.0922C146.018 24.4418 146.483 24.7421 147.037 24.9948C147.592 25.2492 148.409 25.5676 149.494 25.9532C151.107 26.5079 152.438 27.0544 153.485 27.5976C154.534 28.1391 155.436 28.8989 156.194 29.8737C156.954 30.8485 157.333 32.0842 157.333 33.5775C157.333 35.0709 156.954 36.456 156.194 37.6605C155.435 38.865 154.338 39.8168 152.906 40.5159C151.473 41.215 149.78 41.5629 147.83 41.5629C144.868 41.5629 142.434 40.8589 140.532 39.4492V39.4476Z" fill="#FF4616"/>
<path d="M162.344 39.4476C160.441 38.0379 159.417 36.0211 159.272 33.3954H166.825C166.897 34.2865 167.161 34.938 167.619 35.3466C168.077 35.7569 168.667 35.962 169.389 35.962C170.039 35.962 170.576 35.7995 170.996 35.473C171.418 35.148 171.629 34.6968 171.629 34.1191C171.629 33.3724 171.28 32.7948 170.581 32.3845C169.882 31.9759 168.751 31.5164 167.184 31.0126C165.522 30.4579 164.179 29.9229 163.155 29.4044C162.131 28.8858 161.24 28.1276 160.482 27.1282C159.722 26.1288 159.343 24.8225 159.343 23.2077C159.343 21.5929 159.752 20.1669 160.571 18.9984C161.389 17.83 162.522 16.9455 163.967 16.3432C165.413 15.7409 167.051 15.439 168.881 15.439C171.843 15.439 174.209 16.1315 175.981 17.5165C177.752 18.9032 178.697 20.8463 178.817 23.3521H171.121C171.096 22.5809 170.863 22.0032 170.417 21.6175C169.97 21.2335 169.399 21.0399 168.7 21.0399C168.17 21.0399 167.737 21.1974 167.401 21.5092C167.062 21.8227 166.893 22.269 166.893 22.8467C166.893 23.3275 167.081 23.7443 167.453 24.0922C167.826 24.4401 168.29 24.7421 168.845 24.9948C169.399 25.2492 170.218 25.5676 171.301 25.9532C172.916 26.5079 174.245 27.0544 175.294 27.5976C176.341 28.1391 177.245 28.8989 178.003 29.8737C178.761 30.8485 179.14 32.0842 179.14 33.5775C179.14 35.0709 178.761 36.456 178.003 37.6605C177.243 38.865 176.147 39.8168 174.715 40.5159C173.282 41.215 171.588 41.5629 169.639 41.5629C166.677 41.5629 164.243 40.8589 162.341 39.4492L162.344 39.4476Z" fill="#FF4616"/>
<path d="M185.553 21.9092C186.661 19.9465 188.172 18.4104 190.087 17.3011C192.002 16.1933 194.127 15.6387 196.464 15.6387C199.21 15.6387 201.607 16.3017 203.654 17.626C205.7 18.9503 207.195 20.8293 208.134 23.263H204.195C203.496 21.745 202.49 20.5766 201.179 19.7577C199.866 18.9388 198.294 18.5302 196.464 18.5302C194.634 18.5302 193.128 18.9405 191.731 19.7577C190.335 20.5766 189.239 21.7401 188.443 23.2433C187.649 24.7498 187.25 26.514 187.25 28.5374C187.25 30.5608 187.647 32.2888 188.443 33.7937C189.237 35.3001 190.333 36.462 191.731 37.2793C193.128 38.0981 194.707 38.5084 196.464 38.5084C198.222 38.5084 199.866 38.1047 201.179 37.2973C202.492 36.4899 203.496 35.328 204.195 33.8117H208.134C207.195 36.2208 205.7 38.0817 203.654 39.3929C201.606 40.7058 199.21 41.3622 196.464 41.3622C194.127 41.3622 192.002 40.8141 190.087 39.7179C188.172 38.6217 186.661 37.0987 185.553 35.1475C184.445 33.1963 183.891 30.9924 183.891 28.5374C183.891 26.0824 184.444 23.8702 185.553 21.9075V21.9092Z" fill="#113958"/>
<path d="M231.328 15.9648V41.1485H228.04V29.7317H215.213V41.1485H211.926V15.9648H215.213V27.0206H228.04V15.9648H231.328Z" fill="#113958"/>
<path d="M239.724 18.6368V27.0554H252.398V29.7648H239.724V38.4361H253.483V41.1455H236.438V15.9258H253.483V18.6352H239.724V18.6368Z" fill="#113958"/>
<path d="M258.715 21.9092C259.824 19.9465 261.336 18.4104 263.249 17.3011C265.164 16.1933 267.29 15.6387 269.626 15.6387C272.373 15.6387 274.769 16.3017 276.816 17.626C278.864 18.9503 280.357 20.8293 281.296 23.263H277.357C276.658 21.745 275.654 20.5766 274.341 19.7577C273.028 18.9388 271.456 18.5302 269.625 18.5302C267.793 18.5302 266.288 18.9405 264.892 19.7577C263.494 20.5766 262.398 21.7401 261.603 23.2433C260.809 24.7498 260.41 26.514 260.41 28.5374C260.41 30.5608 260.809 32.2888 261.603 33.7937C262.398 35.3001 263.494 36.462 264.892 37.2793C266.288 38.0981 267.866 38.5084 269.625 38.5084C271.384 38.5084 273.027 38.1047 274.341 37.2973C275.654 36.4899 276.658 35.328 277.357 33.8117H281.296C280.357 36.2208 278.864 38.0817 276.816 39.3929C274.768 40.7058 272.372 41.3622 269.626 41.3622C267.29 41.3622 265.164 40.8141 263.249 39.7179C261.334 38.6217 259.823 37.0987 258.715 35.1475C257.607 33.1963 257.053 30.9924 257.053 28.5374C257.053 26.0824 257.607 23.8702 258.715 21.9075V21.9092Z" fill="#113958"/>
<path d="M298.551 41.1485L288.182 29.6595V41.1485H284.895V15.9648H288.182V27.6344L298.587 15.9648H302.742L291.326 28.5747L302.851 41.1485H298.551Z" fill="#113958"/>
</svg>
