<svg width="324" height="92" viewBox="0 0 324 92" fill="none" xmlns="http://www.w3.org/2000/svg">
<g clip-path="url(#clip0_13158_22776)">
<path d="M123.23 31.1172C119.536 27.5287 114.329 25.5539 108.569 25.5539C102.808 25.5539 97.501 27.5261 93.7793 31.1044C93.1031 31.755 92.473 32.4645 91.9044 33.2124C91.6073 33.6043 91.1513 33.822 90.68 33.822C90.5161 33.822 90.3522 33.7964 90.1908 33.7426C89.5658 33.5326 89.1432 32.946 89.1432 32.2852V27.1496C89.1432 26.5836 88.6847 26.1251 88.1187 26.1251H56.9545C56.1067 26.1251 55.4177 25.4361 55.4177 24.5883V17.0245C55.4177 16.4585 54.9592 16 54.3932 16H45.0493C44.4832 16 44.0248 16.4585 44.0248 17.0245V24.5729C44.0248 25.4207 43.3358 26.1097 42.4879 26.1097H32.7368C32.3347 26.1097 31.9684 26.3454 31.8045 26.7116L22.9089 46.3368C22.5451 47.1385 21.4053 47.1385 21.0416 46.3368L12.1742 26.7116C12.0077 26.3454 11.644 26.1097 11.2393 26.1097H8.77524C8.20918 26.1097 7.75069 26.5682 7.75069 27.1343V32.8359C7.75069 33.4019 7.29221 33.8604 6.72615 33.8604H1.02455C0.458484 33.8604 0 34.3189 0 34.885V40.5866C0 41.1526 0.458484 41.6111 1.02455 41.6111H3.72615C4.29221 41.6111 4.75069 42.0696 4.75069 42.6356V48.3372C4.75069 48.9033 4.29221 49.3618 3.72615 49.3618H1.02455C0.458484 49.3618 0 49.8203 0 50.3863V63.8386C0 64.4047 0.458484 64.8632 1.02455 64.8632H10.2199C10.7859 64.8632 11.2444 64.4047 11.2444 63.8386V50.54C11.2444 49.4258 12.771 49.1133 13.209 50.1353L18.3394 62.0482C18.5007 62.4248 18.8721 62.6681 19.2794 62.6681H24.6941C25.1039 62.6681 25.4728 62.4248 25.6342 62.0482L30.7646 50.1353C31.2051 49.1133 32.7291 49.4284 32.7291 50.54V63.8386C32.7291 64.4047 33.1876 64.8632 33.7537 64.8632H42.1806C42.949 64.8632 43.953 65.9415 43.953 66.6818V74.9729C43.953 75.539 44.4115 75.9974 44.9776 75.9974H54.4009C54.9669 75.9974 55.4254 75.539 55.4254 74.9729V65.8058C55.4254 65.3063 55.0668 64.8914 54.5955 64.8017H53.0587H53.0433C52.9844 64.7915 54.4623 64.7838 54.4009 64.7838H45.5436C44.7752 64.7838 43.9761 63.7823 43.9761 63.0139V28.9272C43.9761 28.0794 44.6651 27.3904 45.5129 27.3904H53.8297C54.6775 27.3904 55.3665 28.0794 55.3665 28.9272V34.406C55.3665 34.972 55.825 35.4305 56.391 35.4305H64.8794C65.7272 35.4305 66.4162 36.1195 66.4162 36.9673V63.8719C66.4162 64.438 66.8747 64.8965 67.4408 64.8965H76.7846C77.3507 64.8965 77.8092 64.438 77.8092 63.8719V36.9673C77.8092 36.1195 78.4982 35.4305 79.346 35.4305H88.0367C88.5464 35.4305 89.0228 35.6841 89.3097 36.1067C89.5966 36.5294 89.6529 37.0672 89.4634 37.5411C88.4824 39.9898 87.9829 42.651 87.9829 45.4531C87.9829 51.1419 90.0423 56.2647 93.7793 59.8813C97.501 63.4826 102.754 65.4677 108.569 65.4677C114.383 65.4677 119.539 63.4903 123.23 59.8967C126.939 56.2852 128.983 51.1676 128.983 45.4813C128.983 39.7951 126.939 34.721 123.23 31.1172ZM108.628 55.3323C103.197 55.3323 99.5475 51.3725 99.5475 45.4813C99.5475 39.5902 103.197 35.7737 108.628 35.7737C114.058 35.7737 117.449 39.6747 117.449 45.4813C117.449 51.2879 113.904 55.3323 108.628 55.3323Z" fill="#181616"/>
</g>
<path d="M146.202 43V31.8H148.394L152.474 38.44L151.034 38.424L155.162 31.8H157.258V43H154.906V39.16C154.906 38.2 154.928 37.336 154.97 36.568C155.024 35.8 155.109 35.0373 155.226 34.28L155.514 35.032L152.234 40.12H151.178L147.962 35.064L148.234 34.28C148.352 34.9947 148.432 35.7307 148.474 36.488C148.528 37.2347 148.554 38.1253 148.554 39.16V43H146.202ZM164.107 43.16C163.243 43.16 162.47 42.9733 161.787 42.6C161.115 42.216 160.582 41.6933 160.187 41.032C159.803 40.3707 159.611 39.6133 159.611 38.76C159.611 37.9067 159.803 37.1547 160.187 36.504C160.582 35.8427 161.115 35.32 161.787 34.936C162.47 34.552 163.243 34.36 164.107 34.36C164.96 34.36 165.723 34.552 166.395 34.936C167.078 35.32 167.611 35.8427 167.995 36.504C168.379 37.1547 168.571 37.9067 168.571 38.76C168.571 39.6133 168.379 40.3707 167.995 41.032C167.611 41.6933 167.078 42.216 166.395 42.6C165.723 42.9733 164.96 43.16 164.107 43.16ZM164.107 41.176C164.523 41.176 164.896 41.0747 165.227 40.872C165.558 40.6587 165.814 40.3707 165.995 40.008C166.187 39.6347 166.283 39.2187 166.283 38.76C166.283 38.2907 166.187 37.8747 165.995 37.512C165.814 37.1387 165.558 36.8507 165.227 36.648C164.896 36.4347 164.523 36.328 164.107 36.328C163.68 36.328 163.302 36.4347 162.971 36.648C162.64 36.8613 162.379 37.1493 162.187 37.512C161.995 37.8747 161.904 38.2907 161.915 38.76C161.904 39.2187 161.995 39.6347 162.187 40.008C162.379 40.3707 162.64 40.6587 162.971 40.872C163.302 41.0747 163.68 41.176 164.107 41.176ZM173.913 43.16C173.177 43.16 172.515 42.9733 171.929 42.6C171.342 42.216 170.878 41.6987 170.537 41.048C170.206 40.3867 170.041 39.624 170.041 38.76C170.041 37.9173 170.206 37.1653 170.537 36.504C170.878 35.8427 171.337 35.32 171.913 34.936C172.499 34.552 173.166 34.36 173.913 34.36C174.307 34.36 174.686 34.424 175.049 34.552C175.422 34.6693 175.753 34.8347 176.041 35.048C176.339 35.2613 176.579 35.5013 176.761 35.768C176.942 36.024 177.043 36.296 177.065 36.584L176.489 36.68V31.16H178.761V43H176.617L176.521 41.048L176.969 41.096C176.947 41.3627 176.851 41.6187 176.681 41.864C176.51 42.1093 176.281 42.3333 175.993 42.536C175.715 42.728 175.395 42.8827 175.033 43C174.681 43.1067 174.307 43.16 173.913 43.16ZM174.425 41.272C174.851 41.272 175.225 41.1653 175.545 40.952C175.865 40.7387 176.115 40.4453 176.297 40.072C176.478 39.6987 176.569 39.2613 176.569 38.76C176.569 38.2693 176.478 37.8373 176.297 37.464C176.115 37.08 175.865 36.7867 175.545 36.584C175.225 36.3707 174.851 36.264 174.425 36.264C173.998 36.264 173.625 36.3707 173.305 36.584C172.995 36.7867 172.75 37.08 172.569 37.464C172.398 37.8373 172.313 38.2693 172.313 38.76C172.313 39.2613 172.398 39.6987 172.569 40.072C172.75 40.4453 172.995 40.7387 173.305 40.952C173.625 41.1653 173.998 41.272 174.425 41.272ZM184.458 43.16C183.839 43.16 183.306 43.0267 182.858 42.76C182.42 42.4827 182.079 42.0933 181.834 41.592C181.599 41.08 181.482 40.4667 181.482 39.752V34.536H183.754V39.384C183.754 39.768 183.818 40.104 183.946 40.392C184.074 40.6693 184.255 40.8827 184.49 41.032C184.724 41.1813 185.012 41.256 185.354 41.256C185.599 41.256 185.828 41.2187 186.042 41.144C186.255 41.0587 186.436 40.9413 186.586 40.792C186.735 40.6427 186.852 40.4667 186.938 40.264C187.023 40.0613 187.066 39.8427 187.066 39.608V34.536H189.338V43H187.178L187.098 41.256L187.514 41.064C187.386 41.4587 187.172 41.816 186.874 42.136C186.575 42.456 186.218 42.7067 185.802 42.888C185.386 43.0693 184.938 43.16 184.458 43.16ZM191.96 43V31.16H194.232V43H191.96ZM199.869 43.16C199.165 43.16 198.53 42.968 197.965 42.584C197.4 42.2 196.952 41.6773 196.621 41.016C196.29 40.3547 196.125 39.5973 196.125 38.744C196.125 37.8907 196.29 37.1387 196.621 36.488C196.962 35.8267 197.421 35.3093 197.997 34.936C198.573 34.552 199.229 34.36 199.965 34.36C200.381 34.36 200.76 34.424 201.101 34.552C201.453 34.6693 201.757 34.8347 202.013 35.048C202.28 35.2613 202.504 35.5067 202.685 35.784C202.866 36.0613 202.994 36.36 203.069 36.68L202.589 36.6V34.536H204.845V43H202.557V40.968L203.069 40.92C202.984 41.2187 202.845 41.5013 202.653 41.768C202.461 42.0347 202.221 42.2747 201.933 42.488C201.656 42.6907 201.341 42.856 200.989 42.984C200.637 43.1013 200.264 43.16 199.869 43.16ZM200.493 41.192C200.92 41.192 201.293 41.0907 201.613 40.888C201.933 40.6853 202.178 40.4027 202.349 40.04C202.53 39.6667 202.621 39.2347 202.621 38.744C202.621 38.264 202.53 37.8427 202.349 37.48C202.178 37.1173 201.933 36.8347 201.613 36.632C201.293 36.4187 200.92 36.312 200.493 36.312C200.077 36.312 199.709 36.4187 199.389 36.632C199.08 36.8347 198.834 37.1173 198.653 37.48C198.472 37.8427 198.381 38.264 198.381 38.744C198.381 39.2347 198.472 39.6667 198.653 40.04C198.834 40.4027 199.08 40.6853 199.389 40.888C199.709 41.0907 200.077 41.192 200.493 41.192ZM207.443 43V34.536H209.635L209.715 37.256L209.331 36.696C209.459 36.2587 209.667 35.864 209.955 35.512C210.243 35.1493 210.579 34.8667 210.963 34.664C211.358 34.4613 211.768 34.36 212.195 34.36C212.376 34.36 212.552 34.376 212.723 34.408C212.894 34.44 213.038 34.4773 213.155 34.52L212.547 37.016C212.419 36.952 212.264 36.8987 212.083 36.856C211.902 36.8027 211.715 36.776 211.523 36.776C211.267 36.776 211.027 36.824 210.803 36.92C210.59 37.0053 210.403 37.1333 210.243 37.304C210.083 37.464 209.955 37.656 209.859 37.88C209.774 38.104 209.731 38.3493 209.731 38.616V43H207.443ZM220.037 43V40.936H221.909V33.864H220.037V31.8H226.181V33.864H224.309V40.936H226.181V43H220.037ZM228.809 43V34.536H230.985L231.049 36.264L230.601 36.456C230.719 36.072 230.927 35.7253 231.225 35.416C231.535 35.096 231.903 34.84 232.329 34.648C232.756 34.456 233.204 34.36 233.673 34.36C234.313 34.36 234.847 34.488 235.273 34.744C235.711 35 236.036 35.3893 236.249 35.912C236.473 36.424 236.585 37.0587 236.585 37.816V43H234.313V37.992C234.313 37.608 234.26 37.288 234.153 37.032C234.047 36.776 233.881 36.5893 233.657 36.472C233.444 36.344 233.177 36.2907 232.857 36.312C232.601 36.312 232.361 36.3547 232.137 36.44C231.924 36.5147 231.737 36.6267 231.577 36.776C231.428 36.9253 231.305 37.096 231.209 37.288C231.124 37.48 231.081 37.688 231.081 37.912V43H229.961C229.716 43 229.497 43 229.305 43C229.113 43 228.948 43 228.809 43ZM239.898 43V32.392H242.17V43H239.898ZM238.314 36.568V34.536H243.898V36.568H238.314ZM249.637 43.16C248.72 43.16 247.92 42.9733 247.237 42.6C246.554 42.2267 246.021 41.7147 245.637 41.064C245.253 40.4133 245.061 39.6667 245.061 38.824C245.061 38.1733 245.168 37.576 245.381 37.032C245.594 36.488 245.893 36.0187 246.277 35.624C246.661 35.2187 247.114 34.9093 247.637 34.696C248.17 34.472 248.746 34.36 249.365 34.36C249.941 34.36 250.474 34.4667 250.965 34.68C251.456 34.8827 251.877 35.176 252.229 35.56C252.592 35.9333 252.869 36.376 253.061 36.888C253.253 37.4 253.338 37.96 253.317 38.568L253.301 39.272H246.501L246.133 37.88H251.429L251.173 38.168V37.816C251.152 37.528 251.056 37.2667 250.885 37.032C250.725 36.7973 250.517 36.616 250.261 36.488C250.005 36.36 249.717 36.296 249.397 36.296C248.928 36.296 248.528 36.3867 248.197 36.568C247.877 36.7493 247.632 37.016 247.461 37.368C247.29 37.72 247.205 38.1467 247.205 38.648C247.205 39.16 247.312 39.6027 247.525 39.976C247.749 40.3493 248.058 40.6427 248.453 40.856C248.858 41.0587 249.333 41.16 249.877 41.16C250.25 41.16 250.592 41.1013 250.901 40.984C251.21 40.8667 251.541 40.664 251.893 40.376L252.981 41.896C252.672 42.1733 252.33 42.408 251.957 42.6C251.584 42.7813 251.2 42.92 250.805 43.016C250.41 43.112 250.021 43.16 249.637 43.16ZM259.094 46.68C258.422 46.68 257.761 46.5787 257.11 46.376C256.459 46.184 255.931 45.9333 255.526 45.624L256.326 43.992C256.539 44.1413 256.785 44.2747 257.062 44.392C257.339 44.5093 257.627 44.6 257.926 44.664C258.235 44.728 258.55 44.76 258.87 44.76C259.425 44.76 259.878 44.6747 260.23 44.504C260.593 44.3333 260.865 44.0773 261.046 43.736C261.227 43.4053 261.318 42.9787 261.318 42.456V40.984L261.702 41.064C261.638 41.416 261.462 41.7413 261.174 42.04C260.886 42.328 260.523 42.5627 260.086 42.744C259.649 42.9147 259.201 43 258.742 43C257.953 43 257.254 42.8187 256.646 42.456C256.038 42.0933 255.558 41.592 255.206 40.952C254.854 40.312 254.678 39.576 254.678 38.744C254.678 37.8907 254.849 37.1387 255.19 36.488C255.542 35.8267 256.017 35.3093 256.614 34.936C257.222 34.552 257.91 34.36 258.678 34.36C258.998 34.36 259.302 34.3973 259.59 34.472C259.889 34.5467 260.161 34.6533 260.406 34.792C260.662 34.92 260.886 35.0693 261.078 35.24C261.281 35.4 261.446 35.576 261.574 35.768C261.702 35.96 261.782 36.152 261.814 36.344L261.35 36.472L261.414 34.536H263.59V42.36C263.59 43.0533 263.489 43.6667 263.286 44.2C263.083 44.7333 262.785 45.1813 262.39 45.544C262.006 45.9173 261.531 46.2 260.966 46.392C260.411 46.584 259.787 46.68 259.094 46.68ZM259.158 41.176C259.606 41.176 259.995 41.0747 260.326 40.872C260.667 40.6693 260.929 40.3867 261.11 40.024C261.291 39.6613 261.382 39.2347 261.382 38.744C261.382 38.264 261.291 37.8427 261.11 37.48C260.929 37.1067 260.667 36.8187 260.326 36.616C259.995 36.4133 259.606 36.312 259.158 36.312C258.721 36.312 258.331 36.4187 257.99 36.632C257.659 36.8347 257.403 37.1173 257.222 37.48C257.041 37.8427 256.95 38.264 256.95 38.744C256.95 39.224 257.041 39.6507 257.222 40.024C257.403 40.3867 257.659 40.6693 257.99 40.872C258.331 41.0747 258.721 41.176 259.158 41.176ZM266.167 43V34.536H268.359L268.439 37.256L268.055 36.696C268.183 36.2587 268.391 35.864 268.679 35.512C268.967 35.1493 269.303 34.8667 269.687 34.664C270.082 34.4613 270.493 34.36 270.919 34.36C271.101 34.36 271.277 34.376 271.447 34.408C271.618 34.44 271.762 34.4773 271.879 34.52L271.271 37.016C271.143 36.952 270.989 36.8987 270.807 36.856C270.626 36.8027 270.439 36.776 270.247 36.776C269.991 36.776 269.751 36.824 269.527 36.92C269.314 37.0053 269.127 37.1333 268.967 37.304C268.807 37.464 268.679 37.656 268.583 37.88C268.498 38.104 268.455 38.3493 268.455 38.616V43H266.167ZM276.312 43.16C275.608 43.16 274.973 42.968 274.408 42.584C273.842 42.2 273.394 41.6773 273.064 41.016C272.733 40.3547 272.568 39.5973 272.568 38.744C272.568 37.8907 272.733 37.1387 273.064 36.488C273.405 35.8267 273.864 35.3093 274.44 34.936C275.016 34.552 275.672 34.36 276.408 34.36C276.824 34.36 277.202 34.424 277.544 34.552C277.896 34.6693 278.2 34.8347 278.456 35.048C278.722 35.2613 278.946 35.5067 279.128 35.784C279.309 36.0613 279.437 36.36 279.512 36.68L279.032 36.6V34.536H281.288V43H279V40.968L279.512 40.92C279.426 41.2187 279.288 41.5013 279.096 41.768C278.904 42.0347 278.664 42.2747 278.376 42.488C278.098 42.6907 277.784 42.856 277.432 42.984C277.08 43.1013 276.706 43.16 276.312 43.16ZM276.936 41.192C277.362 41.192 277.736 41.0907 278.056 40.888C278.376 40.6853 278.621 40.4027 278.792 40.04C278.973 39.6667 279.064 39.2347 279.064 38.744C279.064 38.264 278.973 37.8427 278.792 37.48C278.621 37.1173 278.376 36.8347 278.056 36.632C277.736 36.4187 277.362 36.312 276.936 36.312C276.52 36.312 276.152 36.4187 275.832 36.632C275.522 36.8347 275.277 37.1173 275.096 37.48C274.914 37.8427 274.824 38.264 274.824 38.744C274.824 39.2347 274.914 39.6667 275.096 40.04C275.277 40.4027 275.522 40.6853 275.832 40.888C276.152 41.0907 276.52 41.192 276.936 41.192ZM284.702 43V32.392H286.974V43H284.702ZM283.118 36.568V34.536H288.702V36.568H283.118ZM294.44 43.16C293.523 43.16 292.723 42.9733 292.04 42.6C291.358 42.2267 290.824 41.7147 290.44 41.064C290.056 40.4133 289.864 39.6667 289.864 38.824C289.864 38.1733 289.971 37.576 290.184 37.032C290.398 36.488 290.696 36.0187 291.08 35.624C291.464 35.2187 291.918 34.9093 292.44 34.696C292.974 34.472 293.55 34.36 294.168 34.36C294.744 34.36 295.278 34.4667 295.768 34.68C296.259 34.8827 296.68 35.176 297.032 35.56C297.395 35.9333 297.672 36.376 297.864 36.888C298.056 37.4 298.142 37.96 298.12 38.568L298.104 39.272H291.304L290.936 37.88H296.232L295.976 38.168V37.816C295.955 37.528 295.859 37.2667 295.688 37.032C295.528 36.7973 295.32 36.616 295.064 36.488C294.808 36.36 294.52 36.296 294.2 36.296C293.731 36.296 293.331 36.3867 293 36.568C292.68 36.7493 292.435 37.016 292.264 37.368C292.094 37.72 292.008 38.1467 292.008 38.648C292.008 39.16 292.115 39.6027 292.328 39.976C292.552 40.3493 292.862 40.6427 293.256 40.856C293.662 41.0587 294.136 41.16 294.68 41.16C295.054 41.16 295.395 41.1013 295.704 40.984C296.014 40.8667 296.344 40.664 296.696 40.376L297.784 41.896C297.475 42.1733 297.134 42.408 296.76 42.6C296.387 42.7813 296.003 42.92 295.608 43.016C295.214 43.112 294.824 43.16 294.44 43.16ZM303.431 43.16C302.695 43.16 302.034 42.9733 301.447 42.6C300.861 42.216 300.397 41.6987 300.055 41.048C299.725 40.3867 299.559 39.624 299.559 38.76C299.559 37.9173 299.725 37.1653 300.055 36.504C300.397 35.8427 300.855 35.32 301.431 34.936C302.018 34.552 302.685 34.36 303.431 34.36C303.826 34.36 304.205 34.424 304.567 34.552C304.941 34.6693 305.271 34.8347 305.559 35.048C305.858 35.2613 306.098 35.5013 306.279 35.768C306.461 36.024 306.562 36.296 306.583 36.584L306.007 36.68V31.16H308.279V43H306.135L306.039 41.048L306.487 41.096C306.466 41.3627 306.37 41.6187 306.199 41.864C306.029 42.1093 305.799 42.3333 305.511 42.536C305.234 42.728 304.914 42.8827 304.551 43C304.199 43.1067 303.826 43.16 303.431 43.16ZM303.943 41.272C304.37 41.272 304.743 41.1653 305.063 40.952C305.383 40.7387 305.634 40.4453 305.815 40.072C305.997 39.6987 306.087 39.2613 306.087 38.76C306.087 38.2693 305.997 37.8373 305.815 37.464C305.634 37.08 305.383 36.7867 305.063 36.584C304.743 36.3707 304.37 36.264 303.943 36.264C303.517 36.264 303.143 36.3707 302.823 36.584C302.514 36.7867 302.269 37.08 302.087 37.464C301.917 37.8373 301.831 38.2693 301.831 38.76C301.831 39.2613 301.917 39.6987 302.087 40.072C302.269 40.4453 302.514 40.7387 302.823 40.952C303.143 41.1653 303.517 41.272 303.943 41.272ZM148.538 62V52.96H145.274V50.8H154.298V52.96H150.938V62H148.538ZM158.623 62.16C157.759 62.16 156.985 61.9733 156.303 61.6C155.631 61.216 155.097 60.6933 154.703 60.032C154.319 59.3707 154.127 58.6133 154.127 57.76C154.127 56.9067 154.319 56.1547 154.703 55.504C155.097 54.8427 155.631 54.32 156.303 53.936C156.985 53.552 157.759 53.36 158.623 53.36C159.476 53.36 160.239 53.552 160.911 53.936C161.593 54.32 162.127 54.8427 162.511 55.504C162.895 56.1547 163.087 56.9067 163.087 57.76C163.087 58.6133 162.895 59.3707 162.511 60.032C162.127 60.6933 161.593 61.216 160.911 61.6C160.239 61.9733 159.476 62.16 158.623 62.16ZM158.623 60.176C159.039 60.176 159.412 60.0747 159.743 59.872C160.073 59.6587 160.329 59.3707 160.511 59.008C160.703 58.6347 160.799 58.2187 160.799 57.76C160.799 57.2907 160.703 56.8747 160.511 56.512C160.329 56.1387 160.073 55.8507 159.743 55.648C159.412 55.4347 159.039 55.328 158.623 55.328C158.196 55.328 157.817 55.4347 157.487 55.648C157.156 55.8613 156.895 56.1493 156.703 56.512C156.511 56.8747 156.42 57.2907 156.431 57.76C156.42 58.2187 156.511 58.6347 156.703 59.008C156.895 59.3707 157.156 59.6587 157.487 59.872C157.817 60.0747 158.196 60.176 158.623 60.176ZM169.052 62.16C168.188 62.16 167.415 61.9733 166.732 61.6C166.06 61.216 165.527 60.6933 165.132 60.032C164.748 59.3707 164.556 58.6133 164.556 57.76C164.556 56.9067 164.748 56.1547 165.132 55.504C165.527 54.8427 166.06 54.32 166.732 53.936C167.415 53.552 168.188 53.36 169.052 53.36C169.905 53.36 170.668 53.552 171.34 53.936C172.023 54.32 172.556 54.8427 172.94 55.504C173.324 56.1547 173.516 56.9067 173.516 57.76C173.516 58.6133 173.324 59.3707 172.94 60.032C172.556 60.6933 172.023 61.216 171.34 61.6C170.668 61.9733 169.905 62.16 169.052 62.16ZM169.052 60.176C169.468 60.176 169.841 60.0747 170.172 59.872C170.503 59.6587 170.759 59.3707 170.94 59.008C171.132 58.6347 171.228 58.2187 171.228 57.76C171.228 57.2907 171.132 56.8747 170.94 56.512C170.759 56.1387 170.503 55.8507 170.172 55.648C169.841 55.4347 169.468 55.328 169.052 55.328C168.625 55.328 168.247 55.4347 167.916 55.648C167.585 55.8613 167.324 56.1493 167.132 56.512C166.94 56.8747 166.849 57.2907 166.86 57.76C166.849 58.2187 166.94 58.6347 167.132 59.008C167.324 59.3707 167.585 59.6587 167.916 59.872C168.247 60.0747 168.625 60.176 169.052 60.176ZM175.562 62V50.16H177.834V62H175.562ZM183.307 62.16C182.518 62.16 181.814 62.032 181.195 61.776C180.587 61.5093 180.097 61.1467 179.723 60.688L181.131 59.472C181.462 59.824 181.83 60.08 182.235 60.24C182.641 60.3893 183.046 60.464 183.451 60.464C183.611 60.464 183.755 60.448 183.883 60.416C184.022 60.3733 184.139 60.32 184.235 60.256C184.331 60.1813 184.401 60.096 184.443 60C184.497 59.8933 184.523 59.7813 184.523 59.664C184.523 59.4293 184.427 59.2427 184.235 59.104C184.129 59.0507 183.963 58.9867 183.739 58.912C183.515 58.8267 183.227 58.736 182.875 58.64C182.331 58.5013 181.867 58.3413 181.483 58.16C181.11 57.968 180.811 57.7547 180.587 57.52C180.395 57.296 180.246 57.056 180.139 56.8C180.043 56.5333 179.995 56.24 179.995 55.92C179.995 55.536 180.081 55.1893 180.251 54.88C180.422 54.56 180.657 54.288 180.955 54.064C181.265 53.84 181.617 53.6693 182.011 53.552C182.406 53.424 182.822 53.36 183.259 53.36C183.697 53.36 184.123 53.4133 184.539 53.52C184.955 53.6267 185.339 53.7813 185.691 53.984C186.054 54.176 186.369 54.4053 186.635 54.672L185.419 56.016C185.227 55.8347 185.009 55.6693 184.763 55.52C184.529 55.3707 184.283 55.2533 184.027 55.168C183.771 55.0827 183.542 55.04 183.339 55.04C183.158 55.04 182.993 55.056 182.843 55.088C182.705 55.12 182.587 55.168 182.491 55.232C182.395 55.296 182.321 55.3813 182.267 55.488C182.225 55.584 182.203 55.6907 182.203 55.808C182.203 55.9253 182.23 56.0373 182.283 56.144C182.347 56.2507 182.433 56.3413 182.539 56.416C182.657 56.48 182.827 56.5547 183.051 56.64C183.286 56.7253 183.601 56.8213 183.995 56.928C184.507 57.0667 184.939 57.2213 185.291 57.392C185.654 57.5627 185.942 57.76 186.155 57.984C186.337 58.176 186.47 58.3947 186.555 58.64C186.641 58.8853 186.683 59.1573 186.683 59.456C186.683 59.9787 186.534 60.448 186.235 60.864C185.947 61.2693 185.547 61.5893 185.035 61.824C184.523 62.048 183.947 62.16 183.307 62.16ZM192.639 62.16C191.722 62.16 190.922 61.9733 190.239 61.6C189.556 61.2267 189.023 60.7147 188.639 60.064C188.255 59.4133 188.063 58.6667 188.063 57.824C188.063 57.1733 188.17 56.576 188.383 56.032C188.596 55.488 188.895 55.0187 189.279 54.624C189.663 54.2187 190.116 53.9093 190.639 53.696C191.172 53.472 191.748 53.36 192.367 53.36C192.943 53.36 193.476 53.4667 193.967 53.68C194.458 53.8827 194.879 54.176 195.231 54.56C195.594 54.9333 195.871 55.376 196.063 55.888C196.255 56.4 196.34 56.96 196.319 57.568L196.303 58.272H189.503L189.135 56.88H194.431L194.175 57.168V56.816C194.154 56.528 194.058 56.2667 193.887 56.032C193.727 55.7973 193.519 55.616 193.263 55.488C193.007 55.36 192.719 55.296 192.399 55.296C191.93 55.296 191.53 55.3867 191.199 55.568C190.879 55.7493 190.634 56.016 190.463 56.368C190.292 56.72 190.207 57.1467 190.207 57.648C190.207 58.16 190.314 58.6027 190.527 58.976C190.751 59.3493 191.06 59.6427 191.455 59.856C191.86 60.0587 192.335 60.16 192.879 60.16C193.252 60.16 193.594 60.1013 193.903 59.984C194.212 59.8667 194.543 59.664 194.895 59.376L195.983 60.896C195.674 61.1733 195.332 61.408 194.959 61.6C194.586 61.7813 194.202 61.92 193.807 62.016C193.412 62.112 193.023 62.16 192.639 62.16ZM199.134 62V51.392H201.406V62H199.134ZM197.55 55.568V53.536H203.134V55.568H197.55ZM215.441 62.16C214.62 62.16 213.862 62.016 213.169 61.728C212.476 61.44 211.868 61.04 211.345 60.528C210.833 60.0053 210.438 59.392 210.161 58.688C209.884 57.9733 209.745 57.2 209.745 56.368C209.745 55.5253 209.884 54.7573 210.161 54.064C210.438 53.36 210.833 52.7467 211.345 52.224C211.868 51.7013 212.476 51.296 213.169 51.008C213.862 50.72 214.62 50.576 215.441 50.576C216.273 50.576 217.03 50.72 217.713 51.008C218.406 51.296 219.009 51.7013 219.521 52.224C220.044 52.7467 220.444 53.36 220.721 54.064C220.998 54.768 221.137 55.536 221.137 56.368C221.137 57.2 220.998 57.968 220.721 58.672C220.444 59.376 220.044 59.9893 219.521 60.512C219.009 61.0347 218.406 61.44 217.713 61.728C217.03 62.016 216.273 62.16 215.441 62.16ZM215.441 59.888C215.91 59.888 216.342 59.8027 216.737 59.632C217.142 59.4613 217.489 59.216 217.777 58.896C218.065 58.576 218.289 58.2027 218.449 57.776C218.62 57.3493 218.705 56.88 218.705 56.368C218.705 55.856 218.62 55.3867 218.449 54.96C218.289 54.5333 218.065 54.1653 217.777 53.856C217.489 53.536 217.142 53.2907 216.737 53.12C216.342 52.9387 215.91 52.848 215.441 52.848C214.972 52.848 214.54 52.9387 214.145 53.12C213.75 53.2907 213.404 53.536 213.105 53.856C212.806 54.1653 212.577 54.5333 212.417 54.96C212.268 55.3867 212.193 55.856 212.193 56.368C212.193 56.88 212.268 57.3493 212.417 57.776C212.577 58.2027 212.806 58.576 213.105 58.896C213.404 59.216 213.75 59.4613 214.145 59.632C214.54 59.8027 214.972 59.888 215.441 59.888ZM223.309 62V53.536H225.501L225.581 56.256L225.197 55.696C225.325 55.2587 225.533 54.864 225.821 54.512C226.109 54.1493 226.445 53.8667 226.829 53.664C227.224 53.4613 227.635 53.36 228.061 53.36C228.243 53.36 228.419 53.376 228.589 53.408C228.76 53.44 228.904 53.4773 229.021 53.52L228.413 56.016C228.285 55.952 228.131 55.8987 227.949 55.856C227.768 55.8027 227.581 55.776 227.389 55.776C227.133 55.776 226.893 55.824 226.669 55.92C226.456 56.0053 226.269 56.1333 226.109 56.304C225.949 56.464 225.821 56.656 225.725 56.88C225.64 57.104 225.597 57.3493 225.597 57.616V62H223.309ZM233.966 62.16C233.155 62.16 232.43 61.968 231.79 61.584C231.15 61.2 230.643 60.6773 230.27 60.016C229.907 59.3547 229.726 58.6027 229.726 57.76C229.726 56.928 229.907 56.1813 230.27 55.52C230.643 54.848 231.15 54.32 231.79 53.936C232.43 53.552 233.155 53.36 233.966 53.36C234.723 53.36 235.416 53.4987 236.046 53.776C236.675 54.0533 237.166 54.4373 237.518 54.928L236.27 56.432C236.12 56.2293 235.934 56.048 235.71 55.888C235.486 55.7173 235.24 55.584 234.974 55.488C234.718 55.392 234.451 55.344 234.174 55.344C233.736 55.344 233.347 55.4507 233.006 55.664C232.675 55.8667 232.414 56.1493 232.222 56.512C232.03 56.8747 231.934 57.2907 231.934 57.76C231.934 58.2187 232.03 58.6293 232.222 58.992C232.424 59.344 232.696 59.632 233.038 59.856C233.379 60.0693 233.763 60.176 234.19 60.176C234.467 60.176 234.728 60.1387 234.974 60.064C235.219 59.9787 235.448 59.856 235.662 59.696C235.886 59.536 236.088 59.344 236.27 59.12L237.502 60.624C237.139 61.0827 236.638 61.456 235.998 61.744C235.358 62.0213 234.68 62.16 233.966 62.16ZM239.277 62V50.16H241.517V55.264L241.069 55.456C241.187 55.072 241.395 54.7253 241.693 54.416C242.003 54.096 242.371 53.84 242.797 53.648C243.224 53.456 243.672 53.36 244.141 53.36C244.781 53.36 245.315 53.488 245.741 53.744C246.179 54 246.504 54.3893 246.717 54.912C246.941 55.424 247.053 56.0587 247.053 56.816V62H244.781V56.992C244.781 56.608 244.728 56.288 244.621 56.032C244.515 55.776 244.349 55.5893 244.125 55.472C243.912 55.344 243.645 55.2907 243.325 55.312C243.069 55.312 242.829 55.3547 242.605 55.44C242.392 55.5147 242.205 55.6267 242.045 55.776C241.896 55.9253 241.773 56.096 241.677 56.288C241.592 56.48 241.549 56.688 241.549 56.912V62H240.429C240.184 62 239.965 62 239.773 62C239.581 62 239.416 62 239.277 62ZM253.567 62.16C252.649 62.16 251.849 61.9733 251.167 61.6C250.484 61.2267 249.951 60.7147 249.567 60.064C249.183 59.4133 248.991 58.6667 248.991 57.824C248.991 57.1733 249.097 56.576 249.311 56.032C249.524 55.488 249.823 55.0187 250.207 54.624C250.591 54.2187 251.044 53.9093 251.567 53.696C252.1 53.472 252.676 53.36 253.295 53.36C253.871 53.36 254.404 53.4667 254.895 53.68C255.385 53.8827 255.807 54.176 256.159 54.56C256.521 54.9333 256.799 55.376 256.991 55.888C257.183 56.4 257.268 56.96 257.247 57.568L257.231 58.272H250.431L250.063 56.88H255.359L255.103 57.168V56.816C255.081 56.528 254.985 56.2667 254.815 56.032C254.655 55.7973 254.447 55.616 254.191 55.488C253.935 55.36 253.647 55.296 253.327 55.296C252.857 55.296 252.457 55.3867 252.127 55.568C251.807 55.7493 251.561 56.016 251.391 56.368C251.22 56.72 251.135 57.1467 251.135 57.648C251.135 58.16 251.241 58.6027 251.455 58.976C251.679 59.3493 251.988 59.6427 252.383 59.856C252.788 60.0587 253.263 60.16 253.807 60.16C254.18 60.16 254.521 60.1013 254.831 59.984C255.14 59.8667 255.471 59.664 255.823 59.376L256.911 60.896C256.601 61.1733 256.26 61.408 255.887 61.6C255.513 61.7813 255.129 61.92 254.735 62.016C254.34 62.112 253.951 62.16 253.567 62.16ZM262.094 62.16C261.304 62.16 260.6 62.032 259.982 61.776C259.374 61.5093 258.883 61.1467 258.51 60.688L259.918 59.472C260.248 59.824 260.616 60.08 261.022 60.24C261.427 60.3893 261.832 60.464 262.238 60.464C262.398 60.464 262.542 60.448 262.67 60.416C262.808 60.3733 262.926 60.32 263.022 60.256C263.118 60.1813 263.187 60.096 263.23 60C263.283 59.8933 263.31 59.7813 263.31 59.664C263.31 59.4293 263.214 59.2427 263.022 59.104C262.915 59.0507 262.75 58.9867 262.526 58.912C262.302 58.8267 262.014 58.736 261.662 58.64C261.118 58.5013 260.654 58.3413 260.27 58.16C259.896 57.968 259.598 57.7547 259.374 57.52C259.182 57.296 259.032 57.056 258.926 56.8C258.83 56.5333 258.782 56.24 258.782 55.92C258.782 55.536 258.867 55.1893 259.038 54.88C259.208 54.56 259.443 54.288 259.742 54.064C260.051 53.84 260.403 53.6693 260.798 53.552C261.192 53.424 261.608 53.36 262.046 53.36C262.483 53.36 262.91 53.4133 263.326 53.52C263.742 53.6267 264.126 53.7813 264.478 53.984C264.84 54.176 265.155 54.4053 265.422 54.672L264.206 56.016C264.014 55.8347 263.795 55.6693 263.55 55.52C263.315 55.3707 263.07 55.2533 262.814 55.168C262.558 55.0827 262.328 55.04 262.126 55.04C261.944 55.04 261.779 55.056 261.63 55.088C261.491 55.12 261.374 55.168 261.278 55.232C261.182 55.296 261.107 55.3813 261.054 55.488C261.011 55.584 260.99 55.6907 260.99 55.808C260.99 55.9253 261.016 56.0373 261.07 56.144C261.134 56.2507 261.219 56.3413 261.326 56.416C261.443 56.48 261.614 56.5547 261.838 56.64C262.072 56.7253 262.387 56.8213 262.782 56.928C263.294 57.0667 263.726 57.2213 264.078 57.392C264.44 57.5627 264.728 57.76 264.942 57.984C265.123 58.176 265.256 58.3947 265.342 58.64C265.427 58.8853 265.47 59.1573 265.47 59.456C265.47 59.9787 265.32 60.448 265.022 60.864C264.734 61.2693 264.334 61.5893 263.822 61.824C263.31 62.048 262.734 62.16 262.094 62.16ZM268.225 62V51.392H270.497V62H268.225ZM266.641 55.568V53.536H272.225V55.568H266.641ZM274.026 62V53.536H276.218L276.298 56.256L275.914 55.696C276.042 55.2587 276.25 54.864 276.538 54.512C276.826 54.1493 277.162 53.8667 277.546 53.664C277.941 53.4613 278.351 53.36 278.778 53.36C278.959 53.36 279.135 53.376 279.306 53.408C279.477 53.44 279.621 53.4773 279.738 53.52L279.13 56.016C279.002 55.952 278.847 55.8987 278.666 55.856C278.485 55.8027 278.298 55.776 278.106 55.776C277.85 55.776 277.61 55.824 277.386 55.92C277.173 56.0053 276.986 56.1333 276.826 56.304C276.666 56.464 276.538 56.656 276.442 56.88C276.357 57.104 276.314 57.3493 276.314 57.616V62H274.026ZM284.17 62.16C283.466 62.16 282.832 61.968 282.266 61.584C281.701 61.2 281.253 60.6773 280.922 60.016C280.592 59.3547 280.426 58.5973 280.426 57.744C280.426 56.8907 280.592 56.1387 280.922 55.488C281.264 54.8267 281.722 54.3093 282.298 53.936C282.874 53.552 283.53 53.36 284.266 53.36C284.682 53.36 285.061 53.424 285.402 53.552C285.754 53.6693 286.058 53.8347 286.314 54.048C286.581 54.2613 286.805 54.5067 286.986 54.784C287.168 55.0613 287.296 55.36 287.37 55.68L286.89 55.6V53.536H289.146V62H286.858V59.968L287.37 59.92C287.285 60.2187 287.146 60.5013 286.954 60.768C286.762 61.0347 286.522 61.2747 286.234 61.488C285.957 61.6907 285.642 61.856 285.29 61.984C284.938 62.1013 284.565 62.16 284.17 62.16ZM284.794 60.192C285.221 60.192 285.594 60.0907 285.914 59.888C286.234 59.6853 286.48 59.4027 286.65 59.04C286.832 58.6667 286.922 58.2347 286.922 57.744C286.922 57.264 286.832 56.8427 286.65 56.48C286.48 56.1173 286.234 55.8347 285.914 55.632C285.594 55.4187 285.221 55.312 284.794 55.312C284.378 55.312 284.01 55.4187 283.69 55.632C283.381 55.8347 283.136 56.1173 282.954 56.48C282.773 56.8427 282.682 57.264 282.682 57.744C282.682 58.2347 282.773 58.6667 282.954 59.04C283.136 59.4027 283.381 59.6853 283.69 59.888C284.01 60.0907 284.378 60.192 284.794 60.192ZM292.56 62V51.392H294.832V62H292.56ZM290.976 55.568V53.536H296.56V55.568H290.976ZM298.553 62V53.536H300.825V62H298.553ZM299.673 51.792C299.236 51.792 298.894 51.6853 298.649 51.472C298.404 51.2587 298.281 50.9547 298.281 50.56C298.281 50.1973 298.404 49.904 298.649 49.68C298.905 49.4453 299.246 49.328 299.673 49.328C300.11 49.328 300.452 49.44 300.697 49.664C300.942 49.8773 301.065 50.176 301.065 50.56C301.065 50.9333 300.937 51.232 300.681 51.456C300.436 51.68 300.1 51.792 299.673 51.792ZM307.508 62.16C306.644 62.16 305.87 61.9733 305.188 61.6C304.516 61.216 303.982 60.6933 303.588 60.032C303.204 59.3707 303.012 58.6133 303.012 57.76C303.012 56.9067 303.204 56.1547 303.588 55.504C303.982 54.8427 304.516 54.32 305.188 53.936C305.87 53.552 306.644 53.36 307.508 53.36C308.361 53.36 309.124 53.552 309.796 53.936C310.478 54.32 311.012 54.8427 311.396 55.504C311.78 56.1547 311.972 56.9067 311.972 57.76C311.972 58.6133 311.78 59.3707 311.396 60.032C311.012 60.6933 310.478 61.216 309.796 61.6C309.124 61.9733 308.361 62.16 307.508 62.16ZM307.508 60.176C307.924 60.176 308.297 60.0747 308.628 59.872C308.958 59.6587 309.214 59.3707 309.396 59.008C309.588 58.6347 309.684 58.2187 309.684 57.76C309.684 57.2907 309.588 56.8747 309.396 56.512C309.214 56.1387 308.958 55.8507 308.628 55.648C308.297 55.4347 307.924 55.328 307.508 55.328C307.081 55.328 306.702 55.4347 306.372 55.648C306.041 55.8613 305.78 56.1493 305.588 56.512C305.396 56.8747 305.305 57.2907 305.316 57.76C305.305 58.2187 305.396 58.6347 305.588 59.008C305.78 59.3707 306.041 59.6587 306.372 59.872C306.702 60.0747 307.081 60.176 307.508 60.176ZM314.001 62V53.536H316.177L316.241 55.264L315.793 55.456C315.91 55.072 316.118 54.7253 316.417 54.416C316.726 54.096 317.094 53.84 317.521 53.648C317.948 53.456 318.396 53.36 318.865 53.36C319.505 53.36 320.038 53.488 320.465 53.744C320.902 54 321.228 54.3893 321.441 54.912C321.665 55.424 321.777 56.0587 321.777 56.816V62H319.505V56.992C319.505 56.608 319.452 56.288 319.345 56.032C319.238 55.776 319.073 55.5893 318.849 55.472C318.636 55.344 318.369 55.2907 318.049 55.312C317.793 55.312 317.553 55.3547 317.329 55.44C317.116 55.5147 316.929 55.6267 316.769 55.776C316.62 55.9253 316.497 56.096 316.401 56.288C316.316 56.48 316.273 56.688 316.273 56.912V62H315.153C314.908 62 314.689 62 314.497 62C314.305 62 314.14 62 314.001 62Z" fill="#181616"/>
<defs>
<clipPath id="clip0_13158_22776">
<rect width="128.746" height="60" fill="white" transform="translate(0 16)"/>
</clipPath>
</defs>
</svg>
