<svg width="256" height="256" viewBox="0 0 256 256" fill="none" xmlns="http://www.w3.org/2000/svg">
<rect width="256" height="256" rx="16" fill="#FFD600"/>
<g clip-path="url(#clip0_13166_33736)">
<path d="M236.155 51.395V14.875C236.155 12.665 234.365 10.875 232.155 10.875H195.675C193.465 10.875 191.675 12.665 191.675 14.875V44.345C191.675 47.655 188.985 50.345 185.675 50.345H147.605C146.035 50.345 144.605 51.265 143.965 52.695L109.235 129.315C107.815 132.445 103.365 132.445 101.945 129.315L67.3249 52.695C66.6749 51.265 65.2549 50.345 63.6749 50.345H54.0549C51.8449 50.345 50.0549 52.135 50.0549 54.345V76.605C50.0549 78.815 48.2649 80.605 46.0549 80.605H23.7949C21.5849 80.605 19.7949 82.395 19.7949 84.605V106.865C19.7949 109.075 21.5849 110.865 23.7949 110.865H36.0549C38.2649 110.865 40.0549 112.655 40.0549 114.865V137.125C40.0549 139.335 38.2649 141.125 36.0549 141.125H23.7949C21.5849 141.125 19.7949 142.915 19.7949 145.125V197.645C19.7949 199.855 21.5849 201.645 23.7949 201.645H59.6949C61.9049 201.645 63.6949 199.855 63.6949 197.645V145.725C63.6949 141.375 69.6549 140.155 71.3649 144.145L91.3949 190.655C92.0249 192.125 93.4749 193.075 95.0649 193.075H116.205C117.805 193.075 119.245 192.125 119.875 190.655L139.905 144.145C141.625 140.155 147.575 141.385 147.575 145.725V197.645C147.575 199.855 149.365 201.645 151.575 201.645H184.475C187.475 201.645 191.395 205.855 191.395 208.745V241.115C191.395 243.325 193.185 245.115 195.395 245.115H232.185C234.395 245.115 236.185 243.325 236.185 241.115V205.325C236.185 203.375 234.785 201.755 232.945 201.405H226.945H226.885C226.655 201.365 232.425 201.335 232.185 201.335H197.605C194.605 201.335 191.485 197.425 191.485 194.425V61.345C191.485 58.035 194.175 55.345 197.485 55.345H231.955C235.265 55.345 236.155 54.705 236.155 51.395Z" fill="#181616"/>
</g>
<defs>
<clipPath id="clip0_13166_33736">
<rect width="216.41" height="234.25" fill="white" transform="translate(19.7949 10.875)"/>
</clipPath>
</defs>
</svg>
