<svg width="140" height="110" viewBox="0 0 140 110" fill="none" xmlns="http://www.w3.org/2000/svg">
<path d="M62.9454 65.2135L57.6258 61.3287L48.7521 67.805L59.557 75.6929L62.9454 65.2135ZM70.0267 70.3805L61.1534 76.8596L70.0267 83.3351L78.895 76.8596L70.0267 70.3805ZM51.4876 56.8466H65.6358L33.1048 33.0984L40.6986 48.9751L51.4876 56.8466ZM66.3342 54.7364L69.0405 46.3761L23.5898 13.1979L31.1829 29.0777L66.3342 54.7364ZM41.1424 23.3949L30.0333 0.171875L24.6745 11.3749L41.1424 23.3949ZM82.4222 61.3287L77.1045 65.2135L80.4956 75.6929L91.2966 67.805L82.4222 61.3287ZM74.4149 56.8466H88.5627L99.3517 48.9751L106.942 33.0984L74.4149 56.8466ZM116.461 13.1979L71.0118 46.3761L73.7142 54.7364L108.866 29.0777L116.461 13.1979ZM115.375 11.3749L110.017 0.171875L98.9048 23.3949L115.375 11.3749Z" fill="#00529B"/>
<path d="M65.097 62.8925C65.097 60.1589 67.3045 57.9395 70.0287 57.9395C71.3358 57.941 72.5889 58.4633 73.5131 59.3919C74.4373 60.3204 74.9572 61.5793 74.9587 62.8925C74.9587 65.6294 72.7471 67.8468 70.0287 67.8468C68.7208 67.8468 67.4665 67.3248 66.5416 66.3957C65.6168 65.4666 65.0971 64.2065 65.097 62.8925ZM0 99.4272H3.5671V105.13C3.5671 105.756 3.62373 106.211 3.85027 106.595C4.30334 107.377 5.20906 107.591 5.93125 107.591C6.8655 107.591 7.40332 107.264 7.64391 107.036C8.252 106.467 8.26689 105.557 8.26689 105.073V99.4277H11.834V104.689C11.834 105.87 11.8063 107.107 11.254 107.961C10.1639 109.667 7.53105 109.823 5.94572 109.823C3.72336 109.823 2.46378 109.51 1.71349 109.056C0.156268 108.288 0.000832624 106.695 0.000832624 105.884V99.4268L0 99.4272ZM12.7873 106.851H16.0431V109.467H12.7873V106.851ZM21.4965 102.015C21.4965 102.158 21.5386 102.286 21.6097 102.371C21.8503 102.685 22.8552 102.911 23.4075 103.026L25.4596 103.466C25.8986 103.551 26.3231 103.651 26.7481 103.822C28.0784 104.32 28.5037 105.315 28.5037 106.225C28.5009 106.838 28.3188 107.436 27.98 107.946C27.1445 109.212 25.46 109.766 22.7705 109.766C21.7656 109.766 19.7697 109.681 18.5953 108.629C17.7317 107.861 17.604 106.937 17.5478 106.482L21.0723 106.382C21.1996 107.036 21.8648 107.534 23.2806 107.534C23.649 107.534 24.1723 107.491 24.5262 107.292C24.7667 107.15 25.0218 106.865 25.0218 106.524C25.0218 106.054 24.6398 105.855 24.3567 105.756C23.9177 105.614 21.6672 105.215 21.1711 105.101C20.7836 105.019 20.401 104.914 20.0252 104.788C19.6432 104.646 18.043 104.077 18.043 102.242C18.043 101.488 18.3547 100.792 18.85 100.28C19.9682 99.1141 21.9785 99.0003 23.0822 99.0003C24.2996 99.0003 25.5034 99.1706 26.1255 99.3836C27.994 99.9813 28.235 101.39 28.3342 101.93L24.8238 102.129C24.7386 101.802 24.5687 101.204 23.0681 101.204C22.6006 101.204 21.4965 101.276 21.4965 102.015ZM29.667 106.851H32.9228V109.467H29.667V106.851ZM45.9197 105.614H43.5985L44.7448 102.215L45.9197 105.614ZM38.389 109.467H42.3104L42.8482 107.832H46.6704L47.2082 109.467H51.1014L46.7692 99.4272H42.6928L38.389 109.467ZM56.0096 99.4272V109.467H52.428V99.4272H56.0096ZM62.2509 101.703H65.2239C65.4926 101.703 65.8606 101.731 66.1437 101.988C66.3281 102.158 66.3988 102.4 66.3988 102.628C66.3988 103.523 65.4926 103.538 64.9404 103.538H62.2509V101.703ZM58.6697 109.467H62.2509V105.813H64.162L66.214 109.467H70.1779L67.6724 105.457C68.097 105.343 68.7766 105.201 69.3425 104.518C69.7534 104.021 69.9799 103.323 69.9799 102.612C69.9799 101.602 69.5268 100.622 68.8047 100.066C67.9696 99.4547 66.8936 99.4401 66.0164 99.4264H58.6693L58.6697 109.467ZM75.5197 99.4272H85.3149V101.688H79.1009V103.608H84.8052V105.855H79.1009V109.467H75.5193L75.5197 99.4272ZM93.3358 101.29C95.7843 101.319 96.2663 103.338 96.2663 104.433C96.2663 105.442 95.8843 106.751 94.7797 107.306C94.3411 107.533 93.8314 107.591 93.3358 107.591C91.1705 107.591 90.3346 105.984 90.3346 104.433C90.3346 103.054 91.0853 101.262 93.3358 101.29ZM93.1233 99.0572C91.3536 99.0859 88.9758 99.4131 87.5744 101.405C86.9366 102.314 86.6534 103.424 86.6534 104.547C86.6534 105.699 86.9225 106.666 87.6017 107.576C88.338 108.586 89.7679 109.823 93.2498 109.823C95.0613 109.823 96.6751 109.568 98.0343 108.486C98.5151 108.116 98.9115 107.662 99.2236 107.135C99.7189 106.31 99.9458 105.344 99.9458 104.405C99.9458 102.685 99.1389 100.579 96.845 99.6411C95.6995 99.1706 94.3684 99.0435 93.1233 99.0572ZM105.524 101.703H108.497C108.766 101.703 109.134 101.731 109.417 101.988C109.602 102.158 109.672 102.4 109.672 102.628C109.672 103.523 108.766 103.538 108.214 103.538H105.524V101.703ZM101.942 109.467H105.524V105.813H107.435L109.488 109.467H113.451L110.945 105.457C111.37 105.343 112.05 105.201 112.616 104.518C113.027 104.021 113.253 103.323 113.253 102.612C113.253 101.602 112.8 100.622 112.078 100.066C111.243 99.4547 110.167 99.4401 109.29 99.4264H101.942V109.467ZM118.661 104.448C118.661 105.969 119.552 107.548 121.605 107.548C122.383 107.548 123.104 107.306 123.629 106.88C124.096 106.495 124.238 106.169 124.351 105.869L127.762 106.225C127.648 106.595 127.521 106.964 127.195 107.476C126.02 109.297 123.727 109.809 121.533 109.809C120.556 109.809 119.594 109.723 118.674 109.439C116.621 108.798 114.923 107.22 114.923 104.462C114.923 102.513 115.941 99.0003 121.632 99.0003C126.487 99.0003 127.252 101.219 127.577 102.172L124.265 102.769C124.124 102.484 123.954 102.1 123.43 101.759C122.892 101.417 122.226 101.303 121.717 101.303C120.105 101.303 118.661 102.313 118.661 104.447L118.661 104.448ZM139.859 99.4272V101.688H132.908V103.324H139.335V105.599H132.894V107.192H140V109.467H129.327V99.4272H139.859Z" fill="#00529B"/>
</svg>
