<svg width="71" height="40" viewBox="0 0 71 40" fill="none" xmlns="http://www.w3.org/2000/svg">
<g clip-path="url(#clip0_11045_112558)">
<path d="M65.734 20.119V22.0899H64.6204V29.8595H65.7226V31.8503H59.5821L59.7331 22.0984L55.8739 31.8503H52.6214L48.7252 22.0984L48.8704 31.8503H42.9492V29.8595H44.0571V22.0899H42.9492V20.1133H52.3138L54.2362 27.8202L56.1188 20.1161H65.734V20.119Z" fill="#010202"/>
<path d="M82.0503 20.119L86.2341 29.8709H87.4987V31.8617H81.5547L80.5009 29.0791H75.024L73.9474 31.8503H68.0917L68.0376 29.8652H69.305L73.4946 20.1133L82.0503 20.119ZM79.8914 27.2592L77.7582 21.731L75.6221 27.2592H79.8914Z" fill="#010202"/>
<path d="M27.9993 15.9188L26.6037 16.571C26.5297 16.6024 26.5183 16.5967 26.4926 16.5397C26.4442 16.3773 26.5154 16.2065 26.6607 16.1239L27.2816 15.8362C27.3471 15.8049 27.3926 15.7565 27.3784 15.7251L27.1733 15.4688C27.1733 15.4375 27.0993 15.4375 27.0366 15.4688L25.9429 15.9729C25.886 15.9986 25.849 16.0441 25.8547 16.0698L25.8945 16.3403C25.8945 16.4856 25.8945 16.8843 25.6724 17.0096C25.6069 17.0581 25.5698 17.1122 25.5841 17.1435L25.8062 17.6191C25.8062 17.6675 25.9486 17.659 26.0768 17.6191L28.341 16.5682C28.4692 16.5055 28.5547 16.4229 28.5319 16.3745L28.3154 15.8989C28.2528 15.8476 28.1274 15.859 27.9993 15.9188Z" fill="#010202"/>
<path d="M30.6768 26.5445C30.6768 26.5189 30.7081 26.4705 30.7793 26.4335L31.9897 25.8752C32.0552 25.8411 32.1236 25.8411 32.135 25.8752L32.1976 26.2028C32.1891 26.2512 32.1549 26.2882 32.1094 26.3053L31.0242 26.8094C30.9616 26.8407 30.9046 26.8407 30.8904 26.8094L30.6768 26.5445Z" fill="#010202"/>
<path d="M15.9634 5.41016C15.9634 5.41016 14.9039 6.15351 15.015 6.83421C15.0691 7.14465 15.9492 7.1475 15.9492 7.1475L16.1343 5.52408L15.9634 5.41016Z" fill="#010202"/>
<path d="M20.13 7.77568L19.3867 4.85923C19.3497 4.69119 19.2386 4.54878 19.0848 4.47473L18.0965 3.93359L17.6209 4.04467C17.6209 4.04467 18.0054 4.25828 18.125 4.33233C18.2446 4.40638 18.4041 4.61714 18.1962 4.6741C17.9883 4.73106 17.7519 4.8165 17.7519 4.8165L17.4073 4.16429C17.4073 4.16429 16.6753 4.07885 16.3791 4.07885C16.0829 4.07885 16.0288 4.24688 16.0288 4.24688L15.5845 4.99593L15.8323 4.96461L17.1623 5.75922L16.55 7.79847L17.1168 7.53359C17.2649 7.44815 17.4471 7.44815 17.5952 7.53359L18.313 7.90954L18.9965 7.55923C19.1617 7.46239 19.3668 7.46239 19.5319 7.55923L20.13 7.77568Z" fill="#010202"/>
<path d="M27.0279 2.74888H26.8428L26.2789 2.82863C26.0425 2.88275 25.8004 2.76313 25.6979 2.54382L26.1906 1.86028C26.2333 1.77199 26.2134 1.66661 26.1365 1.60395L25.5811 1.86028C25.3419 1.9856 24.8976 2.1337 24.8976 1.90015C24.9061 1.75205 24.9061 1.60395 24.8976 1.45584C24.8235 1.22515 24.6498 1.23939 24.6498 1.23939H18.1704C18.0137 1.25363 17.8542 1.25363 17.6947 1.23939C17.4583 1.18243 17.2248 1.10553 17.0026 1.00585L15.9204 0.530212C15.8776 0.515971 15.8292 0.515971 15.7865 0.530212C15.4931 0.609958 14.4564 0.866291 14.3596 1.65522C14.3112 2.13085 15.7466 3.57768 16.0172 3.81692H16.2792C16.0485 3.42958 15.8406 3.028 15.6555 2.61502C15.7495 2.50964 15.8548 2.41851 15.9745 2.34446C15.9944 2.33021 16.02 2.33021 16.04 2.34446L16.8517 2.78876C16.94 2.84002 17.0368 2.86851 17.1393 2.8742H24.5102C24.5957 2.8742 24.6071 2.89983 24.6071 2.91977V3.36408C24.6071 3.51503 24.7096 3.56914 24.852 3.61756C25.3874 3.80268 26.464 3.253 27.1476 2.85142L27.0279 2.74888Z" fill="#010202"/>
<path d="M10.0278 37.8967C10.1673 37.9479 10.2784 38.059 10.3325 38.1986C10.4464 38.5973 10.4578 38.6144 10.5889 38.6913L10.6942 38.7568C10.6942 38.7568 10.6942 38.8423 10.7256 38.8679C10.6202 38.9163 10.1132 39.1385 9.8398 39.0017C9.75151 38.9533 9.68885 38.8622 9.67461 38.7625L9.66037 38.6514C9.57493 38.2071 9.53221 37.9821 9.3186 37.8796C9.3186 37.8426 9.31006 37.8055 9.29297 37.7742C9.54645 37.7457 9.79993 37.7885 10.0278 37.8967Z" fill="#010202"/>
<path d="M8.91124 37.9374C9.03656 38.0285 9.11631 38.1652 9.13625 38.319C9.13625 38.7263 9.13624 38.7633 9.25017 38.8545L9.33846 38.9485V39.0624C9.22738 39.0624 8.6834 39.1649 8.4527 38.9599C8.38435 38.9001 8.34732 38.8118 8.35017 38.7206V38.2051C8.37581 38.0428 8.31884 37.8747 8.19922 37.7608V37.627C8.46409 37.6611 8.70903 37.7665 8.91124 37.9374Z" fill="#010202"/>
<path d="M2.53439 23.4829C2.63122 23.4573 2.7366 23.4801 2.8135 23.5456H2.83913C3.28344 23.8703 3.43723 23.9899 3.65369 23.9045L3.73913 23.9586C3.6366 24.0725 3.15527 24.5652 2.79926 24.3345C2.35495 24.0554 2.35496 24.0497 2.12996 24.0953H2.07299L1.979 24.0326C2.05021 23.9757 2.25527 23.5541 2.53439 23.4829Z" fill="#010202"/>
<path d="M7.19095 21.2753C7.09981 21.1415 6.94601 21.0646 6.78367 21.0674C6.41342 21.0674 6.04886 21.15 5.71563 21.3067C5.67006 21.3209 5.6188 21.3209 5.57323 21.3067C4.98367 21.076 4.31437 20.7428 4.24316 20.7228C4.30013 20.5833 4.37702 20.4522 4.46532 20.3326C5.8438 18.7064 7.89728 17.8092 10.0277 17.9032C10.3239 17.889 10.6229 17.9089 10.9134 17.9602C10.8451 18.0741 10.7682 18.1823 10.6827 18.2848C9.47228 19.8314 8.3957 23.1608 8.37006 23.232C7.31626 22.3833 7.56405 21.8507 7.19095 21.2753ZM6.52734 20.2386C6.70677 20.663 7.1938 20.8595 7.61816 20.6829C7.78051 20.6174 7.92006 20.5007 8.0112 20.3497C8.02829 20.3269 8.02829 20.2956 8.0112 20.2757C7.72354 20.4238 7.37038 20.3155 7.22228 20.0279C7.08557 19.7687 7.16532 19.4469 7.40456 19.2788C7.45582 19.2475 7.50994 19.2219 7.56975 19.2076C7.57544 19.1962 7.57544 19.1848 7.56975 19.1734C7.5612 19.1564 7.54411 19.1421 7.52418 19.1393C7.35044 19.1108 7.17386 19.1336 7.01437 19.2019C6.5957 19.3557 6.37924 19.8171 6.52734 20.2386Z" fill="#010202"/>
<path d="M6.1314 36.6777C6.35356 36.8059 6.53299 36.991 6.64976 37.2189C6.70103 37.3129 6.7295 37.4182 6.7352 37.5236C6.73805 37.5692 6.72951 37.6148 6.71242 37.6575C6.64976 37.7856 6.60704 37.9224 6.58425 38.0648C6.5871 38.1103 6.5985 38.1531 6.61843 38.1929L6.664 38.3182L6.62413 38.4236C6.31368 38.3894 6.02887 38.2271 5.8409 37.9793C5.82096 37.9394 5.81242 37.8967 5.80957 37.8512C5.81242 37.7942 5.82666 37.7372 5.85514 37.686L5.90071 37.5891C6.02318 37.3926 6.10577 37.1762 6.13995 36.9455C6.1371 36.8856 6.12286 36.8258 6.09438 36.7717L6.1314 36.6777Z" fill="#010202"/>
<path d="M5.23715 35.9414C5.43937 36.061 5.59601 36.2462 5.68145 36.4655C5.71278 36.5424 5.72987 36.6249 5.72987 36.7104C5.72987 36.7759 5.71848 36.8414 5.69 36.9012C5.58747 37.0493 5.52196 37.2202 5.49633 37.3968C5.49918 37.4509 5.50772 37.505 5.51911 37.5563V37.6417L5.465 37.7386C5.35962 37.6816 4.88968 37.4196 4.80994 37.1262C4.80424 37.0977 4.80424 37.0693 4.80994 37.0408C4.81278 36.9838 4.82987 36.9297 4.85835 36.8813C5.07196 36.5452 5.18304 36.3658 5.18304 36.1977C5.18304 36.1465 5.17449 36.0952 5.1574 36.0468L5.23715 35.9414Z" fill="#010202"/>
<path d="M4.51086 34.9941C4.70453 35.1394 4.83839 35.3502 4.88681 35.5894C4.89251 35.6435 4.89251 35.6948 4.88681 35.7489C4.88966 35.8429 4.86403 35.934 4.81276 36.0109C4.57352 36.3356 4.53934 36.4096 4.53934 36.5521V36.7201L4.46814 36.8084C4.37131 36.7343 3.95263 36.4039 3.91846 36.1049V36.065C3.91846 35.9938 3.94694 35.9226 3.99251 35.8714C4.28586 35.5381 4.43681 35.3843 4.43681 35.1878C4.44251 35.1593 4.44251 35.128 4.43681 35.0995L4.51086 34.9941Z" fill="#010202"/>
<path d="M3.85306 34C4.01825 34.2051 4.12363 34.4557 4.15496 34.7177C4.15781 34.8231 4.12078 34.9256 4.04958 35.0025C3.73059 35.3471 3.69642 35.4013 3.69642 35.5579V35.6832L3.61667 35.7687C3.53122 35.7032 3.17236 35.4013 3.17236 35.1079C3.17521 35.0139 3.21509 34.9228 3.28629 34.8601C3.65084 34.5184 3.82173 34.3759 3.82173 34.1766C3.82743 34.1538 3.82743 34.131 3.82173 34.1111L3.85306 34Z" fill="#010202"/>
<path d="M3.30902 32.9668C3.44004 33.1747 3.52263 33.4111 3.54257 33.6589C3.55111 33.7842 3.50269 33.9038 3.40871 33.9864C3.02421 34.331 3.00997 34.3595 2.99573 34.5703V34.6272L2.93307 34.6984C2.71092 34.5304 2.55428 34.2883 2.48877 34.0149C2.49447 33.9152 2.54288 33.8241 2.62263 33.7614C3.06693 33.4253 3.20649 33.3171 3.20649 33.0836V33.0522L3.30902 32.9668Z" fill="#010202"/>
<path d="M0.777109 28.6477C0.768565 28.4227 0.834071 28.2006 0.959388 28.0126C1.04198 27.9158 1.16445 27.8588 1.29261 27.8588H1.36382C1.80812 27.8588 1.95907 27.8275 2.05875 27.668H2.16413C2.16413 27.8332 2.1328 28.4512 1.66287 28.4825H1.48059C1.15591 28.4825 1.03629 28.4825 0.885336 28.7446H0.779956C0.779956 28.7132 0.777109 28.679 0.777109 28.6477Z" fill="#010202"/>
<path d="M2.09901 28.6777C2.12464 28.7831 2.13603 28.8885 2.13318 28.9967C2.17306 29.2559 2.02211 29.5065 1.77432 29.5948L1.59774 29.6432C1.2873 29.723 1.19046 29.7543 1.07369 30.0192H0.96831C0.931285 29.8825 0.911347 29.7429 0.911347 29.6034C0.908499 29.4781 0.934132 29.3527 0.985398 29.2388C1.04806 29.1277 1.15628 29.048 1.2816 29.0224H1.34426C1.78856 28.9113 1.92527 28.8714 1.99078 28.6948L2.09901 28.6777Z" fill="#010202"/>
<path d="M2.4435 25.5625H2.54603C2.52039 25.6964 2.3552 26.3429 1.87103 26.2631H1.68875C1.37546 26.2062 1.27292 26.1891 1.05362 26.3828L0.948242 26.3571C0.982419 26.0922 1.10204 25.8473 1.29286 25.6622C1.39539 25.5881 1.52356 25.5597 1.64603 25.5881H1.71153C2.16438 25.6679 2.30679 25.6964 2.4435 25.5625Z" fill="#010202"/>
<path d="M2.15574 26.5742H2.26112C2.26112 26.7081 2.16429 27.3688 1.67726 27.3489H1.49498C1.1703 27.3489 1.05068 27.3489 0.879792 27.5483H0.774414C0.774414 27.2806 0.862705 27.0242 1.02789 26.8135C1.11903 26.7223 1.24435 26.6768 1.37251 26.6853H1.43802C1.89087 26.7138 2.05036 26.7252 2.15574 26.5742Z" fill="#010202"/>
<path d="M2.46591 30.8457C2.53142 31.0251 2.56844 31.2131 2.57129 31.4039C2.58268 31.5777 2.50578 31.7457 2.36338 31.8482C1.91908 32.1131 1.91908 32.133 1.84503 32.3353V32.3922L1.73395 32.4463C1.58585 32.2498 1.49471 32.0191 1.46338 31.777V31.6802C1.48901 31.5834 1.55737 31.5008 1.64851 31.458C2.15262 31.2046 2.33205 31.1163 2.36623 30.8827L2.46591 30.8457Z" fill="#010202"/>
<path d="M2.21517 29.7852C2.26359 29.9276 2.29207 30.0785 2.29492 30.2295C2.32055 30.4431 2.20093 30.651 2.00157 30.7336L1.82783 30.8048C1.52593 30.9244 1.43479 30.9586 1.3522 31.2491L1.24967 31.2833C1.17846 31.1152 1.13859 30.9358 1.13574 30.7507C1.13574 30.6652 1.14998 30.5826 1.18131 30.5029C1.23258 30.3861 1.32657 30.295 1.44619 30.2494H1.50884C1.95315 30.0842 2.06707 30.0272 2.11264 29.8421L2.21517 29.7852Z" fill="#010202"/>
<path d="M2.85321 31.9121C2.95859 32.1115 3.02125 32.3336 3.03549 32.5586C3.04688 32.7039 2.98707 32.8434 2.87599 32.9346C2.46872 33.245 2.43169 33.2678 2.43169 33.4843V33.5412L2.3434 33.6067C2.15543 33.4188 2.03296 33.1795 1.99023 32.9203V32.8862C2.00447 32.7865 2.06144 32.701 2.14403 32.6469H2.17536C2.61967 32.345 2.7877 32.2339 2.79055 32.0004L2.85321 31.9121Z" fill="#010202"/>
<path d="M1.79416 24.4653C1.87675 24.4282 1.97074 24.4282 2.05048 24.4653C2.55175 24.696 2.72833 24.77 2.93624 24.6504L3.03023 24.6846C2.95048 24.8184 2.58593 25.3994 2.18434 25.2513C1.68877 25.0662 1.67453 25.0691 1.48086 25.1574H1.42675L1.32422 25.1175C1.39542 25.0548 1.53213 24.5963 1.79416 24.4653Z" fill="#010202"/>
<path d="M7.09453 37.3184C7.33662 37.3924 7.55592 37.532 7.72396 37.7228C7.8151 37.8225 7.87491 37.9506 7.88915 38.0873C7.89485 38.1044 7.89485 38.1215 7.88915 38.1358C7.86637 38.2525 7.85497 38.3722 7.84928 38.4889C7.84643 38.5601 7.87206 38.6285 7.92048 38.6798L7.99168 38.7908V38.9048C7.87776 38.9048 7.32808 38.9047 7.12871 38.6598C7.08599 38.6057 7.06036 38.5345 7.0632 38.4661V38.3722L7.08884 38.2753C7.14295 38.0902 7.17428 37.8994 7.18567 37.7085C7.19421 37.6032 7.15719 37.5006 7.08884 37.4237C7.08599 37.4266 7.08884 37.3184 7.09453 37.3184Z" fill="#010202"/>
<path d="M24.4133 25.755C24.3734 25.755 24.3393 25.7294 24.3677 25.5784C24.3991 25.4275 24.3991 25.4645 24.4817 25.4674C25.1766 25.4702 25.8687 25.5386 26.5522 25.6753L27.1019 25.8006C27.0905 25.1712 27.0108 24.5474 26.8684 23.9351C26.4241 23.8155 25.4443 23.5449 24.9573 23.4509C24.2168 23.3057 22.9266 23.2117 22.9266 23.2117C22.9266 23.2117 22.8469 23.2117 22.8725 23.0379C22.8981 22.8642 22.8981 22.9183 22.9836 22.9126C23.6785 22.9069 24.3734 22.9553 25.0627 23.055C25.507 23.1262 26.2418 23.2772 26.7146 23.374C26.5209 22.756 26.2617 22.1636 25.9399 21.6025C25.4529 21.4601 24.7437 21.2664 24.3563 21.1867C23.6785 21.067 22.9921 20.9816 22.3 20.9303C22.2601 20.9303 22.2203 20.9303 22.2459 20.7566C22.2715 20.5829 22.2772 20.637 22.3598 20.637C23.069 20.6114 23.7782 20.6541 24.4788 20.7623C24.7522 20.8107 25.1652 20.8962 25.5469 20.9759C25.1253 20.3636 24.6269 19.8082 24.0658 19.3183C23.707 19.2215 23.3424 19.1275 23.1032 19.0734C22.3627 18.9224 21.0782 18.7886 21.0782 18.7886C21.0782 18.7886 20.9984 18.7886 21.0241 18.6148C21.0241 18.5294 21.0582 18.4952 21.1351 18.4952C21.7988 18.4667 22.4624 18.5009 23.1203 18.5977C20.6253 16.9658 17.4725 16.7066 14.744 17.9057L14.9519 18.1449L16.826 17.7376C16.8715 17.7348 16.9171 17.7433 16.9541 17.7689C16.9855 17.786 17.0225 17.786 17.051 17.7689C17.4554 17.7291 18.0051 17.6949 18.1674 17.6807C18.2984 17.7291 18.4266 17.786 18.5519 17.8487C18.5519 17.8487 18.5775 17.8943 18.5519 17.9028C18.2073 18.0566 17.8712 18.236 17.5494 18.4354C17.5237 18.5294 17.5494 18.6291 17.6206 18.6974C17.8855 18.8313 18.176 18.968 18.3383 19.042C18.495 19.1674 18.6431 19.3012 18.7826 19.4465C18.8253 19.4721 18.8794 19.4721 18.9193 19.4465L18.9848 19.4123C18.9563 19.3781 18.9336 19.3382 18.9136 19.2984C18.9136 19.2984 18.9136 19.2984 18.9478 19.2671L19.3124 19.099C19.338 19.099 19.3608 19.0648 19.338 19.0022C19.2668 18.837 19.1158 18.5095 19.0931 18.4696L19.2782 18.4212C19.3608 18.4126 19.4405 18.4297 19.5117 18.4696C19.8165 18.6291 21.0184 19.2642 21.0041 19.2671L20.6908 19.4209C20.6025 19.4209 20.5712 19.3952 20.5456 19.4209L19.3181 20.6085C19.1187 20.7908 19.3722 20.9446 19.2212 21.124C19.2013 21.1639 19.1728 21.1981 19.1358 21.2265C19.0788 21.3063 18.8709 21.5 18.7285 21.6708C18.7057 21.6993 18.6886 21.7278 18.6715 21.7591C18.6431 21.8816 18.6687 22.0098 18.7427 22.1123C18.8823 22.3259 19.0076 22.5481 19.1187 22.7759C19.1586 22.9041 19.1671 23.0379 19.1443 23.169C19.1386 23.2345 19.0988 23.2914 19.0389 23.3199C18.9022 23.3028 18.7741 23.2373 18.6801 23.1348L18.4665 22.8101C18.4665 22.8101 18.475 22.6962 18.4323 22.6962C18.3611 22.5993 18.2813 22.5053 18.1987 22.417C18.0791 22.343 17.6405 22.4712 17.4582 22.5196L17.3073 22.4484C17.0538 22.4911 16.806 22.5709 16.5753 22.6876C16.4415 22.7503 16.4472 23.1319 16.4329 23.4424C16.4415 23.7642 16.5013 24.0832 16.6095 24.3851C16.6551 24.3851 17.3272 24.3851 17.3728 24.2883C17.4184 24.1914 17.4753 24.0803 17.5266 24.0661C17.6462 24.049 17.7687 24.049 17.8912 24.0661L17.7858 24.4392C17.7402 24.5902 17.7516 24.6243 17.8826 24.6443H18.1703L18.3041 25.0886C18.3041 25.231 18.8139 25.0886 18.8794 25.0886C18.945 25.0886 19.244 25.0316 19.3238 24.8977C19.4747 24.5958 19.5487 24.5645 19.8592 24.5731C20.3434 24.5645 20.8304 24.6129 21.3032 24.7155C21.5567 24.8095 23.0747 25.6981 23.2171 25.8234C23.576 26.0883 23.5418 26.0797 23.5902 26.2677C23.6557 26.356 23.7383 26.4329 23.8351 26.4927C23.9348 26.4585 24.0431 26.4699 24.1313 26.5269C24.4275 26.7348 24.701 26.974 24.9516 27.236C25.0086 27.293 25.1282 27.4041 25.0627 27.5152L23.8351 29.2867C23.7013 29.4519 23.5162 29.5658 23.3082 29.6114L22.4538 30.8389C22.4139 30.8873 22.2402 30.8788 22.169 30.9101L20.5684 33.2114C20.1867 33.0689 20.1554 32.7186 20.4146 31.6819C20.3548 31.6164 20.3263 31.531 20.3348 31.4427C20.463 30.6196 20.6054 29.8335 20.6681 29.506C20.7079 28.9392 20.5029 28.8765 20.1355 28.6829C19.0987 28.1987 19.1643 28.0705 18.8908 27.3984C18.8766 27.35 18.8766 27.2958 18.8908 27.2474C18.9165 26.9939 19.281 26.205 19.2013 26.0142C19.1386 25.8775 19.0617 25.7465 18.9763 25.624C18.9193 25.5585 18.831 25.53 18.7456 25.55C18.569 25.5955 18.3896 25.624 18.2101 25.6439C18.0051 25.6439 18.0022 25.5471 17.9766 25.3962C17.951 25.2452 17.9766 25.2196 17.8399 25.1484C17.6149 25.0629 17.3956 24.9889 17.1478 24.9262C17.0282 24.8607 16.8801 24.875 16.7747 24.9604C16.5041 24.8579 15.9203 24.65 15.5016 24.4905C15.2139 24.4193 15.2937 24.012 15.0886 23.767L14.445 22.9838C14.3339 22.8927 14.1744 22.8927 14.0633 22.9838C14.0975 23.0379 14.6187 23.8696 14.6586 23.9636C14.5817 24.0091 14.4991 24.0376 14.4108 24.0519C14.3595 24.0376 14.3139 24.0063 14.2769 23.9664C13.807 23.4481 12.7247 22.531 12.5737 22.3715C12.4228 22.212 12.4855 22.1066 12.3288 21.3746C12.2092 20.8022 12.4342 20.6085 12.6649 20.2525C12.6905 20.1955 12.7105 20.1784 12.6962 20.1272C12.6877 20.0645 12.6877 20.0019 12.6962 19.942L12.6108 19.2243C12.0896 19.6658 11.6225 20.1642 11.2152 20.7082H11.9557C12.0355 20.7082 12.0497 20.7395 12.0668 20.8221C12.0924 20.9759 12.0668 20.9902 12.0127 20.9958L10.8421 21.2408C10.4918 21.799 10.2041 22.3914 9.98768 23.0123L10.2981 22.9553C10.9845 22.85 11.6823 22.8186 12.3772 22.8614C12.4655 22.8614 12.4741 22.8927 12.4883 22.981C12.5025 23.0693 12.4883 23.149 12.4342 23.1547C12.3801 23.1604 11.1497 23.2658 10.4092 23.4196C10.2497 23.4509 10.0418 23.505 9.81394 23.562C9.64021 24.18 9.53482 24.818 9.50349 25.4588C9.9478 25.3791 10.8592 25.2053 11.3548 25.1341C12.044 25.0487 12.7418 25.0316 13.4339 25.08C13.5222 25.08 13.5279 25.1142 13.5393 25.2053C13.5535 25.2936 13.5393 25.3705 13.4823 25.3734C12.8016 25.3762 12.1237 25.4218 11.4487 25.5101C10.9446 25.5984 9.88799 25.8633 9.48926 25.9544C9.48926 26.5838 9.56046 27.2104 9.69717 27.8256C10.1614 27.7373 10.9703 27.5921 11.4203 27.5294C12.1124 27.444 12.8101 27.4269 13.5022 27.4753C13.5962 27.4753 13.5991 27.5095 13.6076 27.6006C13.6162 27.6889 13.6076 27.7658 13.5506 27.7686C12.8728 27.78 12.195 27.8313 11.52 27.9196C11.0756 27.9936 10.244 28.193 9.81394 28.3041C10.0076 29.0019 10.2896 29.6712 10.6513 30.2978C11.0956 30.2123 11.631 30.1212 11.9813 30.0727C12.6706 29.9845 13.3684 29.9617 14.0633 30.0072C14.1658 30.0072 14.1573 30.0414 14.1687 30.1326C14.1829 30.2208 14.1687 30.3006 14.1117 30.3006C13.431 30.3291 12.7503 30.3917 12.0782 30.4914C11.7991 30.5398 11.3519 30.6452 10.9389 30.7477C11.406 31.4569 11.9757 32.0921 12.6222 32.6389L13.0665 32.5534C13.7557 32.4595 14.4506 32.4338 15.1456 32.4822C15.2168 32.4822 15.2396 32.4822 15.251 32.6019C15.2652 32.7215 15.251 32.7699 15.1969 32.7756C15.1427 32.7813 13.9038 32.9038 13.1633 33.0405H13.1291C16.1054 35.1822 20.0984 35.2563 23.1544 33.2256C22.4139 33.0576 21.3829 32.8895 21.3829 32.8895C21.3829 32.8895 21.3089 32.8639 21.3374 32.7158C21.3687 32.5705 21.3715 32.5962 21.457 32.6019C22.1491 32.5962 22.844 32.6645 23.5218 32.8012L23.6956 32.8411C24.3734 32.3171 24.9715 31.6962 25.4671 30.9984C24.7408 30.799 23.4677 30.5541 23.4677 30.5541C23.4677 30.5541 23.3937 30.5284 23.4279 30.3775C23.462 30.2265 23.4763 30.2636 23.5475 30.2664C24.2424 30.2835 24.9345 30.3689 25.6124 30.5142L25.7576 30.5484C26.1421 29.9332 26.4497 29.2696 26.6718 28.5775L25.3418 28.2585C25.3019 28.2585 25.262 28.2585 25.3019 28.0848C25.3247 27.9993 25.3332 27.9794 25.4215 27.9737C25.8886 27.9851 26.3529 28.0278 26.8143 28.099C26.9766 27.4924 27.0706 26.8686 27.0934 26.242C26.8399 26.1623 26.6006 26.0911 26.4241 26.0484C25.695 25.9288 24.4133 25.755 24.4133 25.755Z" fill="#010202"/>
<path d="M2.99861 23.2117C3.20367 23.2117 3.24354 23.2373 3.57107 23.5706C3.68215 23.6674 3.83025 23.713 3.9755 23.6902C4.06095 23.6873 4.14639 23.6674 4.22898 23.6361L4.39418 23.3086C4.23468 23.2601 4.10082 23.1006 3.83595 22.7987H3.8274C3.77614 22.7361 3.69924 22.6991 3.61949 22.6934C3.31759 22.6934 2.9331 23.0579 2.84766 23.1377L2.92171 23.2231L2.99861 23.2117Z" fill="#010202"/>
<path d="M10.5322 37.8105C10.6946 37.9843 10.8341 38.1808 10.9452 38.3916L10.9851 38.4628C11.0306 38.5539 11.1218 38.6166 11.2243 38.628C11.5291 38.6621 11.9278 38.2776 12.0075 38.1836C11.5034 38.0754 11.0136 37.953 10.5322 37.8105Z" fill="#010202"/>
<path d="M37.3556 17.4639C36.8942 16.4015 35.9942 15.5955 34.892 15.248V15.4474C34.892 15.5955 34.8749 15.7465 34.8378 15.8917L34.9176 15.9971C35.0913 16.2221 35.2024 16.487 35.2423 16.7689C35.6723 17.0737 36.0113 17.4924 36.222 17.9737C36.803 19.3037 36.3559 20.7705 35.2166 21.2718C34.2625 21.6392 33.1774 21.3344 32.5565 20.517C32.7644 19.8905 32.4682 19.2098 31.8701 18.9335C31.8302 18.5974 31.853 18.2556 31.9356 17.9281V17.817C31.9299 17.7658 31.9299 17.7174 31.9356 17.6661L31.8217 17.4981C31.5625 17.1563 31.4486 16.7234 31.5084 16.2962C31.517 16.2705 31.5283 16.2477 31.5397 16.225V16.1908C30.859 16.9769 30.5372 18.0107 30.654 19.0446C30.5201 19.1329 30.4033 19.2439 30.3094 19.3721L29.6315 19.6655L28.367 16.9313L26.2451 17.9196L26.8689 19.2496C26.9059 19.2724 26.9401 19.2981 26.9714 19.3294H27.1451C27.5666 19.3693 27.9597 19.5544 28.2587 19.8563L28.3043 19.9189H28.3926C28.7856 19.9446 29.1502 20.1211 29.4151 20.4117C29.4151 20.423 29.4151 20.4344 29.4151 20.4458L29.5347 20.4772C29.8736 20.537 30.184 20.705 30.4204 20.9556H30.6056C30.8733 21.0212 31.1154 21.1636 31.3062 21.3629C31.4116 21.3658 31.5141 21.3515 31.6166 21.3287L31.7505 21.4711L31.8844 21.605C32.0239 21.7332 32.172 21.8528 32.3287 21.9582C32.4682 22.0636 32.6163 22.1575 32.773 22.2373C32.9325 22.3227 33.0977 22.3911 33.2685 22.4452L33.4337 22.4936C33.5477 22.5249 33.6616 22.5506 33.7783 22.5677L33.9435 22.5933C34.0603 22.5905 34.1771 22.5962 34.2939 22.6161C34.7524 22.6218 35.2052 22.5278 35.6239 22.3427C37.4723 21.5936 38.2071 19.3949 37.3556 17.4639Z" fill="#010202"/>
<path d="M32.3258 24.6146C32.3258 24.569 32.1834 24.5804 32.0552 24.6402L31.2663 25.0048C31.2435 24.9706 31.2264 24.9336 31.2094 24.8937C31.1752 24.8139 31.1638 24.6288 31.5739 24.4494L31.7989 24.344L31.3546 23.35C30.9502 23.3443 30.5628 23.1877 30.2695 22.9057L30.0758 22.8658C29.7682 22.8032 29.4863 22.6494 29.2698 22.4215L28.9764 22.3076C28.6518 22.1937 28.3669 21.9801 28.1647 21.701H28.0594C27.7233 21.6839 27.4071 21.5386 27.1736 21.2965H26.9571C26.7065 21.2965 26.4616 21.2196 26.2537 21.0801L26.1426 21.1285C26.547 21.7864 26.866 22.4899 27.0967 23.2247L28.4268 22.6124L29.8451 25.6627H29.7995C29.6714 25.7196 29.5859 25.8079 29.6087 25.8535L29.8252 26.3291C29.8252 26.3776 29.9704 26.369 30.0986 26.3291L32.3628 25.2782C32.491 25.2155 32.5764 25.1329 32.5537 25.0845L32.3258 24.6146Z" fill="#010202"/>
<path d="M26.7205 19.591C26.7831 19.6508 26.8173 19.7306 26.8145 19.816V19.9669C26.8145 20.1122 26.7831 20.2631 26.7803 20.4112C26.7632 20.5508 26.8116 20.6904 26.9141 20.7872L26.8743 20.9211C26.6208 20.8783 26.3872 20.7644 26.1964 20.5935C26.0797 20.5024 26.0056 20.3657 25.9914 20.2176V20.0353C25.9914 19.8188 25.9914 19.7875 25.8888 19.6992L25.8262 19.5938V19.4799C26.1281 19.4116 26.4414 19.4514 26.7205 19.591Z" fill="#010202"/>
<path d="M27.1304 19.7363C27.438 19.7563 27.7285 19.873 27.9649 20.0724C28.0047 20.1208 28.0247 20.1835 28.0218 20.2461C28.0275 20.2689 28.0275 20.2917 28.0218 20.3116C27.9734 20.4996 27.9421 20.6933 27.9278 20.887C27.925 20.998 27.962 21.1034 28.0332 21.1889V21.2999C27.794 21.2658 27.5718 21.149 27.4123 20.9667C27.3183 20.8756 27.2614 20.7531 27.2528 20.6221V20.5737C27.2728 20.4569 27.2813 20.3373 27.2842 20.2205C27.2899 20.1066 27.2528 19.9955 27.1816 19.9072L27.1361 19.8332L27.1304 19.7363Z" fill="#010202"/>
<path d="M28.3723 20.3008C28.6514 20.315 28.9162 20.4318 29.1128 20.6283C29.1469 20.6796 29.1669 20.7394 29.1669 20.802C29.1754 20.8391 29.1754 20.8761 29.1669 20.9131C29.0871 21.1267 29.0359 21.3489 29.0131 21.5739C29.0102 21.6593 29.0387 21.7419 29.0871 21.8074V21.9043C28.9533 21.8473 28.4036 21.591 28.4036 21.2179C28.3979 21.1894 28.3979 21.1609 28.4036 21.1324C28.4463 20.9786 28.4748 20.8191 28.489 20.6568C28.4862 20.5714 28.4548 20.4859 28.4036 20.4176C28.3893 20.4033 28.3808 20.3862 28.3723 20.3691C28.3694 20.3463 28.3694 20.3236 28.3723 20.3008Z" fill="#010202"/>
<path d="M29.4889 20.8359C29.7538 20.8815 29.9959 21.0182 30.1753 21.2204C30.218 21.2859 30.2408 21.3628 30.238 21.4426C30.2465 21.491 30.2465 21.5394 30.238 21.5878V21.6505C30.1753 21.8271 30.1326 22.0122 30.1098 22.2002C30.1098 22.2714 30.1354 22.3426 30.1839 22.3938C30.1839 22.3938 30.1582 22.4736 30.144 22.5049C29.9019 22.4537 29.6854 22.3198 29.5288 22.129C29.4889 22.0635 29.4661 21.9894 29.4661 21.9125C29.4605 21.8698 29.4605 21.8271 29.4661 21.7844L29.5203 21.5992C29.5601 21.4882 29.5858 21.3714 29.5943 21.2546C29.5886 21.1378 29.5402 21.0296 29.4604 20.9442L29.4889 20.8359Z" fill="#010202"/>
<path d="M30.6056 21.3379C30.8448 21.4262 31.0556 21.58 31.2122 21.7822C31.292 21.879 31.3375 21.9987 31.3461 22.124C31.3518 22.1468 31.3518 22.1724 31.3461 22.1952C31.3148 22.3233 31.292 22.4515 31.2806 22.5797C31.2834 22.6395 31.3034 22.6964 31.3375 22.7449L31.403 22.8588L31.3774 22.9699C31.2635 22.9699 30.7081 22.9129 30.5315 22.6594C30.4974 22.611 30.4774 22.5512 30.4774 22.4914C30.4717 22.4515 30.4717 22.4116 30.4774 22.3718L30.5087 22.2835C30.5856 22.0898 30.6312 21.8847 30.6512 21.6768C30.654 21.5914 30.6284 21.5059 30.5771 21.4376C30.5885 21.4034 30.5999 21.3721 30.6056 21.3379Z" fill="#010202"/>
<path d="M32.9297 22.6934C32.9753 22.7817 33.018 22.8927 33.0721 23.018L33.1063 23.1149C33.1404 23.2117 33.2202 23.2858 33.3199 23.3142C33.6161 23.394 34.0775 23.075 34.1658 23.0095C33.7386 22.9725 33.3199 22.8671 32.9297 22.6934Z" fill="#010202"/>
<path d="M32.63 23.0129C32.5246 22.9104 32.516 22.8933 32.4961 22.4889C32.1714 22.3095 31.8752 22.0873 31.6104 21.8281H31.5762V21.942C31.7043 22.0446 31.7357 22.1898 31.7357 22.4262V22.8705C31.7357 22.9645 31.7755 23.0557 31.8467 23.1183C32.0803 23.3177 32.63 23.2208 32.7325 23.1981C32.7382 23.161 32.7382 23.1212 32.7325 23.0841L32.63 23.0129Z" fill="#010202"/>
<path d="M25.6071 20.3722C25.61 20.2782 25.6014 20.1842 25.5815 20.0931L25.5416 19.7286C25.5302 19.626 25.4761 19.5349 25.3907 19.4808C25.197 19.4153 24.9891 19.4153 24.7954 19.4808C25.0859 19.7599 25.3565 20.0561 25.6071 20.3722Z" fill="#010202"/>
<path d="M34.2763 19.1055C34.4102 19.3219 34.4928 19.5669 34.5212 19.8203C34.5212 19.8745 34.5127 19.9286 34.4956 19.9798C34.4586 20.0767 34.376 20.1479 34.2734 20.1707L34.1766 20.1963C33.7323 20.3245 33.5216 20.3871 33.4418 20.6093L33.3364 20.6491C33.3136 20.5637 33.3022 20.4726 33.3022 20.3843C33.3022 20.2191 33.3307 20.0539 33.382 19.8972C33.4247 19.752 33.5244 19.6324 33.6554 19.5612C34.0371 19.4102 34.0541 19.4017 34.0997 19.265L34.1567 19.151L34.2763 19.1055Z" fill="#010202"/>
<path d="M35.6406 18.4531C35.8115 18.6696 35.9226 18.9259 35.9653 19.1965C35.971 19.2278 35.971 19.262 35.9653 19.2933C35.9397 19.393 35.8628 19.4727 35.7659 19.5069L35.6777 19.5468C35.2334 19.7234 35.0425 19.8117 34.9913 20.0424L34.8944 20.0908C34.8375 19.9512 34.809 19.8003 34.8147 19.6465C34.8147 19.5439 34.8261 19.4414 34.8489 19.3417C34.8745 19.1936 34.9599 19.0626 35.0824 18.9772C35.4413 18.7835 35.4584 18.7693 35.5267 18.6269C35.5267 18.6269 35.5666 18.5215 35.5751 18.5072L35.6406 18.4531Z" fill="#010202"/>
<path d="M34.5639 20.4526L34.4756 20.5466C34.3788 20.6605 34.3617 20.6662 33.9487 20.7061C33.8177 20.7289 33.7038 20.8029 33.624 20.9112L33.7436 20.9596C34.0569 21.0878 34.4044 21.1219 34.7376 21.0564V20.9226C34.7348 20.7574 34.7148 20.595 34.675 20.4355L34.5639 20.4526Z" fill="#010202"/>
<path d="M36.0397 19.8164C35.9742 19.8905 35.903 19.9189 35.7065 19.9844L35.5071 20.0585C35.3733 20.1297 35.2736 20.2493 35.228 20.3917C35.1711 20.5626 35.1426 20.7392 35.1426 20.9186C35.584 20.6936 35.9087 20.292 36.0397 19.8164Z" fill="#010202"/>
<path d="M33.2082 16.8047C33.325 16.9727 33.3962 17.1721 33.4161 17.3771C33.4218 17.4085 33.4218 17.4427 33.4161 17.474C33.3934 17.5936 33.3193 17.6961 33.2168 17.7616L33.0573 17.8642C32.7725 18.0408 32.6842 18.0977 32.6671 18.3882L32.5646 18.4452C32.4165 18.2544 32.3253 18.0237 32.2997 17.7844C32.294 17.756 32.294 17.7246 32.2997 17.6961C32.3225 17.5708 32.4022 17.4597 32.5133 17.3942L32.5759 17.3601C32.9747 17.1123 33.1028 17.0325 33.1085 16.8417L33.2082 16.8047Z" fill="#010202"/>
<path d="M32.9807 15.666C33.0206 15.7742 33.0377 15.891 33.0348 16.0078C33.0348 16.1473 33.0177 16.2869 32.9778 16.4208C32.9437 16.566 32.8497 16.6942 32.7215 16.7711C32.3399 16.9391 32.3285 16.9534 32.2772 17.0901L32.2231 17.204L32.1177 17.2524C31.9725 17.0331 31.8785 16.7825 31.8443 16.5204C31.8358 16.4777 31.8358 16.4322 31.8443 16.3866C31.8756 16.2897 31.9525 16.2128 32.0522 16.1872L32.149 16.153C32.5934 16.0078 32.7956 15.9309 32.8639 15.7087L32.9807 15.666Z" fill="#010202"/>
<path d="M34.6609 16.2285C34.7891 16.4079 34.8688 16.6159 34.8916 16.8352C34.8973 16.8608 34.8973 16.8864 34.8916 16.9092C34.8717 17.0288 34.8033 17.1342 34.7065 17.2026L34.547 17.3079C34.2736 17.4988 34.1824 17.5557 34.1739 17.8491L34.077 17.9061C33.9119 17.7181 33.8122 17.4845 33.7837 17.2367V17.1712C33.8036 17.0431 33.8805 16.9291 33.9916 16.8608L34.0486 16.8209C34.4331 16.5646 34.5641 16.4792 34.5641 16.294L34.6609 16.2285Z" fill="#010202"/>
<path d="M35.0027 17.3047C35.0767 17.3844 35.447 17.749 35.447 18.0594V18.0993C35.4356 18.2018 35.3729 18.293 35.2789 18.3385L35.1906 18.3927C34.8061 18.6234 34.6068 18.743 34.584 18.9765L34.4957 19.0392C34.3932 18.8427 34.3391 18.6234 34.3419 18.4012V18.2987C34.3476 18.1477 34.4131 18.0053 34.5242 17.9056C34.8603 17.6607 34.8688 17.6436 34.8973 17.5012L34.9229 17.373L35.0027 17.3047Z" fill="#010202"/>
<path d="M33.5845 17.9023C33.7924 18.1074 33.9319 18.3694 33.9889 18.6571V18.7055C33.9718 18.808 33.9063 18.8935 33.8123 18.9362L33.724 18.9903C33.331 19.2068 33.1259 19.3179 33.0946 19.5542L33.0063 19.6169C32.9152 19.4289 32.8696 19.2239 32.8724 19.0131C32.8667 18.9647 32.8667 18.9163 32.8724 18.8679C32.881 18.7169 32.9522 18.5773 33.0661 18.4834C33.4022 18.2527 33.4164 18.2384 33.4478 18.0932L33.4819 17.965L33.5845 17.9023Z" fill="#010202"/>
<path d="M33.1944 15.1092C33.1915 14.8671 33.2998 14.6392 33.4906 14.4883C33.5903 14.4256 33.6985 14.3829 33.8153 14.3601L33.895 14.3373C34.0032 14.3146 34.1143 14.3345 34.2083 14.3915C34.2738 14.4228 34.3222 14.4769 34.345 14.5453C34.3621 14.5965 34.3735 14.6506 34.3764 14.7048C34.3764 14.793 34.3194 14.8329 34.1314 14.8899C33.6472 15.0437 33.4621 15.1035 33.3767 15.3342L33.2741 15.3684C33.2314 15.2915 33.2001 15.2032 33.1944 15.1092Z" fill="#010202"/>
<path d="M31.7444 15.6436C31.7387 15.4016 31.8469 15.1737 32.0377 15.0228C32.1402 14.963 32.2513 14.9202 32.3652 14.8946H32.445C32.5504 14.8718 32.6614 14.8889 32.7554 14.943C32.8209 14.9743 32.8694 15.0285 32.8921 15.0968C32.9092 15.1509 32.9206 15.205 32.9235 15.262C32.9235 15.3474 32.8665 15.3873 32.6785 15.4443C32.1944 15.5952 32.0092 15.6579 31.9238 15.8886L31.8213 15.9285C31.7757 15.8402 31.7472 15.7433 31.7444 15.6436Z" fill="#010202"/>
<path d="M34.4756 15.0352C34.524 15.1662 34.5468 15.3029 34.5411 15.4424C34.5411 15.5592 34.5269 15.676 34.5013 15.7871C34.4756 15.9352 34.3873 16.0662 34.2563 16.1459C33.8889 16.331 33.8747 16.3396 33.812 16.482C33.812 16.482 33.7721 16.5874 33.7636 16.6016L33.6611 16.6557C33.5016 16.4364 33.3962 16.1829 33.3563 15.9152C33.3506 15.8782 33.3506 15.8412 33.3563 15.8041C33.3877 15.7073 33.4646 15.6333 33.5614 15.5991L33.6582 15.5592C34.074 15.394 34.2933 15.3114 34.3532 15.0836L34.4756 15.0352Z" fill="#010202"/>
<path d="M1.46065 32.6958L1.37521 32.5762C1.15306 32.8325 0.930908 33.0803 0.768566 33.2369C0.603376 33.3907 0.21034 33.6442 0.275846 33.8179C0.349897 34.0002 0.859707 33.8635 1.03059 33.8635H2.05021C1.79103 33.6015 1.63439 33.2569 1.60591 32.8895L1.46065 32.6958Z" fill="#010202"/>
<path d="M4.18618 22.6202C4.32859 22.6658 4.33998 22.6772 4.53935 23.0332C4.68176 22.7598 4.8327 22.4892 4.98365 22.23C4.94378 22.1873 4.88967 22.1589 4.8327 22.1446C4.5365 22.0734 4.0922 22.4095 4.00391 22.4778L4.05802 22.5747L4.18618 22.6202Z" fill="#010202"/>
<path d="M6.45658 26.3765C6.61038 25.2857 6.86956 24.0581 7.06038 23.0869V22.9673V22.8477V22.6939C7.06608 22.6113 7.06608 22.5287 7.06038 22.4461C6.99487 22.1841 6.98064 21.7028 6.76418 21.5604C6.46798 21.4721 6.15184 21.4721 5.85564 21.5604C5.77019 21.5831 5.60785 21.8338 5.60785 21.8338C5.52811 21.9534 5.45405 22.0787 5.37715 22.1983C5.03823 22.7509 4.72779 23.3233 4.45152 23.91C3.60848 25.7556 2.97336 27.6866 2.55469 29.6718C2.59741 29.7885 2.62874 29.911 2.64868 30.0363L2.80247 30.0021H2.96197L3.00184 29.9224C3.22399 29.6319 3.53443 29.4268 3.8876 29.3385H3.99867V29.2816C4.1895 28.9683 4.48285 28.7319 4.82747 28.6066C4.90152 28.5781 4.97557 28.561 5.05247 28.5496C5.19772 28.2449 5.43127 27.9885 5.72177 27.8176L5.84709 27.7521C5.92684 27.4246 6.10342 27.1284 6.35121 26.9005L6.45658 26.3765Z" fill="#010202"/>
<path d="M8.01685 24.1602C8.13647 24.3766 8.20768 24.6159 8.22477 24.8608C8.22761 24.9234 8.21622 24.9861 8.19059 25.0431C8.15071 25.1399 8.06527 25.2083 7.96559 25.2253L7.86021 25.251C7.41591 25.3564 7.20515 25.4162 7.11685 25.6269L7.01147 25.6611C6.99438 25.5928 6.98584 25.5244 6.98584 25.4532C6.98584 25.2681 7.02002 25.0829 7.08837 24.9092C7.13394 24.764 7.23932 24.6472 7.37603 24.5845C7.76052 24.4478 7.78046 24.4393 7.85167 24.3054L7.91432 24.1915L8.01685 24.1602Z" fill="#010202"/>
<path d="M5.92949 28.0794C6.05765 27.9912 6.21999 27.9598 6.37379 27.994C6.76683 28.1279 6.78677 28.1222 6.91778 28.0595L7.0374 28.0111L7.14278 28.0453C7.11715 28.3557 6.97474 28.6462 6.74404 28.857C6.6529 28.9054 6.54468 28.9054 6.45639 28.857L6.37095 28.8171C5.94943 28.6348 5.73582 28.5437 5.5336 28.6576L5.42822 28.6234C5.54215 28.4013 5.71588 28.2133 5.92949 28.0794Z" fill="#010202"/>
<path d="M4.97522 28.8986C5.11762 28.8359 5.27711 28.8359 5.41952 28.8986C5.77268 29.0837 5.79547 29.0922 5.93787 29.0523L6.06604 29.021L6.16287 29.078C6.123 29.1834 5.91509 29.6932 5.62173 29.7929C5.5249 29.8242 5.41952 29.8099 5.33692 29.7473L5.24863 29.6903C4.88123 29.4454 4.69041 29.3229 4.46825 29.4027L4.36572 29.34C4.52522 29.1406 4.73598 28.9868 4.97522 28.8986Z" fill="#010202"/>
<path d="M3.98124 29.6606C4.12649 29.6036 4.28883 29.615 4.42554 29.6948C4.76731 29.9198 4.7844 29.9255 4.92965 29.9027H5.05782C5.0863 29.9255 5.11763 29.9483 5.15181 29.9654C5.09769 30.0707 4.84136 30.5606 4.53947 30.6261C4.44263 30.6489 4.3401 30.6204 4.26605 30.5549L4.17776 30.4837C3.82459 30.2274 3.66225 30.0679 3.43725 30.1192L3.34326 30.0622C3.517 29.8742 3.7363 29.7347 3.98124 29.6606Z" fill="#010202"/>
<path d="M7.55841 26.9022L7.66949 26.8281H7.78057V26.9022C7.80335 27.187 7.72361 27.4689 7.55557 27.6996C7.47867 27.768 7.37329 27.7908 7.27645 27.7623H7.17107C6.72677 27.6683 6.50747 27.6256 6.32804 27.7623H6.22266C6.29386 27.5174 6.43057 27.2952 6.61569 27.1243C6.72392 27.019 6.86917 26.9591 7.02012 26.9591C7.4274 26.9962 7.44449 26.9905 7.55841 26.9022Z" fill="#010202"/>
<path d="M8.1306 25.5449C8.16193 25.6902 8.17902 25.8383 8.17902 25.9892C8.18756 26.1459 8.14769 26.2997 8.06509 26.4335C7.99959 26.5133 7.8999 26.5531 7.80022 26.5446H7.69769C7.25338 26.5446 7.01414 26.5446 6.86889 26.7126H6.75781C6.78629 26.4592 6.88028 26.2199 7.03123 26.0177C7.11098 25.9038 7.23345 25.8269 7.36731 25.8012C7.77458 25.7756 7.81161 25.7699 7.8999 25.6588L7.98819 25.5706L8.1306 25.5449Z" fill="#010202"/>
<path d="M7.31078 23.5804C7.26236 23.8139 7.21395 24.0645 7.16553 24.3152C7.30793 24.187 7.46458 24.0759 7.62976 23.9819L7.71806 23.925C7.8092 23.8766 7.87185 23.7883 7.88325 23.6857V23.6516C7.88325 23.3554 7.53008 22.9965 7.43894 22.9082L7.31078 23.5804Z" fill="#010202"/>
<path d="M3.04717 31.2439C3.11268 31.3208 3.21236 31.3578 3.31205 31.3464C3.61679 31.3009 3.91869 30.8423 3.98135 30.7427L3.89306 30.6714H3.76489C3.61964 30.6714 3.5997 30.6714 3.28641 30.418C3.1554 30.3325 2.99591 30.304 2.84211 30.3439L2.66553 30.3895L2.77945 30.6771C2.83641 30.8195 2.87629 30.9676 2.89907 31.1214C2.91616 31.1414 2.9361 31.1613 2.95603 31.1784L3.04717 31.2439Z" fill="#010202"/>
<path d="M10.8622 32.3691C10.9647 32.4346 11.3976 32.7365 11.4461 33.0242C11.4518 33.0441 11.4518 33.0641 11.4461 33.0812C11.4461 33.1467 11.4233 33.2093 11.3806 33.2577C11.1271 33.5853 10.9989 33.7448 10.9989 33.9271C10.9932 33.9641 10.9932 34.0039 10.9989 34.041L10.9362 34.1264C10.7397 33.9982 10.5945 33.7989 10.5318 33.571C10.5119 33.5084 10.5033 33.4457 10.5005 33.3802C10.5005 33.3005 10.5233 33.2236 10.5631 33.1552C10.754 32.8619 10.7967 32.7707 10.7967 32.654V32.4403L10.8622 32.3691Z" fill="#010202"/>
<path d="M9.42403 30.7285C9.60631 30.8795 9.72878 31.0902 9.76865 31.3238C9.77435 31.3665 9.77435 31.4092 9.76865 31.4519C9.7715 31.5545 9.74017 31.6542 9.68036 31.7367C9.3927 32.0899 9.3927 32.1298 9.38701 32.3348V32.4146L9.3158 32.5C9.22182 32.426 8.82308 32.0842 8.80029 31.7852C8.80029 31.7083 8.83162 31.6371 8.88574 31.5801C9.19618 31.2554 9.33004 31.1358 9.33004 30.9108C9.33574 30.888 9.33574 30.8624 9.33004 30.8396L9.42403 30.7285Z" fill="#010202"/>
<path d="M9.06504 29.7383C9.18751 29.9063 9.25017 30.1114 9.24732 30.3193C9.25302 30.3449 9.25302 30.3734 9.24732 30.399C9.24732 30.5443 9.17897 30.6838 9.06504 30.775C8.70048 31.037 8.6834 31.0769 8.62074 31.2763V31.3617L8.52675 31.4187C8.36156 31.2051 8.25618 30.9516 8.21631 30.6838V30.6098C8.23055 30.5272 8.28181 30.456 8.35302 30.4161C8.79732 30.1598 8.94257 30.0573 8.9739 29.818L9.06504 29.7383Z" fill="#010202"/>
<path d="M9.03906 28.6816C9.0476 28.7386 9.0476 28.7984 9.03906 28.8554C9.04191 29.0491 9.00203 29.2399 8.92798 29.4193C8.87957 29.5589 8.77419 29.6728 8.63463 29.7297C8.25014 29.8494 8.2302 29.8636 8.16469 29.9918L8.09918 30.0971L7.99381 30.1285C7.88843 29.9206 7.82576 29.6927 7.81152 29.4592C7.81152 29.3908 7.82292 29.3225 7.8457 29.2598C7.89127 29.1715 7.97672 29.1089 8.0764 29.0918H8.16469C8.60899 28.9949 8.82545 28.9465 8.92229 28.7329L9.03906 28.6816Z" fill="#010202"/>
<path d="M10.0591 31.5938C10.156 31.6393 10.5633 31.8586 10.6345 32.1349C10.6401 32.1605 10.6401 32.1862 10.6345 32.2089C10.6345 32.2801 10.6117 32.3513 10.5689 32.4083C10.3155 32.7615 10.193 32.9324 10.193 33.0947C10.193 33.1374 10.2015 33.1801 10.2186 33.22L10.1645 33.3055C9.93382 33.1232 9.77718 32.8668 9.72021 32.5792C9.72021 32.508 9.74015 32.4396 9.77718 32.3798C9.97085 32.0694 10.0307 31.9669 10.0307 31.8615C10.0307 31.8131 10.0221 31.7618 10.0079 31.7162V31.6621L10.0591 31.5938Z" fill="#010202"/>
<path d="M9.14187 26.6848L9.0963 26.6592C9.00801 26.6136 8.90263 26.6136 8.81149 26.6592C8.5694 26.8415 8.40991 27.1149 8.36719 27.4168L8.46972 27.4652L8.58934 27.4196C8.72605 27.3712 8.74313 27.3712 9.11624 27.5307C9.15896 27.5478 9.20738 27.5563 9.25295 27.5563C9.20168 27.2687 9.16466 26.9753 9.14187 26.6848Z" fill="#010202"/>
<path d="M9.29546 27.7522C9.12173 27.9032 8.90243 27.8576 8.46667 27.7522H8.37268C8.27584 27.7237 8.17331 27.7465 8.09926 27.8149C7.93407 28.0427 7.85717 28.319 7.87711 28.5981V28.6693H7.98819L8.09072 28.5953C8.20464 28.5098 8.22458 28.507 8.62616 28.5497C8.77426 28.5525 8.91951 28.4927 9.0192 28.3845C9.15306 28.2592 9.25844 28.1082 9.33249 27.9402C9.32395 27.8889 9.30971 27.8206 9.29546 27.7522Z" fill="#010202"/>
<path d="M12.5508 35.547L12.6049 35.5157C12.6989 35.4787 12.7644 35.3932 12.7815 35.2936V35.2309C12.7274 34.9518 12.5935 34.6983 12.397 34.4961L12.303 34.5588L12.2461 34.6613C12.2147 34.798 12.2005 34.8151 11.8644 35.0372L11.8018 35.1027L12.5508 35.547Z" fill="#010202"/>
<path d="M11.3579 34.7943L11.6114 34.9538C11.6114 34.7602 11.7965 34.612 12.0955 34.3472L12.1667 34.2845C12.2265 34.2219 12.255 34.1364 12.2465 34.051V34.0253C12.2237 33.7234 11.8022 33.4045 11.6911 33.3418L11.6114 33.4215V33.5668C11.6114 33.6921 11.5886 33.7206 11.3266 34.0111C11.2525 34.1022 11.2126 34.2162 11.2155 34.3358V34.4241C11.2468 34.5522 11.2952 34.6776 11.3579 34.7943Z" fill="#010202"/>
<path d="M9.37565 28.5506C9.40698 28.6531 9.42122 28.7585 9.41552 28.8639C9.41552 29.0718 9.38134 29.2769 9.31299 29.4705C9.5209 29.7383 9.61773 30.0772 9.58356 30.4133C9.79147 30.5671 9.94527 30.7835 10.0279 31.0285L10.4722 30.8205C10.0022 30.0743 9.64337 29.2598 9.40982 28.4082V28.4538L9.37565 28.5506Z" fill="#010202"/>
<path d="M33.4391 10.8368C33.4419 10.7172 33.3707 10.6118 33.2625 10.5662L33.1115 10.4865C31.4454 9.77728 27.1277 7.50734 25.134 6.45354L23.9948 5.84975C23.9492 5.84975 23.4679 5.65608 23.183 5.84975L22.2603 6.47063C22.2375 6.49342 22.2261 6.52475 22.2289 6.55608C22.2546 6.74975 22.3429 7.35354 22.172 7.48171C21.5226 7.70386 20.8562 7.8719 20.1783 7.98582L19.9562 8.31905L19.4805 8.1026C19.3552 8.03709 19.2043 8.03709 19.0761 8.1026L18.3099 8.50133L17.5609 8.11114C17.4327 8.04563 17.2818 8.04563 17.1536 8.11114L16.7093 8.36462L16.4872 8.03139C15.7979 7.91747 15.1201 7.74943 14.4565 7.52728C14.2827 7.39911 14.371 6.79532 14.3938 6.60165C14.3995 6.57032 14.391 6.53899 14.3682 6.5162L13.4454 5.89532C13.1862 5.7757 12.8957 5.76146 12.6251 5.84975L11.4916 6.42507C9.49223 7.47886 5.1745 9.7488 3.51406 10.458L3.37735 10.5463C3.26628 10.5918 3.19792 10.6972 3.20077 10.8168V10.8823C4.26311 11.7026 4.70742 11.9447 6.16279 11.9675H6.53874C6.87482 11.9675 7.26501 11.9675 7.71786 11.9333C7.79761 11.9191 7.87166 11.8906 7.94001 11.845C8.42419 11.5403 11.6397 9.31874 11.708 9.27317C11.7821 9.21905 11.8704 9.19342 11.9615 9.19911L12.0897 9.26177C12.0897 9.26177 12.2492 9.36716 12.1951 9.43551C12.141 9.50102 9.42957 11.9789 9.42957 11.9789H10.6343C10.9334 11.9903 11.2296 11.902 11.4717 11.7254C11.7679 11.4776 12.9356 10.3327 12.9954 10.2814C13.0581 10.2273 13.1435 10.2045 13.2261 10.2187C13.3172 10.2472 13.4055 10.2871 13.4824 10.344C13.5166 10.3583 13.5337 10.3982 13.5223 10.4323C13.4739 10.5035 12.1296 12.3235 12.1296 12.3235C12.1296 12.3235 12.1751 12.7279 13.2318 12.9358C13.8213 12.9956 14.4137 13.0127 15.0033 12.9842C15.0033 12.9842 15.4476 11.6542 15.5188 11.5488C15.533 11.5004 15.5815 11.4719 15.6299 11.4833C15.7296 11.4918 15.8293 11.5146 15.9232 11.5488C15.9973 11.5744 16.0201 11.6912 16.0429 11.8023L16.4872 13.3858C16.4701 13.6422 16.3818 13.8899 16.2308 14.1007C15.9261 14.5222 14.3739 16.6412 14.3027 16.7124C14.2315 16.7836 14.3653 16.946 14.4137 17.0086L14.6074 17.2422C14.7441 17.4244 14.8324 17.4244 14.9321 17.4187H14.9577C15.3081 17.2792 15.6698 17.1624 16.0343 17.0684L16.9514 15.4564C16.9799 15.4165 17.034 15.3994 17.0796 15.4165C17.1764 15.445 17.2704 15.482 17.3587 15.5276C17.4128 15.5789 17.4299 15.6558 17.4071 15.727C17.4071 15.7754 17.2562 16.382 17.1422 16.8577C17.4897 16.8121 17.8372 16.7865 18.1875 16.7836C18.6318 16.7751 19.0761 16.8007 19.5175 16.8577C19.472 16.6754 19.2612 15.7725 19.2527 15.727C19.2299 15.6558 19.2498 15.5789 19.3011 15.5276C19.3894 15.482 19.4834 15.445 19.5802 15.4165C19.6258 15.4023 19.677 15.4165 19.7055 15.4564L20.6283 17.0684C20.9729 17.1567 21.3147 17.2678 21.6479 17.396L21.7334 17.4273C21.8302 17.4273 21.9185 17.4273 22.058 17.2507L22.2517 17.0172C22.3001 16.9545 22.4368 16.8007 22.3628 16.721C22.2887 16.6412 20.7394 14.5308 20.4346 14.1092C20.2723 13.9013 20.1755 13.6507 20.1555 13.3858L20.5998 11.8023C20.5998 11.6912 20.6397 11.5773 20.7194 11.5488C20.8134 11.5146 20.9131 11.4918 21.0128 11.4833C21.0641 11.469 21.1182 11.4975 21.1324 11.5488C21.178 11.6627 21.6422 12.9842 21.6422 12.9842C22.2346 13.0127 22.827 12.9956 23.4137 12.9358C24.4732 12.7279 24.516 12.3235 24.516 12.3235C24.516 12.3235 23.1859 10.5007 23.1232 10.4323C23.0976 10.4067 23.0976 10.364 23.1232 10.3384C23.2001 10.2814 23.2884 10.2415 23.3796 10.213C23.4622 10.1988 23.5448 10.2216 23.6103 10.2757C23.6729 10.3298 24.8378 11.4719 25.134 11.7197C25.3761 11.8963 25.6723 11.9846 25.9713 11.9732H27.1761C27.1761 11.9732 24.459 9.49247 24.4106 9.42981C24.3622 9.36715 24.5046 9.26462 24.516 9.25608L24.6441 9.19342C24.7353 9.18772 24.8236 9.2162 24.8976 9.26747C24.9631 9.31304 28.1786 11.5317 28.6656 11.8393C28.7311 11.8849 28.808 11.9134 28.8878 11.9276C29.3321 11.9276 29.7308 11.9589 30.0669 11.9618H30.4429C31.8698 11.939 32.3255 11.6969 33.4248 10.8937L33.4391 10.8368Z" fill="#010202"/>
<path d="M18.4838 36.6331C16.5243 36.4651 14.5933 35.5337 13.4141 35.0097C13.3714 34.9869 13.3258 34.967 13.2803 34.9527C13.2831 35.1037 13.3059 35.2518 13.3458 35.397C13.3857 35.5394 13.6306 36.4252 13.7901 36.4651C14.6246 36.673 15.479 36.7755 16.3391 36.767C16.4046 36.972 16.2936 37.1173 15.5559 37.2113C14.7955 37.2654 14.0293 37.2654 13.2689 37.2113C13.2689 37.1059 13.2432 36.3511 13.0069 36.2059L12.5369 35.9268L12.3034 35.7815C12.2635 35.7644 12.2265 35.7445 12.1923 35.7189H12.1667C10.3951 34.6594 8.17648 33.278 8.08818 32.5774C8.06825 32.304 8.16509 32.0363 8.35306 31.8369L8.26477 31.6603C8.01698 31.3584 7.87743 30.9825 7.86603 30.5923V30.5666L7.73787 30.3217C7.53281 29.9657 7.47015 29.5442 7.56129 29.1426L7.35338 29.2309C7.20528 29.2651 7.04863 29.2537 6.90907 29.191C6.78375 29.2537 6.6442 29.2736 6.50464 29.2537C6.38217 29.6353 6.11445 29.9543 5.76129 30.1394C5.6673 30.1736 5.56477 30.185 5.46509 30.1707C5.35401 30.3844 5.05781 30.8799 4.63629 30.9768C4.52806 31.0024 4.41698 31.0024 4.30876 30.9768C4.19483 31.159 3.86445 31.6632 3.39451 31.7201C3.32046 31.7372 3.24641 31.7372 3.17236 31.7201C3.28344 31.948 3.35464 32.1929 3.38028 32.4464L3.58819 32.7597C3.72774 32.979 3.82743 33.2182 3.88154 33.4745L4.11508 33.7622C4.30591 34.0014 4.43692 34.2863 4.49673 34.5853L4.66192 34.6793C4.83566 34.7875 4.97521 34.9413 5.0692 35.1236C6.68407 36.0293 8.38724 36.7698 10.1474 37.3394C10.8366 37.5559 11.5344 37.7325 12.2436 37.872C12.648 37.9518 13.0496 38.0173 13.4569 38.0628C13.4569 38.0628 13.5281 38.0628 13.4967 38.228C13.4654 38.3932 13.2034 39.3416 13.192 39.3901C13.2717 39.3901 15.741 40.0594 18.3328 37.3337C18.5436 37.1344 18.7201 36.9008 18.8569 36.6473L18.4838 36.6331Z" fill="#010202"/>
</g>
<defs>
<clipPath id="clip0_11045_112558">
<rect width="180" height="39.019" fill="white" transform="translate(0 0.490234)"/>
</clipPath>
</defs>
</svg>
