<svg width="40" height="48" viewBox="0 0 40 48" fill="none" xmlns="http://www.w3.org/2000/svg">
<path d="M5 47.5C2.52 47.5 0.5 45.48 0.5 43V5C0.5 2.52 2.52 0.5 5 0.5H28.79L39.5 11.21V43C39.5 45.48 37.48 47.5 35 47.5H5Z" fill="#F6F6F6"/>
<path d="M28.59 1L39 11.41V43C39 45.21 37.21 47 35 47H5C2.79 47 1 45.21 1 43V5C1 2.79 2.79 1 5 1H28.59ZM29 0H5C2.24 0 0 2.24 0 5V43C0 45.76 2.24 48 5 48H35C37.76 48 40 45.76 40 43V11L29 0Z" fill="#E0E0E0"/>
<mask id="mask0_10972_14207" style="mask-type:luminance" maskUnits="userSpaceOnUse" x="0" y="0" width="40" height="18">
<path d="M40 18H0V0H40V18Z" fill="white"/>
</mask>
<g mask="url(#mask0_10972_14207)">
<path d="M5 47.5C2.52 47.5 0.5 45.48 0.5 43V5C0.5 2.52 2.52 0.5 5 0.5H28.79L39.5 11.21V43C39.5 45.48 37.48 47.5 35 47.5H5Z" fill="#3098D8"/>
<path d="M28.59 1L39 11.41V43C39 45.21 37.21 47 35 47H5C2.79 47 1 45.21 1 43V5C1 2.79 2.79 1 5 1H28.59ZM29 0H5C2.24 0 0 2.24 0 5V43C0 45.76 2.24 48 5 48H35C37.76 48 40 45.76 40 43V11L29 0Z" fill="#2C8AC4"/>
<mask id="mask1_10972_14207" style="mask-type:luminance" maskUnits="userSpaceOnUse" x="0" y="0" width="40" height="48">
<path d="M40 43C40 45.76 37.76 48 35 48H5C2.24 48 0 45.76 0 43V5C0 2.24 2.24 0 5 0H29L40 11V43Z" fill="white"/>
</mask>
<g mask="url(#mask1_10972_14207)">
<path d="M30.4395 9.5L40.1095 19.18V9.5H30.4395Z" fill="#2C8AC4"/>
</g>
<mask id="mask2_10972_14207" style="mask-type:luminance" maskUnits="userSpaceOnUse" x="0" y="0" width="40" height="48">
<path d="M40 43C40 45.76 37.76 48 35 48H5C2.24 48 0 45.76 0 43V5C0 2.24 2.24 0 5 0H29L40 11V43Z" fill="white"/>
</mask>
<g mask="url(#mask2_10972_14207)">
<path d="M41 11H34C31.24 11 29 8.76 29 6V-1H41V11Z" fill="#97CBEC"/>
</g>
</g>
<path d="M4 5H6.89099C8.12369 5 9.12159 5.3737 9.87002 6.10727C10.6184 6.84083 11 7.80969 11 9.01384C11 10.218 10.6184 11.1869 9.84067 11.9066C9.06289 12.6263 8.03564 13 6.74423 13H4.01468V5.01384L4 5ZM5.83438 6.50865V11.436H6.55346C7.30189 11.436 7.91824 11.2422 8.40252 10.8547C8.88679 10.4671 9.12159 9.83045 9.12159 8.9308C9.12159 8.40484 9.00419 7.9481 8.76939 7.54671C8.53459 7.14533 8.19706 6.86851 7.75681 6.7301C7.31656 6.59169 6.89099 6.50865 6.49476 6.50865H5.81971H5.83438Z" fill="white"/>
<path d="M12 9.47716C12 8.18274 12.3849 7.10152 13.1684 6.26396C13.9381 5.4264 14.8591 5 15.9313 5C17.1134 5 18.0756 5.4264 18.8454 6.27919C19.6151 7.13198 20 8.19797 20 9.50761C20 10.8173 19.6151 11.868 18.8591 12.7208C18.1031 13.5736 17.1409 14 15.9863 14C14.8316 14 13.8832 13.5736 13.1271 12.736C12.3849 11.8832 12 10.8173 12 9.50761V9.47716ZM16 6.75127C15.3402 6.75127 14.8041 6.99492 14.3918 7.51269C13.9794 8.03046 13.7869 8.71574 13.7869 9.53807C13.7869 10.3147 13.9931 10.9695 14.4055 11.4721C14.8179 11.9898 15.3402 12.2487 15.9725 12.2487C16.6323 12.2487 17.1684 11.9898 17.5808 11.4873C17.9931 10.9848 18.1993 10.3147 18.1993 9.47716C18.1993 8.63959 17.9931 8 17.5945 7.51269C17.1959 7.02538 16.6598 6.7665 16 6.75127Z" fill="white"/>
<path d="M24.7902 5C25.4732 5 26.2098 5.19697 26.9866 5.59091V7.72727C26.1562 7.15151 25.4196 6.87879 24.7902 6.87879C24.1607 6.87879 23.6652 7.12121 23.2902 7.60606C22.9152 8.09091 22.7277 8.75758 22.7277 9.57576C22.7277 10.3636 22.9286 10.9848 23.317 11.4545C23.7188 11.9242 24.2411 12.1515 24.9107 12.1515C25.4866 12.1515 26.183 11.8939 27 11.3636V13.4848C26.0893 13.8333 25.3393 14 24.7366 14C23.692 14 22.808 13.5758 22.0848 12.7121C21.3616 11.8485 21 10.7879 21 9.54545C21 8.30303 21.375 7.21212 22.1116 6.33333C22.8482 5.45454 23.7455 5.01515 24.817 5.01515L24.7902 5Z" fill="white"/>
<path d="M32.5 24H8C7.17 24 6.5 24.67 6.5 25.5C6.5 26.33 7.17 27 8 27H32.5C33.33 27 34 26.33 34 25.5C34 24.67 33.33 24 32.5 24Z" fill="#D8D8D8"/>
<path d="M32.5 30H8C7.17 30 6.5 30.67 6.5 31.5C6.5 32.33 7.17 33 8 33H32.5C33.33 33 34 32.33 34 31.5C34 30.67 33.33 30 32.5 30Z" fill="#D8D8D8"/>
<path d="M22 36H8C7.17 36 6.5 36.67 6.5 37.5C6.5 38.33 7.17 39 8 39H22C22.83 39 23.5 38.33 23.5 37.5C23.5 36.67 22.83 36 22 36Z" fill="#D8D8D8"/>
</svg>
