<svg width="40" height="48" viewBox="0 0 40 48" fill="none" xmlns="http://www.w3.org/2000/svg">
<path d="M5 47.5C2.52 47.5 0.5 45.48 0.5 43V5C0.5 2.52 2.52 0.5 5 0.5H28.79L39.5 11.21V43C39.5 45.48 37.48 47.5 35 47.5H5Z" fill="#F6F6F6"/>
<path d="M28.59 1L39 11.41V43C39 45.21 37.21 47 35 47H5C2.79 47 1 45.21 1 43V5C1 2.79 2.79 1 5 1H28.59ZM29 0H5C2.24 0 0 2.24 0 5V43C0 45.76 2.24 48 5 48H35C37.76 48 40 45.76 40 43V11L29 0Z" fill="#E0E0E0"/>
<path d="M31.75 30H18.25C17.42 30 16.75 30.67 16.75 31.5C16.75 32.33 17.42 33 18.25 33H31.75C32.58 33 33.25 32.33 33.25 31.5C33.25 30.67 32.58 30 31.75 30Z" fill="#D8D8D8"/>
<path d="M31.75 36H18.25C17.42 36 16.75 36.67 16.75 37.5C16.75 38.33 17.42 39 18.25 39H31.75C32.58 39 33.25 38.33 33.25 37.5C33.25 36.67 32.58 36 31.75 36Z" fill="#D8D8D8"/>
<path d="M32.25 24H7.75C6.92 24 6.25 24.67 6.25 25.5C6.25 26.33 6.92 27 7.75 27H32.25C33.08 27 33.75 26.33 33.75 25.5C33.75 24.67 33.08 24 32.25 24Z" fill="#D8D8D8"/>
<mask id="mask0_10972_14178" style="mask-type:luminance" maskUnits="userSpaceOnUse" x="0" y="0" width="40" height="18">
<path d="M40 18H0V0H40V18Z" fill="white"/>
</mask>
<g mask="url(#mask0_10972_14178)">
<path d="M5 47.5C2.52 47.5 0.5 45.48 0.5 43V5C0.5 2.52 2.52 0.5 5 0.5H28.79L39.5 11.21V43C39.5 45.48 37.48 47.5 35 47.5H5Z" fill="#D84953"/>
<path d="M28.59 1L39 11.41V43C39 45.21 37.21 47 35 47H5C2.79 47 1 45.21 1 43V5C1 2.79 2.79 1 5 1H28.59ZM29 0H5C2.24 0 0 2.24 0 5V43C0 45.76 2.24 48 5 48H35C37.76 48 40 45.76 40 43V11L29 0Z" fill="#C4434C"/>
<mask id="mask1_10972_14178" style="mask-type:luminance" maskUnits="userSpaceOnUse" x="0" y="0" width="40" height="48">
<path d="M40 43C40 45.76 37.76 48 35 48H5C2.24 48 0 45.76 0 43V5C0 2.24 2.24 0 5 0H29L40 11V43Z" fill="white"/>
</mask>
<g mask="url(#mask1_10972_14178)">
<path d="M30.4395 9.5L40.1095 19.18V9.5H30.4395Z" fill="#C4434C"/>
</g>
<mask id="mask2_10972_14178" style="mask-type:luminance" maskUnits="userSpaceOnUse" x="0" y="0" width="40" height="48">
<path d="M40 43C40 45.76 37.76 48 35 48H5C2.24 48 0 45.76 0 43V5C0 2.24 2.24 0 5 0H29L40 11V43Z" fill="white"/>
</mask>
<g mask="url(#mask2_10972_14178)">
<path d="M41 11H34C31.24 11 29 8.76 29 6V-1H41V11Z" fill="#ECA4A9"/>
</g>
</g>
<path d="M5.60938 4.62109H8.67619C9.50127 4.62109 10.1707 4.85466 10.6688 5.33736C11.1826 5.82006 11.4317 6.45846 11.4317 7.23701C11.4317 7.75085 11.3071 8.24912 11.058 8.70068C10.8089 9.16781 10.4353 9.51037 9.93716 9.74393C9.43899 9.9775 9.0031 10.0865 8.64505 10.1021L7.52418 10.1332V13.6055H5.60938V4.62109ZM7.50862 6.24047V8.54497H8.25586C8.58278 8.54497 8.86299 8.43597 9.08094 8.20241C9.31445 7.96884 9.42342 7.68857 9.42342 7.37715C9.42342 7.01902 9.29888 6.72317 9.03424 6.53632C8.76959 6.3339 8.41155 6.24047 7.92895 6.24047L7.49306 6.27161L7.50862 6.24047Z" fill="white"/>
<path d="M12.957 4.62109H16.0238C17.3315 4.62109 18.3901 5.04151 19.1841 5.86677C19.978 6.69203 20.3828 7.78199 20.3828 9.13666C20.3828 10.4913 19.978 11.5813 19.1529 12.391C18.3278 13.2007 17.2381 13.6211 15.8682 13.6211H12.9726V4.63666L12.957 4.62109ZM14.903 6.31833V11.8616H15.6658C16.4597 11.8616 17.1136 11.6436 17.6273 11.2076C18.141 10.7716 18.3901 10.0553 18.3901 9.04324C18.3901 8.45154 18.2656 7.9377 18.0165 7.48615C17.7674 7.03459 17.4094 6.72317 16.9423 6.56746C16.4753 6.41175 16.0238 6.31833 15.6035 6.31833H14.8874H14.903Z" fill="white"/>
<path d="M21.9102 4.62109H26.9696V6.36504H23.8405V8.20241H26.9696V9.94635H23.8561V13.6055H21.9257V4.62109H21.9102Z" fill="white"/>
<path d="M12.5 30H7.5C6.67157 30 6 30.6716 6 31.5V37.5C6 38.3284 6.67157 39 7.5 39H12.5C13.3284 39 14 38.3284 14 37.5V31.5C14 30.6716 13.3284 30 12.5 30Z" fill="#E0E0E0"/>
</svg>
