<svg width="40" height="48" viewBox="0 0 40 48" fill="none" xmlns="http://www.w3.org/2000/svg">
<path d="M5 47.5C2.52 47.5 0.5 45.48 0.5 43V5C0.5 2.52 2.52 0.5 5 0.5H28.79L39.5 11.21V43C39.5 45.48 37.48 47.5 35 47.5H5Z" fill="#F6F6F6"/>
<path d="M28.59 1L39 11.41V43C39 45.21 37.21 47 35 47H5C2.79 47 1 45.21 1 43V5C1 2.79 2.79 1 5 1H28.59ZM29 0H5C2.24 0 0 2.24 0 5V43C0 45.76 2.24 48 5 48H35C37.76 48 40 45.76 40 43V11L29 0Z" fill="#E0E0E0"/>
<mask id="mask0_10972_14235" style="mask-type:luminance" maskUnits="userSpaceOnUse" x="0" y="0" width="40" height="18">
<path d="M40 18H0V0H40V18Z" fill="white"/>
</mask>
<g mask="url(#mask0_10972_14235)">
<path d="M5 47.5C2.52 47.5 0.5 45.48 0.5 43V5C0.5 2.52 2.52 0.5 5 0.5H28.79L39.5 11.21V43C39.5 45.48 37.48 47.5 35 47.5H5Z" fill="#68AB46"/>
<path d="M28.59 1L39 11.41V43C39 45.21 37.21 47 35 47H5C2.79 47 1 45.21 1 43V5C1 2.79 2.79 1 5 1H28.59ZM29 0H5C2.24 0 0 2.24 0 5V43C0 45.76 2.24 48 5 48H35C37.76 48 40 45.76 40 43V11L29 0Z" fill="#5C973E"/>
<mask id="mask1_10972_14235" style="mask-type:luminance" maskUnits="userSpaceOnUse" x="0" y="0" width="40" height="48">
<path d="M40 43C40 45.76 37.76 48 35 48H5C2.24 48 0 45.76 0 43V5C0 2.24 2.24 0 5 0H29L40 11V43Z" fill="white"/>
</mask>
<g mask="url(#mask1_10972_14235)">
<path d="M30.4395 9.5L40.1095 19.18V9.5H30.4395Z" fill="#5C973E"/>
</g>
<mask id="mask2_10972_14235" style="mask-type:luminance" maskUnits="userSpaceOnUse" x="0" y="0" width="40" height="48">
<path d="M40 43C40 45.76 37.76 48 35 48H5C2.24 48 0 45.76 0 43V5C0 2.24 2.24 0 5 0H29L40 11V43Z" fill="white"/>
</mask>
<g mask="url(#mask2_10972_14235)">
<path d="M41 11H34C31.24 11 29 8.76 29 6V-1H41V11Z" fill="#B3D5A3"/>
</g>
</g>
<path d="M6 24V39H34V24H6ZM31 27V30H18V27H31ZM16 27V30H9V27H16ZM9 33H16V36H9V33ZM18 36V33H31V36H18Z" fill="#E0E0E0"/>
<path d="M5.44312 4.73828H7.44661L9.20725 7.40944L11.0286 4.73828H12.9865L10.209 8.8968L13.2598 13.4954H11.317L9.2376 10.3841L7.15824 13.4954H5.16992L8.25104 8.91197L5.45831 4.73828H5.44312Z" fill="white"/>
<path d="M14.5035 4.73828H16.3704V11.6135H18.9506V13.4954H14.4883V4.73828H14.5035Z" fill="white"/>
<path d="M22.7769 4.61328C23.7483 4.61328 24.5527 4.91682 25.2205 5.52391L24.0518 6.81396C23.4295 6.44971 22.9894 6.26758 22.7162 6.26758C22.5037 6.26758 22.3215 6.34347 22.1698 6.51041C22.018 6.66218 21.9421 6.85949 21.9421 7.07197C21.9421 7.49692 22.3367 7.87635 23.1108 8.19507C23.6875 8.4379 24.1125 8.66556 24.4161 8.86286C24.7045 9.06016 24.9473 9.33335 25.1598 9.68242C25.3571 10.0315 25.4634 10.4109 25.4634 10.8207C25.4634 11.5796 25.1598 12.2322 24.5527 12.7785C23.9456 13.3401 23.2322 13.6133 22.3974 13.6133C21.4867 13.6133 20.5913 13.1883 19.7109 12.3384L20.9555 10.8966C21.5171 11.4733 22.0332 11.7617 22.5188 11.7617C22.7465 11.7617 22.959 11.6554 23.1715 11.4581C23.384 11.2608 23.4902 11.0484 23.4902 10.8207C23.4902 10.3654 23.0045 9.95561 22.0483 9.60654C21.5019 9.40923 21.1073 9.21193 20.8796 9.04498C20.652 8.86286 20.4547 8.62003 20.3029 8.27095C20.1511 7.93706 20.06 7.58799 20.06 7.23891C20.06 6.46488 20.3181 5.82745 20.8189 5.34178C21.3198 4.85611 21.9876 4.61328 22.8072 4.61328H22.7769Z" fill="white"/>
</svg>
