<svg width="24" height="16" viewBox="0 0 24 16" fill="none" xmlns="http://www.w3.org/2000/svg">
<path fill-rule="evenodd" clip-rule="evenodd" d="M12 0.500488C7 0.500488 2.73 3.61049 1 8.00049C2.73 12.3905 7 15.5005 12 15.5005C17 15.5005 21.27 12.3905 23 8.00049C21.27 3.61049 17 0.500488 12 0.500488ZM12 13.0005C9.24 13.0005 7 10.7605 7 8.00049C7 5.24049 9.24 3.00049 12 3.00049C14.76 3.00049 17 5.24049 17 8.00049C17 10.7605 14.76 13.0005 12 13.0005ZM12 5.00049C10.34 5.00049 9 6.34049 9 8.00049C9 9.66049 10.34 11.0005 12 11.0005C13.66 11.0005 15 9.66049 15 8.00049C15 6.34049 13.66 5.00049 12 5.00049Z" stroke="#1B1B1B"/>
</svg>
