<svg width="1102" height="96" viewBox="0 0 1102 96" fill="none" xmlns="http://www.w3.org/2000/svg">
<g filter="url(#filter0_d_8102_21533)">
<rect x="4" y="32" width="48" height="48" rx="24" fill="#283044"/>
<path fill-rule="evenodd" clip-rule="evenodd" d="M28 56C32.42 56 36 52.42 36 48C36 43.58 32.42 40 28 40C23.58 40 20 43.58 20 48C20 52.42 23.58 56 28 56ZM28 60C22.66 60 12 62.68 12 68V72H44V68C44 62.68 33.34 60 28 60Z" fill="#C5A56B"/>
</g>
<path d="M62.592 68V44.864H72.352C74.1973 44.864 75.7067 45.1573 76.88 45.744C78.0533 46.3307 78.9173 47.1467 79.472 48.192C80.0267 49.2267 80.304 50.4213 80.304 51.776C80.304 52.992 80.112 54.0213 79.728 54.864C79.3547 55.696 78.8587 56.3893 78.24 56.944C77.632 57.4987 76.9653 57.952 76.24 58.304L80.544 68H75.696L71.936 59.088H67.248V68H62.592ZM67.248 55.488H71.52C72.768 55.488 73.7547 55.152 74.48 54.48C75.216 53.808 75.584 52.944 75.584 51.888C75.584 50.8213 75.232 49.9787 74.528 49.36C73.824 48.7413 72.9333 48.432 71.856 48.432H67.248V55.488ZM91.2875 68.32C89.6448 68.32 88.1995 67.9787 86.9515 67.296C85.7142 66.6027 84.7488 65.6267 84.0555 64.368C83.3622 63.1093 83.0155 61.6267 83.0155 59.92C83.0155 58.2667 83.3302 56.7787 83.9595 55.456C84.5995 54.1227 85.5168 53.072 86.7115 52.304C87.9062 51.5253 89.3515 51.136 91.0475 51.136C92.7328 51.136 94.1462 51.4933 95.2875 52.208C96.4288 52.912 97.2928 53.8987 97.8795 55.168C98.4662 56.4267 98.7595 57.8827 98.7595 59.536V60.8H87.6395C87.6395 61.6427 87.7782 62.3787 88.0555 63.008C88.3328 63.6267 88.7328 64.1067 89.2555 64.448C89.7888 64.7787 90.4288 64.944 91.1755 64.944C91.9755 64.944 92.6742 64.7733 93.2715 64.432C93.8688 64.0907 94.2902 63.5307 94.5355 62.752H98.7435C98.5515 63.9253 98.0822 64.928 97.3355 65.76C96.5888 66.592 95.6822 67.2267 94.6155 67.664C93.5488 68.1013 92.4395 68.32 91.2875 68.32ZM87.6395 58.016H94.3915C94.3915 57.3547 94.2635 56.7467 94.0075 56.192C93.7622 55.6373 93.3888 55.2 92.8875 54.88C92.3968 54.56 91.7782 54.4 91.0315 54.4C90.3168 54.4 89.7035 54.576 89.1915 54.928C88.6902 55.2693 88.3008 55.7173 88.0235 56.272C87.7568 56.8267 87.6288 57.408 87.6395 58.016ZM109.325 68.32C107.789 68.32 106.418 67.9787 105.213 67.296C104.008 66.6133 103.058 65.6373 102.365 64.368C101.682 63.088 101.341 61.5627 101.341 59.792C101.341 58.0853 101.672 56.5813 102.333 55.28C102.994 53.9787 103.922 52.9653 105.117 52.24C106.322 51.504 107.725 51.136 109.325 51.136C110.712 51.136 111.906 51.4187 112.909 51.984C113.922 52.5493 114.717 53.312 115.293 54.272C115.88 55.232 116.216 56.304 116.301 57.488H112.413C112.338 57.0507 112.184 56.6187 111.949 56.192C111.714 55.7547 111.384 55.3973 110.957 55.12C110.53 54.832 109.997 54.688 109.357 54.688C108.269 54.688 107.384 55.1093 106.701 55.952C106.029 56.784 105.693 58.0533 105.693 59.76C105.693 61.3707 106.024 62.6507 106.685 63.6C107.346 64.5387 108.269 65.008 109.453 65.008C110.082 65.008 110.605 64.8533 111.021 64.544C111.448 64.2347 111.778 63.8667 112.013 63.44C112.248 63.0027 112.397 62.5973 112.461 62.224H116.253C116.178 63.3653 115.848 64.4 115.261 65.328C114.674 66.2453 113.874 66.976 112.861 67.52C111.858 68.0533 110.68 68.32 109.325 68.32ZM119.531 68V51.456H124.027V55.376C124.294 54.5333 124.667 53.7973 125.147 53.168C125.638 52.528 126.23 52.032 126.923 51.68C127.617 51.3173 128.401 51.136 129.275 51.136C129.425 51.136 129.563 51.1467 129.691 51.168C129.83 51.1787 129.931 51.2 129.995 51.232V55.68C129.899 55.6373 129.782 55.6107 129.643 55.6C129.515 55.5893 129.398 55.5787 129.291 55.568C128.374 55.4933 127.59 55.52 126.939 55.648C126.289 55.776 125.761 55.9947 125.355 56.304C124.95 56.6133 124.657 56.992 124.475 57.44C124.294 57.888 124.203 58.3893 124.203 58.944V68H119.531ZM138.815 68.32C138.047 68.32 137.289 68.2027 136.543 67.968C135.807 67.7333 135.135 67.3867 134.527 66.928C133.919 66.4693 133.428 65.904 133.055 65.232C132.692 64.56 132.511 63.7813 132.511 62.896V51.456H137.183V62.304C137.183 63.072 137.433 63.7013 137.935 64.192C138.436 64.6827 139.172 64.928 140.143 64.928C141.06 64.928 141.785 64.6933 142.319 64.224C142.863 63.744 143.135 63.0773 143.135 62.224V51.456H147.759V68H144.239L143.695 64.72C143.503 65.6907 143.14 66.4373 142.607 66.96C142.084 67.472 141.481 67.824 140.799 68.016C140.127 68.2187 139.465 68.32 138.815 68.32ZM151.892 68V51.456H156.356V68H151.892ZM151.844 49.088V44.88H156.388V49.088H151.844ZM167.511 68.176C166.05 68.176 164.919 67.9893 164.119 67.616C163.33 67.2427 162.78 66.72 162.471 66.048C162.172 65.376 162.023 64.5973 162.023 63.712V54.704H159.335V51.456H162.167L163.351 46.464H166.679V51.44H170.359V54.704H166.679L166.711 63.52C166.711 63.9253 166.759 64.2293 166.855 64.432C166.962 64.624 167.122 64.752 167.335 64.816C167.559 64.8693 167.842 64.896 168.183 64.896H170.407V67.776C170.183 67.872 169.847 67.9627 169.399 68.048C168.951 68.1333 168.322 68.176 167.511 68.176ZM179.786 68L188.058 44.864H193.002L201.274 68H196.618L194.73 62.64H186.394L184.474 68H179.786ZM187.45 58.56H193.594L190.538 49.36L187.45 58.56ZM210.344 68.32C209.192 68.32 208.082 68.1333 207.016 67.76C205.96 67.376 205.058 66.7787 204.312 65.968C203.576 65.1467 203.112 64.0853 202.92 62.784H206.952C207.101 63.3707 207.357 63.8347 207.72 64.176C208.093 64.5173 208.514 64.7627 208.984 64.912C209.453 65.0507 209.901 65.12 210.328 65.12C211.224 65.12 211.944 64.9813 212.488 64.704C213.042 64.416 213.32 63.9787 213.32 63.392C213.32 62.944 213.154 62.5867 212.824 62.32C212.504 62.0533 211.97 61.8507 211.224 61.712L208.312 61.104C206.85 60.7947 205.672 60.272 204.776 59.536C203.89 58.7893 203.442 57.7333 203.432 56.368C203.421 55.376 203.677 54.4853 204.2 53.696C204.733 52.9067 205.517 52.2827 206.552 51.824C207.597 51.3653 208.872 51.136 210.376 51.136C212.413 51.136 214.04 51.584 215.256 52.48C216.482 53.376 217.106 54.64 217.128 56.272H213.224C213.106 55.632 212.786 55.1413 212.264 54.8C211.752 54.448 211.101 54.272 210.312 54.272C209.512 54.272 208.85 54.416 208.328 54.704C207.805 54.992 207.544 55.4293 207.544 56.016C207.544 56.4533 207.757 56.8 208.184 57.056C208.61 57.3013 209.272 57.5147 210.168 57.696L212.856 58.304C213.784 58.528 214.536 58.8373 215.112 59.232C215.698 59.616 216.152 60.0373 216.472 60.496C216.792 60.9547 217.01 61.4187 217.128 61.888C217.256 62.3467 217.32 62.7627 217.32 63.136C217.32 64.2347 217.026 65.1733 216.44 65.952C215.853 66.72 215.037 67.3067 213.992 67.712C212.946 68.1173 211.73 68.32 210.344 68.32ZM227.094 68.32C225.942 68.32 224.832 68.1333 223.766 67.76C222.71 67.376 221.808 66.7787 221.062 65.968C220.326 65.1467 219.862 64.0853 219.67 62.784H223.702C223.851 63.3707 224.107 63.8347 224.47 64.176C224.843 64.5173 225.264 64.7627 225.734 64.912C226.203 65.0507 226.651 65.12 227.078 65.12C227.974 65.12 228.694 64.9813 229.238 64.704C229.792 64.416 230.07 63.9787 230.07 63.392C230.07 62.944 229.904 62.5867 229.574 62.32C229.254 62.0533 228.72 61.8507 227.974 61.712L225.062 61.104C223.6 60.7947 222.422 60.272 221.526 59.536C220.64 58.7893 220.192 57.7333 220.182 56.368C220.171 55.376 220.427 54.4853 220.95 53.696C221.483 52.9067 222.267 52.2827 223.302 51.824C224.347 51.3653 225.622 51.136 227.126 51.136C229.163 51.136 230.79 51.584 232.006 52.48C233.232 53.376 233.856 54.64 233.878 56.272H229.974C229.856 55.632 229.536 55.1413 229.014 54.8C228.502 54.448 227.851 54.272 227.062 54.272C226.262 54.272 225.6 54.416 225.078 54.704C224.555 54.992 224.294 55.4293 224.294 56.016C224.294 56.4533 224.507 56.8 224.934 57.056C225.36 57.3013 226.022 57.5147 226.918 57.696L229.606 58.304C230.534 58.528 231.286 58.8373 231.862 59.232C232.448 59.616 232.902 60.0373 233.222 60.496C233.542 60.9547 233.76 61.4187 233.878 61.888C234.006 62.3467 234.07 62.7627 234.07 63.136C234.07 64.2347 233.776 65.1733 233.19 65.952C232.603 66.72 231.787 67.3067 230.742 67.712C229.696 68.1173 228.48 68.32 227.094 68.32ZM244.913 68.32C243.27 68.32 241.825 67.9787 240.577 67.296C239.339 66.6027 238.374 65.6267 237.681 64.368C236.987 63.1093 236.641 61.6267 236.641 59.92C236.641 58.2667 236.955 56.7787 237.585 55.456C238.225 54.1227 239.142 53.072 240.337 52.304C241.531 51.5253 242.977 51.136 244.673 51.136C246.358 51.136 247.771 51.4933 248.913 52.208C250.054 52.912 250.918 53.8987 251.505 55.168C252.091 56.4267 252.385 57.8827 252.385 59.536V60.8H241.265C241.265 61.6427 241.403 62.3787 241.681 63.008C241.958 63.6267 242.358 64.1067 242.881 64.448C243.414 64.7787 244.054 64.944 244.801 64.944C245.601 64.944 246.299 64.7733 246.897 64.432C247.494 64.0907 247.915 63.5307 248.161 62.752H252.369C252.177 63.9253 251.707 64.928 250.961 65.76C250.214 66.592 249.307 67.2267 248.241 67.664C247.174 68.1013 246.065 68.32 244.913 68.32ZM241.265 58.016H248.017C248.017 57.3547 247.889 56.7467 247.633 56.192C247.387 55.6373 247.014 55.2 246.513 54.88C246.022 54.56 245.403 54.4 244.657 54.4C243.942 54.4 243.329 54.576 242.817 54.928C242.315 55.2693 241.926 55.7173 241.649 56.272C241.382 56.8267 241.254 57.408 241.265 58.016ZM262.375 68.32C261.223 68.32 260.113 68.1333 259.047 67.76C257.991 67.376 257.089 66.7787 256.343 65.968C255.607 65.1467 255.143 64.0853 254.951 62.784H258.983C259.132 63.3707 259.388 63.8347 259.751 64.176C260.124 64.5173 260.545 64.7627 261.015 64.912C261.484 65.0507 261.932 65.12 262.359 65.12C263.255 65.12 263.975 64.9813 264.519 64.704C265.073 64.416 265.351 63.9787 265.351 63.392C265.351 62.944 265.185 62.5867 264.855 62.32C264.535 62.0533 264.001 61.8507 263.255 61.712L260.343 61.104C258.881 60.7947 257.703 60.272 256.807 59.536C255.921 58.7893 255.473 57.7333 255.463 56.368C255.452 55.376 255.708 54.4853 256.231 53.696C256.764 52.9067 257.548 52.2827 258.583 51.824C259.628 51.3653 260.903 51.136 262.407 51.136C264.444 51.136 266.071 51.584 267.287 52.48C268.513 53.376 269.137 54.64 269.159 56.272H265.255C265.137 55.632 264.817 55.1413 264.295 54.8C263.783 54.448 263.132 54.272 262.343 54.272C261.543 54.272 260.881 54.416 260.359 54.704C259.836 54.992 259.575 55.4293 259.575 56.016C259.575 56.4533 259.788 56.8 260.215 57.056C260.641 57.3013 261.303 57.5147 262.199 57.696L264.887 58.304C265.815 58.528 266.567 58.8373 267.143 59.232C267.729 59.616 268.183 60.0373 268.503 60.496C268.823 60.9547 269.041 61.4187 269.159 61.888C269.287 62.3467 269.351 62.7627 269.351 63.136C269.351 64.2347 269.057 65.1733 268.471 65.952C267.884 66.72 267.068 67.3067 266.023 67.712C264.977 68.1173 263.761 68.32 262.375 68.32ZM279.125 68.32C277.973 68.32 276.863 68.1333 275.797 67.76C274.741 67.376 273.839 66.7787 273.093 65.968C272.357 65.1467 271.893 64.0853 271.701 62.784H275.733C275.882 63.3707 276.138 63.8347 276.501 64.176C276.874 64.5173 277.295 64.7627 277.765 64.912C278.234 65.0507 278.682 65.12 279.109 65.12C280.005 65.12 280.725 64.9813 281.269 64.704C281.823 64.416 282.101 63.9787 282.101 63.392C282.101 62.944 281.935 62.5867 281.605 62.32C281.285 62.0533 280.751 61.8507 280.005 61.712L277.093 61.104C275.631 60.7947 274.453 60.272 273.557 59.536C272.671 58.7893 272.223 57.7333 272.213 56.368C272.202 55.376 272.458 54.4853 272.981 53.696C273.514 52.9067 274.298 52.2827 275.333 51.824C276.378 51.3653 277.653 51.136 279.157 51.136C281.194 51.136 282.821 51.584 284.037 52.48C285.263 53.376 285.887 54.64 285.909 56.272H282.005C281.887 55.632 281.567 55.1413 281.045 54.8C280.533 54.448 279.882 54.272 279.093 54.272C278.293 54.272 277.631 54.416 277.109 54.704C276.586 54.992 276.325 55.4293 276.325 56.016C276.325 56.4533 276.538 56.8 276.965 57.056C277.391 57.3013 278.053 57.5147 278.949 57.696L281.637 58.304C282.565 58.528 283.317 58.8373 283.893 59.232C284.479 59.616 284.933 60.0373 285.253 60.496C285.573 60.9547 285.791 61.4187 285.909 61.888C286.037 62.3467 286.101 62.7627 286.101 63.136C286.101 64.2347 285.807 65.1733 285.221 65.952C284.634 66.72 283.818 67.3067 282.773 67.712C281.727 68.1173 280.511 68.32 279.125 68.32ZM289.344 68V51.456H293.92V53.792C294.421 53.0667 295.093 52.4427 295.936 51.92C296.789 51.3973 297.861 51.136 299.152 51.136C299.717 51.136 300.293 51.2373 300.88 51.44C301.466 51.6427 302.016 51.9413 302.528 52.336C303.05 52.72 303.472 53.2053 303.792 53.792C304.325 53.0347 305.024 52.4053 305.888 51.904C306.762 51.392 307.733 51.136 308.8 51.136C309.418 51.136 310.042 51.2373 310.672 51.44C311.312 51.6427 311.898 51.9733 312.432 52.432C312.965 52.8907 313.392 53.504 313.712 54.272C314.042 55.0293 314.208 55.968 314.208 57.088V68H309.536V57.664C309.536 57.0027 309.402 56.4747 309.136 56.08C308.88 55.6747 308.549 55.3867 308.144 55.216C307.749 55.0347 307.328 54.944 306.88 54.944C306.464 54.944 306.042 55.0293 305.616 55.2C305.189 55.36 304.826 55.6213 304.528 55.984C304.229 56.3467 304.08 56.8213 304.08 57.408V68H299.424V57.248C299.424 56.7467 299.29 56.3253 299.024 55.984C298.757 55.6427 298.421 55.3867 298.016 55.216C297.621 55.0347 297.216 54.944 296.8 54.944C296.373 54.944 295.946 55.0347 295.52 55.216C295.093 55.3867 294.736 55.6587 294.448 56.032C294.16 56.3947 294.016 56.8533 294.016 57.408V68H289.344ZM325.6 68.32C323.957 68.32 322.512 67.9787 321.264 67.296C320.027 66.6027 319.061 65.6267 318.368 64.368C317.675 63.1093 317.328 61.6267 317.328 59.92C317.328 58.2667 317.643 56.7787 318.272 55.456C318.912 54.1227 319.829 53.072 321.024 52.304C322.219 51.5253 323.664 51.136 325.36 51.136C327.045 51.136 328.459 51.4933 329.6 52.208C330.741 52.912 331.605 53.8987 332.192 55.168C332.779 56.4267 333.072 57.8827 333.072 59.536V60.8H321.952C321.952 61.6427 322.091 62.3787 322.368 63.008C322.645 63.6267 323.045 64.1067 323.568 64.448C324.101 64.7787 324.741 64.944 325.488 64.944C326.288 64.944 326.987 64.7733 327.584 64.432C328.181 64.0907 328.603 63.5307 328.848 62.752H333.056C332.864 63.9253 332.395 64.928 331.648 65.76C330.901 66.592 329.995 67.2267 328.928 67.664C327.861 68.1013 326.752 68.32 325.6 68.32ZM321.952 58.016H328.704C328.704 57.3547 328.576 56.7467 328.32 56.192C328.075 55.6373 327.701 55.2 327.2 54.88C326.709 54.56 326.091 54.4 325.344 54.4C324.629 54.4 324.016 54.576 323.504 54.928C323.003 55.2693 322.613 55.7173 322.336 56.272C322.069 56.8267 321.941 57.408 321.952 58.016ZM336.438 68V51.456H341.03V53.792C341.286 53.3867 341.616 52.9973 342.022 52.624C342.438 52.24 342.96 51.9253 343.59 51.68C344.219 51.4347 344.966 51.312 345.83 51.312C346.843 51.312 347.787 51.5093 348.662 51.904C349.547 52.2987 350.262 52.9227 350.806 53.776C351.35 54.6187 351.622 55.7227 351.622 57.088V68H346.95V57.664C346.95 56.768 346.683 56.096 346.15 55.648C345.616 55.2 344.966 54.976 344.198 54.976C343.686 54.976 343.19 55.0667 342.71 55.248C342.24 55.4293 341.856 55.7013 341.558 56.064C341.259 56.4267 341.11 56.8747 341.11 57.408V68H336.438ZM361.949 68.176C360.487 68.176 359.357 67.9893 358.557 67.616C357.767 67.2427 357.218 66.72 356.909 66.048C356.61 65.376 356.461 64.5973 356.461 63.712V54.704H353.773V51.456H356.605L357.789 46.464H361.117V51.44H364.797V54.704H361.117L361.149 63.52C361.149 63.9253 361.197 64.2293 361.293 64.432C361.399 64.624 361.559 64.752 361.773 64.816C361.997 64.8693 362.279 64.896 362.621 64.896H364.845V67.776C364.621 67.872 364.285 67.9627 363.837 68.048C363.389 68.1333 362.759 68.176 361.949 68.176ZM375.936 68V44.864H384.448C386.133 44.864 387.642 45.1573 388.976 45.744C390.309 46.32 391.36 47.1733 392.128 48.304C392.906 49.4347 393.296 50.816 393.296 52.448C393.296 53.984 392.954 55.296 392.272 56.384C391.589 57.472 390.629 58.304 389.392 58.88C388.165 59.456 386.72 59.744 385.056 59.744H380.64V68H375.936ZM380.592 56.128H384.928C386.101 56.128 387.061 55.7547 387.808 55.008C388.554 54.2507 388.928 53.3173 388.928 52.208C388.928 51.056 388.533 50.144 387.744 49.472C386.954 48.7893 385.994 48.448 384.864 48.448H380.592V56.128ZM396.219 68V51.456H400.715V55.376C400.981 54.5333 401.355 53.7973 401.835 53.168C402.325 52.528 402.917 52.032 403.611 51.68C404.304 51.3173 405.088 51.136 405.963 51.136C406.112 51.136 406.251 51.1467 406.379 51.168C406.517 51.1787 406.619 51.2 406.683 51.232V55.68C406.587 55.6373 406.469 55.6107 406.331 55.6C406.203 55.5893 406.085 55.5787 405.979 55.568C405.061 55.4933 404.277 55.52 403.627 55.648C402.976 55.776 402.448 55.9947 402.043 56.304C401.637 56.6133 401.344 56.992 401.163 57.44C400.981 57.888 400.891 58.3893 400.891 58.944V68H396.219ZM416.591 68.32C414.97 68.32 413.556 67.9733 412.351 67.28C411.156 66.5867 410.228 65.6053 409.567 64.336C408.916 63.0667 408.591 61.5627 408.591 59.824C408.591 58.0853 408.916 56.5653 409.567 55.264C410.228 53.9627 411.156 52.9493 412.351 52.224C413.556 51.4987 414.975 51.136 416.607 51.136C418.239 51.136 419.652 51.4933 420.847 52.208C422.042 52.912 422.964 53.9147 423.615 55.216C424.266 56.5173 424.591 58.0533 424.591 59.824C424.591 61.488 424.271 62.96 423.631 64.24C423.002 65.5093 422.09 66.5067 420.895 67.232C419.711 67.9573 418.276 68.32 416.591 68.32ZM416.607 64.848C417.428 64.848 418.09 64.608 418.591 64.128C419.092 63.648 419.455 63.0187 419.679 62.24C419.903 61.4507 420.015 60.592 420.015 59.664C420.015 58.7893 419.914 57.9627 419.711 57.184C419.508 56.4053 419.156 55.776 418.655 55.296C418.154 54.816 417.471 54.576 416.607 54.576C415.786 54.576 415.119 54.8053 414.607 55.264C414.106 55.712 413.738 56.3253 413.503 57.104C413.268 57.872 413.151 58.7253 413.151 59.664C413.151 60.528 413.258 61.36 413.471 62.16C413.684 62.9493 414.042 63.5947 414.543 64.096C415.044 64.5973 415.732 64.848 416.607 64.848ZM435.243 73.472C432.299 73.472 430.059 73.0987 428.523 72.352C426.997 71.6053 426.235 70.624 426.235 69.408C426.235 68.8427 426.379 68.368 426.667 67.984C426.965 67.6 427.312 67.296 427.707 67.072C428.112 66.8373 428.48 66.6613 428.811 66.544C429.152 66.416 429.365 66.3307 429.451 66.288C429.28 66.192 429.029 66.0533 428.699 65.872C428.379 65.68 428.085 65.424 427.819 65.104C427.552 64.7733 427.419 64.3467 427.419 63.824C427.419 63.2373 427.696 62.6933 428.251 62.192C428.816 61.6907 429.669 61.344 430.811 61.152C429.723 60.64 428.891 59.9467 428.315 59.072C427.749 58.1973 427.467 57.3013 427.467 56.384C427.467 55.296 427.808 54.3627 428.491 53.584C429.173 52.8053 430.107 52.2133 431.291 51.808C432.475 51.4027 433.813 51.2 435.307 51.2C436.437 51.2 437.365 51.3227 438.091 51.568C438.827 51.8027 439.504 52.112 440.123 52.496C440.368 52.4 440.688 52.2773 441.083 52.128C441.488 51.968 441.925 51.7973 442.395 51.616C442.875 51.424 443.339 51.2373 443.787 51.056C444.235 50.864 444.635 50.6933 444.987 50.544L444.955 54.16L442.107 54.624C442.213 54.912 442.299 55.2213 442.363 55.552C442.427 55.8827 442.458 56.1547 442.458 56.368C442.458 57.328 442.176 58.224 441.611 59.056C441.056 59.888 440.224 60.56 439.115 61.072C438.005 61.584 436.624 61.84 434.97 61.84C434.779 61.84 434.512 61.8347 434.171 61.824C433.829 61.8133 433.552 61.7973 433.339 61.776C432.72 61.808 432.288 61.888 432.043 62.016C431.808 62.144 431.691 62.2933 431.691 62.464C431.691 62.72 431.931 62.8907 432.411 62.976C432.891 63.0507 433.616 63.12 434.587 63.184C434.939 63.2053 435.419 63.232 436.027 63.264C436.635 63.296 437.301 63.3387 438.027 63.392C440.053 63.5307 441.563 64.032 442.555 64.896C443.557 65.7493 444.059 66.8267 444.059 68.128C444.059 69.6747 443.323 70.9493 441.851 71.952C440.389 72.9653 438.187 73.472 435.243 73.472ZM435.995 70.864C437.285 70.864 438.208 70.704 438.763 70.384C439.328 70.064 439.611 69.6053 439.611 69.008C439.611 68.5067 439.392 68.1013 438.955 67.792C438.528 67.472 437.909 67.2853 437.099 67.232L433.307 66.976C432.805 66.9547 432.368 67.0293 431.995 67.2C431.621 67.3707 431.328 67.6053 431.115 67.904C430.912 68.2027 430.811 68.5227 430.811 68.864C430.811 69.5573 431.232 70.064 432.075 70.384C432.917 70.704 434.224 70.864 435.995 70.864ZM435.115 59.232C436 59.232 436.709 58.992 437.243 58.512C437.776 58.0213 438.043 57.36 438.043 56.528C438.043 55.664 437.776 54.9707 437.243 54.448C436.709 53.9253 436 53.664 435.115 53.664C434.229 53.664 433.515 53.9253 432.971 54.448C432.427 54.9707 432.155 55.664 432.155 56.528C432.155 57.3493 432.416 58.0053 432.939 58.496C433.472 58.9867 434.197 59.232 435.115 59.232ZM447.688 68V51.456H452.184V55.376C452.45 54.5333 452.824 53.7973 453.304 53.168C453.794 52.528 454.386 52.032 455.08 51.68C455.773 51.3173 456.557 51.136 457.432 51.136C457.581 51.136 457.72 51.1467 457.848 51.168C457.986 51.1787 458.088 51.2 458.152 51.232V55.68C458.056 55.6373 457.938 55.6107 457.8 55.6C457.672 55.5893 457.554 55.5787 457.448 55.568C456.53 55.4933 455.746 55.52 455.095 55.648C454.445 55.776 453.917 55.9947 453.512 56.304C453.106 56.6133 452.813 56.992 452.632 57.44C452.45 57.888 452.36 58.3893 452.36 58.944V68H447.688ZM465.412 68.32C464.367 68.32 463.417 68.1227 462.564 67.728C461.721 67.3333 461.055 66.7627 460.564 66.016C460.073 65.2587 459.828 64.3413 459.828 63.264C459.828 61.4507 460.505 60.0747 461.86 59.136C463.215 58.1867 465.353 57.696 468.276 57.664L470.356 57.632V56.64C470.356 55.8827 470.132 55.3013 469.684 54.896C469.247 54.48 468.559 54.2773 467.62 54.288C466.948 54.2987 466.303 54.4587 465.684 54.768C465.076 55.0773 464.655 55.616 464.42 56.384H460.532C460.596 55.1893 460.943 54.208 461.572 53.44C462.212 52.6613 463.071 52.0853 464.148 51.712C465.225 51.328 466.457 51.136 467.844 51.136C469.529 51.136 470.884 51.3493 471.908 51.776C472.932 52.192 473.673 52.7947 474.132 53.584C474.601 54.3627 474.836 55.2907 474.836 56.368V68H470.932L470.548 65.152C469.983 66.3467 469.273 67.1733 468.42 67.632C467.577 68.0907 466.575 68.32 465.412 68.32ZM466.996 65.248C467.412 65.248 467.817 65.1733 468.212 65.024C468.617 64.864 468.98 64.656 469.3 64.4C469.62 64.1333 469.871 63.8347 470.052 63.504C470.244 63.1733 470.345 62.832 470.356 62.48V60.032L468.676 60.064C467.897 60.0747 467.172 60.1707 466.5 60.352C465.828 60.5227 465.284 60.8053 464.868 61.2C464.463 61.5947 464.26 62.128 464.26 62.8C464.26 63.568 464.521 64.1707 465.044 64.608C465.577 65.0347 466.228 65.248 466.996 65.248ZM478.625 68V51.456H483.201V53.792C483.702 53.0667 484.374 52.4427 485.217 51.92C486.07 51.3973 487.142 51.136 488.433 51.136C488.998 51.136 489.574 51.2373 490.161 51.44C490.748 51.6427 491.297 51.9413 491.809 52.336C492.332 52.72 492.753 53.2053 493.073 53.792C493.606 53.0347 494.305 52.4053 495.169 51.904C496.044 51.392 497.014 51.136 498.081 51.136C498.7 51.136 499.324 51.2373 499.953 51.44C500.593 51.6427 501.18 51.9733 501.713 52.432C502.246 52.8907 502.673 53.504 502.993 54.272C503.324 55.0293 503.489 55.968 503.489 57.088V68H498.817V57.664C498.817 57.0027 498.684 56.4747 498.417 56.08C498.161 55.6747 497.83 55.3867 497.425 55.216C497.03 55.0347 496.609 54.944 496.161 54.944C495.745 54.944 495.324 55.0293 494.897 55.2C494.47 55.36 494.108 55.6213 493.809 55.984C493.51 56.3467 493.361 56.8213 493.361 57.408V68H488.705V57.248C488.705 56.7467 488.572 56.3253 488.305 55.984C488.038 55.6427 487.702 55.3867 487.297 55.216C486.902 55.0347 486.497 54.944 486.081 54.944C485.654 54.944 485.228 55.0347 484.801 55.216C484.374 55.3867 484.017 55.6587 483.729 56.032C483.441 56.3947 483.297 56.8533 483.297 57.408V68H478.625ZM518.852 72.576C517.967 71.0827 517.188 69.6053 516.516 68.144C515.844 66.6933 515.321 65.184 514.948 63.616C514.585 62.048 514.404 60.352 514.404 58.528C514.404 55.872 514.82 53.3333 515.652 50.912C516.495 48.48 517.593 46.272 518.948 44.288H522.26C521.151 46.368 520.26 48.6347 519.588 51.088C518.916 53.5307 518.58 56.0213 518.58 58.56C518.58 60.9813 518.884 63.3227 519.492 65.584C520.1 67.8347 520.98 70.1653 522.132 72.576H518.852ZM525.748 68V44.864H535.508C537.354 44.864 538.863 45.1573 540.036 45.744C541.21 46.3307 542.074 47.1467 542.628 48.192C543.183 49.2267 543.46 50.4213 543.46 51.776C543.46 52.992 543.268 54.0213 542.884 54.864C542.511 55.696 542.015 56.3893 541.396 56.944C540.788 57.4987 540.122 57.952 539.396 58.304L543.7 68H538.852L535.092 59.088H530.404V68H525.748ZM530.404 55.488H534.676C535.924 55.488 536.911 55.152 537.636 54.48C538.372 53.808 538.74 52.944 538.74 51.888C538.74 50.8213 538.388 49.9787 537.684 49.36C536.98 48.7413 536.09 48.432 535.012 48.432H530.404V55.488ZM546.536 68L554.808 44.864H559.752L568.024 68H563.368L561.48 62.64H553.144L551.224 68H546.536ZM554.2 58.56H560.344L557.288 49.36L554.2 58.56ZM571.498 68V44.864H580.01C581.696 44.864 583.205 45.1573 584.538 45.744C585.872 46.32 586.922 47.1733 587.69 48.304C588.469 49.4347 588.858 50.816 588.858 52.448C588.858 53.984 588.517 55.296 587.834 56.384C587.152 57.472 586.192 58.304 584.954 58.88C583.728 59.456 582.282 59.744 580.618 59.744H576.202V68H571.498ZM576.154 56.128H580.49C581.664 56.128 582.624 55.7547 583.37 55.008C584.117 54.2507 584.49 53.3173 584.49 52.208C584.49 51.056 584.096 50.144 583.306 49.472C582.517 48.7893 581.557 48.448 580.426 48.448H576.154V56.128ZM590.059 72.576C591.221 70.1653 592.107 67.8347 592.715 65.584C593.323 63.3227 593.627 60.9813 593.627 58.56C593.627 56.0213 593.291 53.5307 592.619 51.088C591.947 48.6347 591.056 46.368 589.947 44.288H593.243C594.608 46.272 595.707 48.48 596.539 50.912C597.381 53.3333 597.803 55.872 597.803 58.528C597.803 60.352 597.616 62.048 597.243 63.616C596.869 65.184 596.347 66.6933 595.675 68.144C595.013 69.6053 594.235 71.0827 593.339 72.576H590.059Z" fill="#1B1B1B"/>
<defs>
<filter id="filter0_d_8102_21533" x="0" y="32" width="56" height="56" filterUnits="userSpaceOnUse" color-interpolation-filters="sRGB">
<feFlood flood-opacity="0" result="BackgroundImageFix"/>
<feColorMatrix in="SourceAlpha" type="matrix" values="0 0 0 0 0 0 0 0 0 0 0 0 0 0 0 0 0 0 127 0" result="hardAlpha"/>
<feOffset dy="4"/>
<feGaussianBlur stdDeviation="2"/>
<feComposite in2="hardAlpha" operator="out"/>
<feColorMatrix type="matrix" values="0 0 0 0 0 0 0 0 0 0 0 0 0 0 0 0 0 0 0.25 0"/>
<feBlend mode="normal" in2="BackgroundImageFix" result="effect1_dropShadow_8102_21533"/>
<feBlend mode="normal" in="SourceGraphic" in2="effect1_dropShadow_8102_21533" result="shape"/>
</filter>
</defs>
</svg>
